0
SECTION
2
HEADER
9
$INSUNITS
70
4
9
$ACADVER
1
AC1014
9
$HANDSEED
5
FFFF
0
ENDSEC
0
SECTION
2
TABLES
0
TABLE
2
VPORT
5
8
100
AcDbSymbolTable
0
ENDTAB
0
TABLE
2
LTYPE
5
5
100
AcDbSymbolTable
0
LTYPE
5
14
100
AcDbSymbolTableRecord
100
AcDbLinetypeTableRecord
2
BYBLOCK
70
0
0
LTYPE
5
15
100
AcDbSymbolTableRecord
100
AcDbLinetypeTableRecord
2
BYLAYER
70
0
0
ENDTAB
0
TABLE
2
LAYER
5
2
100
AcDbSymbolTable
70
2
0
LAYER
5
50
100
AcDbSymbolTableRecord
100
AcDbLayerTableRecord
2
0
70
0
6
CONTINUOUS
0
ENDTAB
0
TABLE
2
STYLE
5
3
100
AcDbSymbolTable
70
1
0
STYLE
5
11
100
AcDbSymbolTableRecord
100
AcDbTextStyleTableRecord
2
STANDARD
70
0
0
ENDTAB
0
TABLE
2
VIEW
5
6
100
AcDbSymbolTable
70
0
0
ENDTAB
0
TABLE
2
UCS
5
7
100
AcDbSymbolTable
70
0
0
ENDTAB
0
TABLE
2
APPID
5
9
100
AcDbSymbolTable
70
2
0
APPID
5
12
100
AcDbSymbolTableRecord
100
AcDbRegAppTableRecord
2
ACAD
70
0
0
ENDTAB
0
TABLE
2
DIMSTYLE
5
A
100
AcDbSymbolTable
70
1
0
ENDTAB
0
TABLE
2
BLOCK_RECORD
5
1
100
AcDbSymbolTable
70
1
0
BLOCK_RECORD
5
1F
100
AcDbSymbolTableRecord
100
AcDbBlockTableRecord
2
*MODEL_SPACE
0
BLOCK_RECORD
5
1B
100
AcDbSymbolTableRecord
100
AcDbBlockTableRecord
2
*PAPER_SPACE
0
ENDTAB
0
ENDSEC
0
SECTION
2
BLOCKS
0
BLOCK
5
20
100
AcDbEntity
100
AcDbBlockBegin
2
*MODEL_SPACE
0
ENDBLK
5
21
100
AcDbEntity
100
AcDbBlockEnd
0
BLOCK
5
1C
100
AcDbEntity
100
AcDbBlockBegin
2
*PAPER_SPACE
0
ENDBLK
5
1D
100
AcDbEntity
100
AcDbBlockEnd
0
ENDSEC
0
SECTION
2
ENTITIES
0
LWPOLYLINE
5
100
100
AcDbEntity
8
0
100
AcDbPolyline
90
36
70
1
43
0.0
10
189.83333333333331
20
97.510000000000019
10
224.83333333333331
20
97.510000000000019
10
224.83333333333331
20
102.51000000000002
10
246
20
102.51000000000002
10
245.99999999999997
20
117.51000000000002
10
250.99999999999997
20
117.51000000000002
10
250.99999999999997
20
137.51000000000002
10
245.99999999999997
20
137.51000000000002
10
245.99999999999997
20
157.51000000000002
10
250.99999999999997
20
157.51000000000002
10
250.99999999999997
20
177.51000000000002
10
245.99999999999997
20
177.51000000000002
10
245.99999999999997
20
192.51000000000002
10
224.83333333333326
20
192.51000000000002
10
224.83333333333331
20
197.51000000000002
10
189.83333333333331
20
197.51000000000002
10
189.83333333333331
20
192.51000000000002
10
163.66666666666663
20
192.51000000000002
10
163.66666666666663
20
197.51000000000002
10
128.66666666666663
20
197.51000000000002
10
128.66666666666663
20
192.51000000000002
10
107.49999999999997
20
192.51000000000002
10
107.49999999999997
20
177.51000000000002
10
102.49999999999997
20
177.51000000000002
10
102.49999999999997
20
157.51000000000002
10
107.49999999999997
20
157.51000000000002
10
107.49999999999997
20
137.51000000000002
10
102.49999999999997
20
137.51000000000002
10
102.49999999999997
20
117.51000000000002
10
107.49999999999997
20
117.51000000000002
10
107.49999999999997
20
102.51000000000002
10
128.66666666666663
20
102.51000000000002
10
128.66666666666663
20
97.510000000000019
10
163.66666666666663
20
97.510000000000019
10
163.66666666666663
20
102.51000000000002
10
189.83333333333331
20
102.51000000000002
0
LWPOLYLINE
5
101
100
AcDbEntity
8
0
100
AcDbPolyline
90
36
70
1
43
0.0
10
340.08333333333326
20
100
10
375.08333333333326
20
100
10
375.08333333333326
20
95
10
401.24999999999994
20
95
10
401.25
20
115
10
396.25
20
115
10
396.25
20
135
10
401.25
20
135
10
401.25
20
155
10
396.25
20
155
10
396.25
20
175
10
401.25
20
175
10
401.25
20
195
10
375.08333333333331
20
195
10
375.08333333333326
20
190
10
340.08333333333326
20
190
10
340.08333333333326
20
195
10
313.91666666666657
20
195
10
313.91666666666663
20
190
10
278.91666666666663
20
190
10
278.91666666666663
20
195
10
252.74999999999994
20
195
10
252.74999999999994
20
175
10
257.74999999999994
20
175
10
257.74999999999994
20
155
10
252.74999999999994
20
155
10
252.74999999999994
20
135
10
257.74999999999994
20
135
10
257.74999999999994
20
115
10
252.74999999999994
20
115
10
252.74999999999994
20
95
10
278.91666666666663
20
95
10
278.91666666666663
20
100
10
313.91666666666663
20
100
10
313.91666666666663
20
95
10
340.08333333333326
20
95
0
LWPOLYLINE
5
102
100
AcDbEntity
8
0
100
AcDbPolyline
90
36
70
1
43
0.0
10
340.08333333333326
20
-1.0000000000000142
10
375.08333333333326
20
-1.0000000000000142
10
375.08333333333326
20
-6.0000000000000142
10
401.24999999999994
20
-6.0000000000000142
10
401.25
20
13.999999999999986
10
396.25
20
13.999999999999986
10
396.25
20
33.999999999999986
10
401.25
20
33.999999999999986
10
401.25
20
53.999999999999986
10
396.25
20
53.999999999999986
10
396.25
20
73.999999999999986
10
401.25
20
73.999999999999986
10
401.25
20
93.999999999999986
10
375.08333333333331
20
93.999999999999986
10
375.08333333333326
20
88.999999999999986
10
340.08333333333326
20
88.999999999999986
10
340.08333333333326
20
93.999999999999986
10
313.91666666666657
20
93.999999999999986
10
313.91666666666663
20
88.999999999999986
10
278.91666666666663
20
88.999999999999986
10
278.91666666666663
20
93.999999999999986
10
252.74999999999994
20
93.999999999999986
10
252.74999999999994
20
73.999999999999986
10
257.74999999999994
20
73.999999999999986
10
257.74999999999994
20
53.999999999999986
10
252.74999999999994
20
53.999999999999986
10
252.74999999999994
20
33.999999999999986
10
257.74999999999994
20
33.999999999999986
10
257.74999999999994
20
13.999999999999986
10
252.74999999999994
20
13.999999999999986
10
252.74999999999994
20
-6.0000000000000142
10
278.91666666666663
20
-6.0000000000000142
10
278.91666666666663
20
-1.0000000000000142
10
313.91666666666663
20
-1.0000000000000142
10
313.91666666666663
20
-6.0000000000000142
10
340.08333333333326
20
-6.0000000000000142
0
LWPOLYLINE
5
103
100
AcDbEntity
8
0
100
AcDbPolyline
90
36
70
1
43
0.0
10
189.83333333333331
20
-3.490000000000002
10
224.83333333333331
20
-3.490000000000002
10
224.83333333333331
20
1.509999999999998
10
246
20
1.509999999999998
10
245.99999999999997
20
16.509999999999998
10
250.99999999999997
20
16.509999999999998
10
250.99999999999997
20
36.509999999999998
10
245.99999999999997
20
36.509999999999998
10
245.99999999999997
20
56.509999999999998
10
250.99999999999997
20
56.509999999999998
10
250.99999999999997
20
76.509999999999991
10
245.99999999999997
20
76.509999999999991
10
245.99999999999997
20
91.509999999999991
10
224.83333333333326
20
91.509999999999991
10
224.83333333333331
20
96.509999999999991
10
189.83333333333331
20
96.509999999999991
10
189.83333333333331
20
91.509999999999991
10
163.66666666666663
20
91.509999999999991
10
163.66666666666663
20
96.509999999999991
10
128.66666666666663
20
96.509999999999991
10
128.66666666666663
20
91.509999999999991
10
107.49999999999997
20
91.509999999999991
10
107.49999999999997
20
76.509999999999991
10
102.49999999999997
20
76.509999999999991
10
102.49999999999997
20
56.509999999999998
10
107.49999999999997
20
56.509999999999998
10
107.49999999999997
20
36.509999999999998
10
102.49999999999997
20
36.509999999999998
10
102.49999999999997
20
16.509999999999998
10
107.49999999999997
20
16.509999999999998
10
107.49999999999997
20
1.509999999999998
10
128.66666666666663
20
1.509999999999998
10
128.66666666666663
20
-3.490000000000002
10
163.66666666666663
20
-3.490000000000002
10
163.66666666666663
20
1.509999999999998
10
189.83333333333331
20
1.509999999999998
0
LWPOLYLINE
5
104
100
AcDbEntity
8
0
100
AcDbPolyline
90
36
70
1
43
0.0
10
189.83333333333331
20
-104.49000000000001
10
224.83333333333326
20
-104.49000000000001
10
224.83333333333326
20
-99.490000000000009
10
245.99999999999994
20
-99.490000000000009
10
245.99999999999994
20
-84.490000000000009
10
250.99999999999994
20
-84.490000000000009
10
250.99999999999994
20
-64.490000000000009
10
245.99999999999994
20
-64.490000000000009
10
245.99999999999994
20
-44.490000000000016
10
250.99999999999994
20
-44.490000000000016
10
250.99999999999994
20
-24.490000000000016
10
245.99999999999994
20
-24.490000000000016
10
245.99999999999994
20
-9.4900000000000162
10
224.83333333333326
20
-9.4900000000000162
10
224.83333333333326
20
-4.4900000000000162
10
189.83333333333331
20
-4.4900000000000162
10
189.83333333333331
20
-9.4900000000000162
10
163.66666666666669
20
-9.4900000000000162
10
163.66666666666669
20
-4.4900000000000162
10
128.66666666666671
20
-4.4900000000000162
10
128.66666666666669
20
-9.4900000000000162
10
107.50000000000003
20
-9.4900000000000162
10
107.50000000000003
20
-24.490000000000016
10
102.50000000000003
20
-24.490000000000016
10
102.50000000000003
20
-44.490000000000016
10
107.50000000000003
20
-44.490000000000016
10
107.50000000000003
20
-64.490000000000009
10
102.50000000000003
20
-64.490000000000009
10
102.50000000000003
20
-84.490000000000009
10
107.50000000000003
20
-84.490000000000009
10
107.50000000000003
20
-99.490000000000009
10
128.66666666666669
20
-99.490000000000009
10
128.66666666666669
20
-104.49000000000001
10
163.66666666666663
20
-104.49000000000001
10
163.66666666666669
20
-99.490000000000009
10
189.83333333333331
20
-99.490000000000009
0
LWPOLYLINE
5
105
100
AcDbEntity
8
0
100
AcDbPolyline
90
36
70
1
43
0.0
10
340.08333333333326
20
-102.00000000000003
10
375.08333333333326
20
-102.00000000000003
10
375.08333333333326
20
-107.00000000000003
10
401.24999999999994
20
-107.00000000000003
10
401.25
20
-87.000000000000028
10
396.25
20
-87.000000000000028
10
396.25
20
-67.000000000000028
10
401.25
20
-67.000000000000028
10
401.25
20
-47.000000000000028
10
396.25
20
-47.000000000000028
10
396.25
20
-27.000000000000032
10
401.25
20
-27.000000000000028
10
401.25
20
-7.0000000000000284
10
375.08333333333331
20
-7.0000000000000284
10
375.08333333333326
20
-12.000000000000028
10
340.08333333333326
20
-12.000000000000028
10
340.08333333333326
20
-7.0000000000000284
10
313.91666666666657
20
-7.0000000000000284
10
313.91666666666663
20
-12.000000000000028
10
278.91666666666663
20
-12.000000000000028
10
278.91666666666663
20
-7.0000000000000284
10
252.74999999999994
20
-7.0000000000000284
10
252.74999999999994
20
-27.000000000000028
10
257.74999999999994
20
-27.000000000000032
10
257.74999999999994
20
-47.000000000000028
10
252.74999999999994
20
-47.000000000000028
10
252.74999999999994
20
-67.000000000000028
10
257.74999999999994
20
-67.000000000000028
10
257.74999999999994
20
-87.000000000000028
10
252.74999999999994
20
-87.000000000000028
10
252.74999999999994
20
-107.00000000000003
10
278.91666666666663
20
-107.00000000000003
10
278.91666666666663
20
-102.00000000000003
10
313.91666666666663
20
-102.00000000000003
10
313.91666666666663
20
-107.00000000000003
10
340.08333333333326
20
-107.00000000000003
0
LWPOLYLINE
5
106
100
AcDbEntity
8
0
100
AcDbPolyline
90
4
70
1
43
0.0
10
178.24999999999994
20
-155.00000000000003
42
0.99999999999999989
10
176.24999999999994
20
-155.00000000000006
10
176.24999999999994
20
-166
42
0.99999999999999989
10
178.24999999999994
20
-166
0
LWPOLYLINE
5
107
100
AcDbEntity
8
0
100
AcDbPolyline
90
4
70
1
43
0.0
10
188.99999999999991
20
-155.00000000000003
42
0.99999999999999989
10
186.99999999999989
20
-155.00000000000006
10
186.99999999999989
20
-169
42
0.99999999999999989
10
188.99999999999991
20
-169
0
LWPOLYLINE
5
108
100
AcDbEntity
8
0
100
AcDbPolyline
90
4
70
1
43
0.0
10
167.49933333333325
20
-155.00000000000003
42
0.99999999999999989
10
165.4993333333332
20
-155.00000000000006
10
165.4993333333332
20
-169
42
0.99999999999999989
10
167.49933333333325
20
-169
0
LWPOLYLINE
5
109
100
AcDbEntity
8
0
100
AcDbPolyline
90
4
70
1
43
0.0
10
216.99999999999989
20
-149
10
216.99999999999989
20
-129.99999999999997
42
-0.99999999999999989
10
218.99999999999991
20
-129.99999999999997
10
218.99999999999991
20
-148.99999999999997
42
-0.99999999999999989
0
LWPOLYLINE
5
110
100
AcDbEntity
8
0
100
AcDbPolyline
90
4
70
1
43
0.0
10
206.99999999999989
20
-149
42
0.99999999999999989
10
208.99999999999991
20
-148.99999999999997
10
208.99999999999991
20
-132
42
0.99999999999999989
10
206.99999999999989
20
-132
0
LWPOLYLINE
5
111
100
AcDbEntity
8
0
100
AcDbPolyline
90
4
70
1
43
0.0
10
218.99999999999991
20
-155
10
218.99999999999991
20
-175
42
-0.99999999999999989
10
216.99999999999989
20
-175
10
216.99999999999989
20
-155
42
-0.99999999999999989
0
LWPOLYLINE
5
112
100
AcDbEntity
8
0
100
AcDbPolyline
90
4
70
1
43
0.0
10
198.99999999999991
20
-134
42
0.99999999999999989
10
196.99999999999989
20
-134.00000000000003
10
196.99999999999989
20
-149
42
0.99999999999999989
10
198.99999999999991
20
-149
0
LWPOLYLINE
5
113
100
AcDbEntity
8
0
100
AcDbPolyline
90
4
70
1
43
0.0
10
165.4993333333332
20
-149
10
165.4993333333332
20
-136
42
-0.99999999999999989
10
167.49933333333325
20
-136
10
167.49933333333325
20
-148.99999999999997
42
-0.99999999999999989
0
LWPOLYLINE
5
114
100
AcDbEntity
8
0
100
AcDbPolyline
90
4
70
1
43
0.0
10
188.99999999999991
20
-136
42
0.99999999999999989
10
186.99999999999989
20
-136
10
186.99999999999989
20
-149.00000000000003
42
0.99999999999999989
10
188.99999999999991
20
-149.00000000000003
0
LWPOLYLINE
5
115
100
AcDbEntity
8
0
100
AcDbPolyline
90
4
70
1
43
0.0
10
127.49933333333324
20
-155
42
0.99999999999999989
10
125.49933333333325
20
-154.99999999999997
10
125.49933333333325
20
-177.00000000000003
42
0.99999999999999989
10
127.49933333333323
20
-177.00000000000003
0
LWPOLYLINE
5
116
100
AcDbEntity
8
0
100
AcDbPolyline
90
4
70
1
43
0.0
10
155.49933333333323
20
-149
10
155.49933333333325
20
-134
42
-0.99999999999999989
10
157.49933333333325
20
-134
10
157.49933333333325
20
-149
42
-0.99999999999999989
0
LWPOLYLINE
5
117
100
AcDbEntity
8
0
100
AcDbPolyline
90
4
70
1
43
0.0
10
125.49933333333323
20
-149
10
125.49933333333325
20
-127
42
-0.99999999999999989
10
127.49933333333324
20
-127.00000000000003
10
127.49933333333325
20
-149
42
-0.99999999999999989
0
LWPOLYLINE
5
118
100
AcDbEntity
8
0
100
AcDbPolyline
90
4
70
1
43
0.0
10
135.49933333333323
20
-149
10
135.49933333333325
20
-129.99999999999997
42
-0.99999999999999989
10
137.49933333333325
20
-130
10
137.49933333333325
20
-149
42
-0.99999999999999989
0
LWPOLYLINE
5
119
100
AcDbEntity
8
0
100
AcDbPolyline
90
4
70
1
43
0.0
10
228.99999999999991
20
-127
42
0.99999999999999989
10
226.99999999999989
20
-127
10
226.99999999999989
20
-149
42
0.99999999999999989
10
228.99999999999991
20
-149
0
LWPOLYLINE
5
120
100
AcDbEntity
8
0
100
AcDbPolyline
90
4
70
1
43
0.0
10
226.99999999999989
20
-177.00000000000003
10
226.99999999999989
20
-155
42
-0.99999999999999989
10
228.99999999999991
20
-155
10
228.99999999999991
20
-177.00000000000003
42
-0.99999999999999989
0
LWPOLYLINE
5
121
100
AcDbEntity
8
0
100
AcDbPolyline
90
4
70
1
43
0.0
10
196.99999999999994
20
-171
10
196.99999999999989
20
-155.00000000000006
42
-0.99999999999999989
10
198.99999999999991
20
-155.00000000000003
10
198.99999999999983
20
-171
42
-0.99999999999999989
0
LWPOLYLINE
5
122
100
AcDbEntity
8
0
100
AcDbPolyline
90
4
70
1
43
0.0
10
115.49933333333323
20
-149
10
115.49933333333325
20
-124.99999999999997
42
-0.99999999999999989
10
117.49933333333324
20
-125
10
117.49933333333325
20
-149
42
-0.99999999999999989
0
LWPOLYLINE
5
123
100
AcDbEntity
8
0
100
AcDbPolyline
90
4
70
1
43
0.0
10
147.49933333333325
20
-155
42
0.99999999999999989
10
145.49933333333325
20
-154.99999999999997
10
145.49933333333325
20
-172.99999999999997
42
0.99999999999999989
10
147.49933333333323
20
-172.99999999999997
0
LWPOLYLINE
5
124
100
AcDbEntity
8
0
100
AcDbPolyline
90
4
70
1
43
0.0
10
176.24933333333325
20
-149
10
176.24933333333325
20
-138
42
-0.99999999999999989
10
178.24933333333325
20
-138
10
178.24933333333325
20
-148.99999999999997
42
-0.99999999999999989
0
LWPOLYLINE
5
125
100
AcDbEntity
8
0
100
AcDbPolyline
90
4
70
1
43
0.0
10
157.49933333333325
20
-155.00000000000003
42
0.99999999999999989
10
155.49933333333325
20
-155.00000000000003
10
155.49933333333325
20
-171
42
0.99999999999999989
10
157.49933333333323
20
-171
0
LWPOLYLINE
5
126
100
AcDbEntity
8
0
100
AcDbPolyline
90
4
70
1
43
0.0
10
137.49933333333325
20
-155
42
0.99999999999999989
10
135.49933333333325
20
-154.99999999999997
10
135.49933333333325
20
-175
42
0.99999999999999989
10
137.49933333333323
20
-175
0
LWPOLYLINE
5
127
100
AcDbEntity
8
0
100
AcDbPolyline
90
4
70
1
43
0.0
10
117.49933333333324
20
-155
42
0.99999999999999989
10
115.49933333333325
20
-154.99999999999997
10
115.49933333333325
20
-179
42
0.99999999999999989
10
117.49933333333323
20
-179
0
LWPOLYLINE
5
128
100
AcDbEntity
8
0
100
AcDbPolyline
90
4
70
1
43
0.0
10
145.49933333333323
20
-149
10
145.49933333333325
20
-132
42
-0.99999999999999989
10
147.49933333333325
20
-132
10
147.49933333333325
20
-149
42
-0.99999999999999989
0
LWPOLYLINE
5
129
100
AcDbEntity
8
0
100
AcDbPolyline
90
4
70
1
43
0.0
10
238.99999999999991
20
-155
10
238.99999999999991
20
-179
42
-0.99999999999999989
10
236.99999999999989
20
-179
10
236.99999999999989
20
-155
42
-0.99999999999999989
0
LWPOLYLINE
5
130
100
AcDbEntity
8
0
100
AcDbPolyline
90
4
70
1
43
0.0
10
206.99999999999989
20
-172.99999999999997
10
206.99999999999989
20
-155
42
-0.99999999999999989
10
208.99999999999991
20
-155
10
208.99999999999991
20
-172.99999999999997
42
-0.99999999999999989
0
LWPOLYLINE
5
131
100
AcDbEntity
8
0
100
AcDbPolyline
90
4
70
1
43
0.0
10
238.99999999999991
20
-124.99999999999997
42
0.99999999999999989
10
236.99999999999989
20
-124.99999999999997
10
236.99999999999989
20
-149
42
0.99999999999999989
10
238.99999999999991
20
-149
0
LWPOLYLINE
5
132
100
AcDbEntity
8
0
100
AcDbPolyline
90
36
70
1
43
0.0
10
246.49966666666657
20
-146.16666666666669
10
251.49966666666657
20
-146.16666666666669
10
251.49966666666657
20
-126.16666666666669
10
246.49966666666657
20
-126.16666666666667
10
246.49966666666657
20
-119.50000007450581
10
225.33299999999991
20
-119.5
10
225.33299999999991
20
-114.5
10
190.33299999999991
20
-114.5
10
190.33299999999991
20
-119.50000000000003
10
164.16633333333323
20
-119.50000000000003
10
164.16633333333323
20
-114.50000000000003
10
129.16633333333323
20
-114.50000000000003
10
129.16633333333326
20
-119.50000000000003
10
107.99966666666657
20
-119.50000000000003
10
107.99966666666657
20
-126.16666666666671
10
102.99966666666657
20
-126.16666666666667
10
102.99966666666657
20
-146.16666666666669
10
107.99966666666657
20
-146.16666666666669
10
107.99966666666657
20
-157.83333333333334
10
102.99966666666657
20
-157.83333333333334
10
102.99966666666657
20
-177.83333333333331
10
107.99966666666657
20
-177.83333333333331
10
107.99966666666657
20
-189.5
10
129.16633333333326
20
-189.50000000000003
10
129.16633333333326
20
-184.50000000000003
10
164.16633333333323
20
-184.50000000000003
10
164.16633333333323
20
-189.50000000000003
10
190.33299999999991
20
-189.50000000000003
10
190.33299999999991
20
-184.50000000000003
10
225.33299999999991
20
-184.50000000000003
10
225.33299999999991
20
-189.50000000000003
10
246.49966666666657
20
-189.50000000000003
10
246.49966666666657
20
-177.83333333333334
10
251.49966666666657
20
-177.83333333333331
10
251.49966666666657
20
-157.83333333333331
10
246.49966666666657
20
-157.83333333333334
0
LWPOLYLINE
5
133
100
AcDbEntity
8
0
100
AcDbPolyline
90
4
70
1
43
0.0
10
371.7503333333334
20
-172
10
371.7503333333334
20
-150.99999999999991
42
-0.99999999999999989
10
373.7503333333334
20
-150.99999999999997
10
373.7503333333334
20
-172.00000000000006
42
-0.99999999999999989
0
LWPOLYLINE
5
134
100
AcDbEntity
8
0
100
AcDbPolyline
90
4
70
1
43
0.0
10
368.75033333333334
20
-150.99999999999997
10
368.7503333333334
20
-171.00000000000006
42
-0.99999999999999989
10
366.7503333333334
20
-170.99999999999997
10
366.75033333333346
20
-150.99999999999991
42
-0.99999999999999989
0
LWPOLYLINE
5
135
100
AcDbEntity
8
0
100
AcDbPolyline
90
4
70
1
43
0.0
10
376.7503333333334
20
-173
10
376.7503333333334
20
-150.99999999999991
42
-0.99999999999999989
10
378.7503333333334
20
-150.99999999999997
10
378.7503333333334
20
-173.00000000000009
42
-0.99999999999999989
0
LWPOLYLINE
5
136
100
AcDbEntity
8
0
100
AcDbPolyline
90
4
70
1
43
0.0
10
388.75033333333334
20
-150.99999999999997
10
388.7503333333334
20
-175.00000000000006
42
-0.99999999999999989
10
386.7503333333334
20
-175
10
386.75033333333346
20
-150.99999999999991
42
-0.99999999999999989
0
LWPOLYLINE
5
137
100
AcDbEntity
8
0
100
AcDbPolyline
90
4
70
1
43
0.0
10
361.7503333333334
20
-170
10
361.7503333333334
20
-150.99999999999991
42
-0.99999999999999989
10
363.7503333333334
20
-150.99999999999997
10
363.7503333333334
20
-170.00000000000006
42
-0.99999999999999989
0
LWPOLYLINE
5
138
100
AcDbEntity
8
0
100
AcDbPolyline
90
4
70
1
43
0.0
10
383.75033333333334
20
-150.99999999999997
10
383.7503333333334
20
-174.00000000000006
42
-0.99999999999999989
10
381.7503333333334
20
-174
10
381.75033333333346
20
-150.99999999999991
42
-0.99999999999999989
0
LWPOLYLINE
5
139
100
AcDbEntity
8
0
100
AcDbPolyline
90
4
70
1
43
0.0
10
277.24966666666666
20
-150.99999999999997
42
0.99999999999999989
10
275.24966666666666
20
-150.99999999999997
10
275.24966666666666
20
-173
42
0.99999999999999989
10
277.24966666666666
20
-173
0
LWPOLYLINE
5
140
100
AcDbEntity
8
0
100
AcDbPolyline
90
4
70
1
43
0.0
10
267.24966666666666
20
-150.99999999999997
42
0.99999999999999989
10
265.24966666666666
20
-150.99999999999997
10
265.24966666666666
20
-175
42
0.99999999999999989
10
267.24966666666666
20
-175
0
LWPOLYLINE
5
141
100
AcDbEntity
8
0
100
AcDbPolyline
90
4
70
1
43
0.0
10
287.24966666666666
20
-150.99999999999997
42
0.99999999999999989
10
285.24966666666666
20
-150.99999999999997
10
285.24966666666666
20
-170.99999999999997
42
0.99999999999999989
10
287.24966666666666
20
-170.99999999999997
0
LWPOLYLINE
5
142
100
AcDbEntity
8
0
100
AcDbPolyline
90
4
70
1
43
0.0
10
282.24966666666666
20
-150.99999999999997
42
0.99999999999999989
10
280.24966666666666
20
-150.99999999999997
10
280.24966666666666
20
-172
42
0.99999999999999989
10
282.24966666666666
20
-172
0
LWPOLYLINE
5
143
100
AcDbEntity
8
0
100
AcDbPolyline
90
4
70
1
43
0.0
10
272.24966666666666
20
-150.99999999999997
42
0.99999999999999989
10
270.24966666666666
20
-150.99999999999997
10
270.24966666666666
20
-174
42
0.99999999999999989
10
272.24966666666666
20
-174
0
LWPOLYLINE
5
144
100
AcDbEntity
8
0
100
AcDbPolyline
90
4
70
1
43
0.0
10
292.24966666666666
20
-150.99999999999997
42
0.99999999999999989
10
290.24966666666666
20
-150.99999999999997
10
290.24966666666666
20
-170
42
0.99999999999999989
10
292.24966666666666
20
-170
0
CIRCLE
5
145
100
AcDbEntity
8
0
100
AcDbCircle
10
327
20
-154.38
30
0
40
1.0000000000000036
210
-0
220
0
230
1
0
LWPOLYLINE
5
146
100
AcDbEntity
8
0
100
AcDbPolyline
90
4
70
1
43
0.0
10
318.40000000000003
20
-156.38000000000002
10
335.60000000000002
20
-156.38000000000002
10
335.60000000000002
20
-178.49999999999997
10
318.40000000000003
20
-178.49999999999997
0
LWPOLYLINE
5
147
100
AcDbEntity
8
0
100
AcDbPolyline
90
36
70
1
43
0.0
10
396.25000000000006
20
-142.16666666666669
10
401.25000000000006
20
-142.16666666666669
10
401.25
20
-122.16666666666669
10
396.25000000000006
20
-122.16666666666669
10
396.25000000000006
20
-115.50000007450578
10
375.08333333333337
20
-115.49999999999997
10
375.08333333333337
20
-110.49999999999997
10
340.08333333333337
20
-110.49999999999997
10
340.08333333333337
20
-115.49999999999997
10
313.91666666666674
20
-115.49999999999997
10
313.91666666666669
20
-110.49999999999997
10
278.91666666666669
20
-110.49999999999997
10
278.91666666666669
20
-115.49999999999997
10
257.75
20
-115.49999999999997
10
257.75
20
-122.16666666666669
10
252.75000000000003
20
-122.16666666666669
10
252.75000000000003
20
-142.16666666666669
10
257.75
20
-142.16666666666669
10
257.75
20
-153.83333333333331
10
252.75000000000003
20
-153.83333333333331
10
252.75
20
-173.83333333333331
10
257.75
20
-173.83333333333331
10
257.75
20
-185.5
10
278.91666666666669
20
-185.5
10
278.91666666666669
20
-180.5
10
313.91666666666669
20
-180.5
10
313.91666666666669
20
-185.5
10
340.08333333333337
20
-185.5
10
340.08333333333337
20
-180.5
10
375.08333333333337
20
-180.5
10
375.08333333333337
20
-185.5
10
396.25000000000006
20
-185.5
10
396.25000000000006
20
-173.83333333333331
10
401.25000000000006
20
-173.83333333333331
10
401.25000000000006
20
-153.83333333333331
10
396.25000000000006
20
-153.83333333333331
0
LWPOLYLINE
5
148
100
AcDbEntity
8
0
100
AcDbPolyline
90
4
70
1
43
0.0
10
521.7503333333334
20
-94.000000000000028
10
521.7503333333334
20
-72.999999999999972
42
-0.99999999999999989
10
523.7503333333334
20
-73
10
523.7503333333334
20
-94.000000000000085
42
-0.99999999999999989
0
LWPOLYLINE
5
149
100
AcDbEntity
8
0
100
AcDbPolyline
90
4
70
1
43
0.0
10
518.7503333333334
20
-73
10
518.7503333333334
20
-93.000000000000085
42
-0.99999999999999989
10
516.7503333333334
20
-93
10
516.7503333333334
20
-72.999999999999972
42
-0.99999999999999989
0
LWPOLYLINE
5
150
100
AcDbEntity
8
0
100
AcDbPolyline
90
4
70
1
43
0.0
10
526.7503333333334
20
-95.000000000000028
10
526.7503333333334
20
-72.999999999999972
42
-0.99999999999999989
10
528.7503333333334
20
-73
10
528.7503333333334
20
-95.000000000000114
42
-0.99999999999999989
0
LWPOLYLINE
5
151
100
AcDbEntity
8
0
100
AcDbPolyline
90
4
70
1
43
0.0
10
538.7503333333334
20
-73
10
538.7503333333334
20
-97.000000000000099
42
-0.99999999999999989
10
536.7503333333334
20
-97.000000000000028
10
536.7503333333334
20
-72.999999999999972
42
-0.99999999999999989
0
LWPOLYLINE
5
152
100
AcDbEntity
8
0
100
AcDbPolyline
90
4
70
1
43
0.0
10
511.7503333333334
20
-92.000000000000028
10
511.7503333333334
20
-72.999999999999972
42
-0.99999999999999989
10
513.7503333333334
20
-73
10
513.7503333333334
20
-92.000000000000099
42
-0.99999999999999989
0
LWPOLYLINE
5
153
100
AcDbEntity
8
0
100
AcDbPolyline
90
4
70
1
43
0.0
10
533.7503333333334
20
-73
10
533.7503333333334
20
-96.000000000000085
42
-0.99999999999999989
10
531.7503333333334
20
-96.000000000000014
10
531.7503333333334
20
-72.999999999999972
42
-0.99999999999999989
0
LWPOLYLINE
5
154
100
AcDbEntity
8
0
100
AcDbPolyline
90
4
70
1
43
0.0
10
427.24966666666666
20
-73
42
0.99999999999999989
10
425.24966666666666
20
-72.999999999999972
10
425.24966666666666
20
-95.000000000000028
42
0.99999999999999989
10
427.24966666666666
20
-95.000000000000028
0
LWPOLYLINE
5
155
100
AcDbEntity
8
0
100
AcDbPolyline
90
4
70
1
43
0.0
10
417.24966666666666
20
-73
42
0.99999999999999989
10
415.24966666666666
20
-72.999999999999972
10
415.24966666666666
20
-97.000000000000028
42
0.99999999999999989
10
417.24966666666666
20
-97.000000000000028
0
LWPOLYLINE
5
156
100
AcDbEntity
8
0
100
AcDbPolyline
90
4
70
1
43
0.0
10
437.24966666666666
20
-73
42
0.99999999999999989
10
435.24966666666666
20
-72.999999999999972
10
435.24966666666666
20
-93
42
0.99999999999999989
10
437.24966666666666
20
-93
0
LWPOLYLINE
5
157
100
AcDbEntity
8
0
100
AcDbPolyline
90
4
70
1
43
0.0
10
432.24966666666666
20
-73
42
0.99999999999999989
10
430.24966666666666
20
-72.999999999999972
10
430.24966666666666
20
-94.000000000000028
42
0.99999999999999989
10
432.24966666666666
20
-94.000000000000028
0
LWPOLYLINE
5
158
100
AcDbEntity
8
0
100
AcDbPolyline
90
4
70
1
43
0.0
10
422.24966666666666
20
-73
42
0.99999999999999989
10
420.24966666666666
20
-72.999999999999972
10
420.24966666666666
20
-96.000000000000014
42
0.99999999999999989
10
422.24966666666666
20
-96.000000000000014
0
LWPOLYLINE
5
159
100
AcDbEntity
8
0
100
AcDbPolyline
90
4
70
1
43
0.0
10
442.24966666666666
20
-73
42
0.99999999999999989
10
440.24966666666666
20
-72.999999999999972
10
440.24966666666666
20
-92.000000000000028
42
0.99999999999999989
10
442.24966666666666
20
-92.000000000000028
0
CIRCLE
5
160
100
AcDbEntity
8
0
100
AcDbCircle
10
477
20
-76.380000000000024
30
0
40
1.0000000000000036
210
0
220
0
230
1
0
LWPOLYLINE
5
161
100
AcDbEntity
8
0
100
AcDbPolyline
90
4
70
1
43
0.0
10
468.40000000000003
20
-78.380000000000052
10
485.60000000000002
20
-78.380000000000052
10
485.60000000000002
20
-100.5
10
468.40000000000003
20
-100.5
0
LWPOLYLINE
5
162
100
AcDbEntity
8
0
100
AcDbPolyline
90
36
70
1
43
0.0
10
546.25000000000011
20
-64.166666666666714
10
551.25000000000011
20
-64.166666666666714
10
551.25
20
-44.166666666666714
10
546.25000000000011
20
-44.166666666666714
10
546.25000000000011
20
-37.500000074505806
10
525.08333333333337
20
-37.5
10
525.08333333333337
20
-32.5
10
490.08333333333337
20
-32.5
10
490.08333333333337
20
-37.5
10
463.91666666666674
20
-37.5
10
463.91666666666663
20
-32.5
10
428.91666666666674
20
-32.5
10
428.91666666666674
20
-37.5
10
407.75000000000006
20
-37.5
10
407.75
20
-44.166666666666714
10
402.75
20
-44.166666666666714
10
402.75000000000006
20
-64.166666666666714
10
407.75000000000006
20
-64.166666666666714
10
407.75
20
-75.833333333333357
10
402.75
20
-75.833333333333357
10
402.75
20
-95.833333333333357
10
407.75000000000006
20
-95.833333333333357
10
407.75
20
-107.50000000000003
10
428.91666666666663
20
-107.50000000000003
10
428.91666666666663
20
-102.50000000000003
10
463.91666666666663
20
-102.50000000000003
10
463.91666666666663
20
-107.50000000000003
10
490.08333333333331
20
-107.50000000000003
10
490.08333333333337
20
-102.50000000000003
10
525.08333333333337
20
-102.50000000000003
10
525.08333333333337
20
-107.50000000000003
10
546.25000000000011
20
-107.50000000000003
10
546.25000000000011
20
-95.833333333333357
10
551.25000000000011
20
-95.833333333333357
10
551.25000000000011
20
-75.833333333333357
10
546.25000000000011
20
-75.833333333333357
0
LWPOLYLINE
5
163
100
AcDbEntity
8
0
100
AcDbPolyline
90
4
70
1
43
0.0
10
478.24999999999994
20
3.0000000000000071
42
0.99999999999999989
10
476.24999999999994
20
3.0000000000000515
10
476.24999999999994
20
-7.9999999999999893
42
0.99999999999999989
10
478.24999999999994
20
-7.9999999999999893
0
LWPOLYLINE
5
164
100
AcDbEntity
8
0
100
AcDbPolyline
90
4
70
1
43
0.0
10
489
20
3.0000000000000071
42
0.99999999999999989
10
486.99999999999994
20
3.0000000000000515
10
486.99999999999994
20
-10.999999999999979
42
0.99999999999999989
10
488.99999999999989
20
-10.999999999999979
0
LWPOLYLINE
5
165
100
AcDbEntity
8
0
100
AcDbPolyline
90
4
70
1
43
0.0
10
467.49933333333325
20
3.0000000000000071
42
0.99999999999999989
10
465.4993333333332
20
3.0000000000000515
10
465.4993333333332
20
-10.999999999999979
42
0.99999999999999989
10
467.49933333333325
20
-10.999999999999979
0
LWPOLYLINE
5
166
100
AcDbEntity
8
0
100
AcDbPolyline
90
4
70
1
43
0.0
10
516.99999999999989
20
9.0000000000000213
10
517
20
28.000000000000096
42
-0.99999999999999989
10
519
20
28.00000000000006
10
519
20
8.9999999999999858
42
-0.99999999999999989
0
LWPOLYLINE
5
167
100
AcDbEntity
8
0
100
AcDbPolyline
90
4
70
1
43
0.0
10
506.99999999999994
20
9.0000000000000213
42
0.99999999999999989
10
509
20
8.9999999999999769
10
509
20
26.000000000000014
42
0.99999999999999989
10
506.99999999999989
20
26.000000000000014
0
LWPOLYLINE
5
168
100
AcDbEntity
8
0
100
AcDbPolyline
90
4
70
1
43
0.0
10
518.99999999999989
20
3.0000000000000249
10
519
20
-17.000000000000011
42
-0.99999999999999989
10
517
20
-16.999999999999975
10
517
20
3.0000000000000604
42
-0.99999999999999989
0
LWPOLYLINE
5
169
100
AcDbEntity
8
0
100
AcDbPolyline
90
4
70
1
43
0.0
10
499
20
24.000000000000021
42
0.99999999999999989
10
496.99999999999994
20
24.000000000000057
10
496.99999999999994
20
9.0000000000000213
42
0.99999999999999989
10
498.99999999999989
20
9.0000000000000213
0
LWPOLYLINE
5
170
100
AcDbEntity
8
0
100
AcDbPolyline
90
4
70
1
43
0.0
10
465.49933333333331
20
9.0000000000000213
10
465.4993333333332
20
22.000000000000046
42
-0.99999999999999989
10
467.49933333333325
20
22.000000000000011
10
467.4993333333332
20
8.9999999999999769
42
-0.99999999999999989
0
LWPOLYLINE
5
171
100
AcDbEntity
8
0
100
AcDbPolyline
90
4
70
1
43
0.0
10
489
20
22.000000000000011
42
0.99999999999999989
10
486.99999999999994
20
22.000000000000046
10
486.99999999999994
20
9.0000000000000036
42
0.99999999999999989
10
488.99999999999989
20
9.0000000000000036
0
LWPOLYLINE
5
172
100
AcDbEntity
8
0
100
AcDbPolyline
90
4
70
1
43
0.0
10
427.49933333333325
20
3.0000000000000249
42
0.99999999999999989
10
425.4993333333332
20
3.0000000000000604
10
425.4993333333332
20
-18.999999999999986
42
0.99999999999999989
10
427.49933333333325
20
-18.999999999999986
0
LWPOLYLINE
5
173
100
AcDbEntity
8
0
100
AcDbPolyline
90
4
70
1
43
0.0
10
455.49933333333331
20
9.0000000000000213
10
455.4993333333332
20
24.000000000000057
42
-0.99999999999999989
10
457.49933333333325
20
24.000000000000021
10
457.4993333333332
20
8.9999999999999769
42
-0.99999999999999989
0
LWPOLYLINE
5
174
100
AcDbEntity
8
0
100
AcDbPolyline
90
4
70
1
43
0.0
10
425.49933333333331
20
9.0000000000000213
10
425.4993333333332
20
31.000000000000032
42
-0.99999999999999989
10
427.49933333333325
20
30.999999999999996
10
427.4993333333332
20
8.9999999999999858
42
-0.99999999999999989
0
LWPOLYLINE
5
175
100
AcDbEntity
8
0
100
AcDbPolyline
90
4
70
1
43
0.0
10
435.49933333333331
20
9.0000000000000213
10
435.4993333333332
20
28.00000000000006
42
-0.99999999999999989
10
437.49933333333325
20
28.000000000000025
10
437.4993333333332
20
8.9999999999999769
42
-0.99999999999999989
0
LWPOLYLINE
5
176
100
AcDbEntity
8
0
100
AcDbPolyline
90
4
70
1
43
0.0
10
529
20
31.000000000000032
42
0.99999999999999989
10
527
20
31.000000000000068
10
527
20
9.0000000000000213
42
0.99999999999999989
10
528.99999999999989
20
9.0000000000000391
0
LWPOLYLINE
5
177
100
AcDbEntity
8
0
100
AcDbPolyline
90
4
70
1
43
0.0
10
526.99999999999989
20
-18.999999999999986
10
527
20
3.0000000000000604
42
-0.99999999999999989
10
529
20
3.0000000000000249
10
529
20
-19.000000000000039
42
-0.99999999999999989
0
LWPOLYLINE
5
178
100
AcDbEntity
8
0
100
AcDbPolyline
90
4
70
1
43
0.0
10
496.99999999999994
20
-12.999999999999972
10
496.99999999999994
20
3.0000000000000426
42
-0.99999999999999989
10
499
20
3.0000000000000071
10
499
20
-13.000000000000007
42
-0.99999999999999989
0
LWPOLYLINE
5
179
100
AcDbEntity
8
0
100
AcDbPolyline
90
4
70
1
43
0.0
10
415.49933333333331
20
9.0000000000000213
10
415.4993333333332
20
33.000000000000057
42
-0.99999999999999989
10
417.49933333333325
20
33.000000000000028
10
417.4993333333332
20
8.9999999999999858
42
-0.99999999999999989
0
LWPOLYLINE
5
180
100
AcDbEntity
8
0
100
AcDbPolyline
90
4
70
1
43
0.0
10
447.49933333333325
20
3.0000000000000249
42
0.99999999999999989
10
445.4993333333332
20
3.0000000000000693
10
445.4993333333332
20
-14.999999999999964
42
0.99999999999999989
10
447.49933333333325
20
-14.999999999999964
0
LWPOLYLINE
5
181
100
AcDbEntity
8
0
100
AcDbPolyline
90
4
70
1
43
0.0
10
476.24933333333325
20
9.0000000000000213
10
476.24933333333325
20
20.000000000000053
42
-0.99999999999999989
10
478.24933333333325
20
20.000000000000018
10
478.24933333333325
20
8.9999999999999769
42
-0.99999999999999989
0
LWPOLYLINE
5
182
100
AcDbEntity
8
0
100
AcDbPolyline
90
4
70
1
43
0.0
10
457.49933333333325
20
3.0000000000000071
42
0.99999999999999989
10
455.4993333333332
20
3.0000000000000426
10
455.4993333333332
20
-12.999999999999972
42
0.99999999999999989
10
457.49933333333325
20
-12.999999999999972
0
LWPOLYLINE
5
183
100
AcDbEntity
8
0
100
AcDbPolyline
90
4
70
1
43
0.0
10
437.49933333333325
20
3.0000000000000249
42
0.99999999999999989
10
435.4993333333332
20
3.0000000000000693
10
435.4993333333332
20
-16.999999999999975
42
0.99999999999999989
10
437.49933333333325
20
-16.999999999999975
0
LWPOLYLINE
5
184
100
AcDbEntity
8
0
100
AcDbPolyline
90
4
70
1
43
0.0
10
417.49933333333325
20
3.0000000000000249
42
0.99999999999999989
10
415.4993333333332
20
3.0000000000000604
10
415.4993333333332
20
-20.999999999999979
42
0.99999999999999989
10
417.49933333333325
20
-20.999999999999979
0
LWPOLYLINE
5
185
100
AcDbEntity
8
0
100
AcDbPolyline
90
4
70
1
43
0.0
10
445.49933333333331
20
9.0000000000000213
10
445.4993333333332
20
26.00000000000005
42
-0.99999999999999989
10
447.49933333333325
20
26.000000000000014
10
447.4993333333332
20
8.9999999999999769
42
-0.99999999999999989
0
LWPOLYLINE
5
186
100
AcDbEntity
8
0
100
AcDbPolyline
90
4
70
1
43
0.0
10
538.99999999999989
20
3.0000000000000249
10
539
20
-21.000000000000014
42
-0.99999999999999989
10
537
20
-20.999999999999979
10
537
20
3.0000000000000604
42
-0.99999999999999989
0
LWPOLYLINE
5
187
100
AcDbEntity
8
0
100
AcDbPolyline
90
4
70
1
43
0.0
10
506.99999999999989
20
-14.999999999999964
10
506.99999999999994
20
3.0000000000000693
42
-0.99999999999999989
10
509
20
3.0000000000000249
10
509.00000000000006
20
-15
42
-0.99999999999999989
0
LWPOLYLINE
5
188
100
AcDbEntity
8
0
100
AcDbPolyline
90
4
70
1
43
0.0
10
539
20
33.000000000000057
42
0.99999999999999989
10
537
20
33.000000000000099
10
537
20
9.0000000000000213
42
0.99999999999999989
10
538.99999999999989
20
9.0000000000000391
0
LWPOLYLINE
5
189
100
AcDbEntity
8
0
100
AcDbPolyline
90
36
70
1
43
0.0
10
546.4996666666666
20
11.833333333333353
10
551.4996666666666
20
11.833333333333353
10
551.4996666666666
20
31.833333333333336
10
546.4996666666666
20
31.833333333333353
10
546.4996666666666
20
38.499999925494222
10
525.33299999999986
20
38.500000000000028
10
525.33299999999997
20
43.500000000000028
10
490.33299999999997
20
43.500000000000028
10
490.33299999999997
20
38.5
10
464.16633333333328
20
38.5
10
464.16633333333323
20
43.5
10
429.16633333333323
20
43.5
10
429.16633333333323
20
38.5
10
407.99966666666654
20
38.5
10
407.9996666666666
20
31.833333333333318
10
402.9996666666666
20
31.833333333333353
10
402.9996666666666
20
11.833333333333336
10
407.9996666666666
20
11.833333333333353
10
407.9996666666666
20
0.16666666666669272
10
402.9996666666666
20
0.16666666666669241
10
402.9996666666666
20
-19.833333333333307
10
407.9996666666666
20
-19.833333333333307
10
407.9996666666666
20
-31.499999999999986
10
429.16633333333328
20
-31.499999999999986
10
429.16633333333323
20
-26.499999999999986
10
464.16633333333323
20
-26.499999999999986
10
464.16633333333323
20
-31.499999999999986
10
490.33299999999991
20
-31.499999999999986
10
490.33299999999997
20
-26.499999999999986
10
525.33299999999997
20
-26.499999999999986
10
525.33299999999997
20
-31.499999999999986
10
546.4996666666666
20
-31.499999999999986
10
546.4996666666666
20
-19.833333333333307
10
551.4996666666666
20
-19.833333333333307
10
551.4996666666666
20
0.16666666666669272
10
546.4996666666666
20
0.16666666666669241
0
LWPOLYLINE
5
190
100
AcDbEntity
8
0
100
AcDbPolyline
90
4
70
1
43
0.0
10
521.7503333333334
20
58.000000000000007
10
521.7503333333334
20
79.000000000000057
42
-0.99999999999999989
10
523.7503333333334
20
79.000000000000028
10
523.7503333333334
20
57.999999999999972
42
-0.99999999999999989
0
LWPOLYLINE
5
191
100
AcDbEntity
8
0
100
AcDbPolyline
90
4
70
1
43
0.0
10
518.7503333333334
20
79.000000000000028
10
518.7503333333334
20
58.999999999999986
42
-0.99999999999999989
10
516.7503333333334
20
59.000000000000021
10
516.7503333333334
20
79.000000000000057
42
-0.99999999999999989
0
LWPOLYLINE
5
192
100
AcDbEntity
8
0
100
AcDbPolyline
90
4
70
1
43
0.0
10
526.7503333333334
20
56.999999999999993
10
526.7503333333334
20
79.000000000000057
42
-0.99999999999999989
10
528.7503333333334
20
79.000000000000028
10
528.7503333333334
20
56.999999999999922
42
-0.99999999999999989
0
LWPOLYLINE
5
193
100
AcDbEntity
8
0
100
AcDbPolyline
90
4
70
1
43
0.0
10
538.7503333333334
20
79.000000000000028
10
538.7503333333334
20
54.999999999999964
42
-0.99999999999999989
10
536.7503333333334
20
55
10
536.7503333333334
20
79.000000000000057
42
-0.99999999999999989
0
LWPOLYLINE
5
194
100
AcDbEntity
8
0
100
AcDbPolyline
90
4
70
1
43
0.0
10
511.7503333333334
20
60
10
511.7503333333334
20
79.000000000000057
42
-0.99999999999999989
10
513.7503333333334
20
79.000000000000028
10
513.7503333333334
20
59.999999999999964
42
-0.99999999999999989
0
LWPOLYLINE
5
195
100
AcDbEntity
8
0
100
AcDbPolyline
90
4
70
1
43
0.0
10
533.7503333333334
20
79.000000000000028
10
533.7503333333334
20
55.999999999999979
42
-0.99999999999999989
10
531.7503333333334
20
56.000000000000014
10
531.7503333333334
20
79.000000000000057
42
-0.99999999999999989
0
LWPOLYLINE
5
196
100
AcDbEntity
8
0
100
AcDbPolyline
90
4
70
1
43
0.0
10
427.24966666666666
20
79.000000000000028
42
0.99999999999999989
10
425.24966666666666
20
79.000000000000057
10
425.24966666666666
20
56.999999999999993
42
0.99999999999999989
10
427.24966666666666
20
56.999999999999993
0
LWPOLYLINE
5
197
100
AcDbEntity
8
0
100
AcDbPolyline
90
4
70
1
43
0.0
10
417.24966666666666
20
79.000000000000028
42
0.99999999999999989
10
415.24966666666666
20
79.000000000000057
10
415.24966666666666
20
55
42
0.99999999999999989
10
417.24966666666666
20
55
0
LWPOLYLINE
5
198
100
AcDbEntity
8
0
100
AcDbPolyline
90
4
70
1
43
0.0
10
437.24966666666666
20
79.000000000000028
42
0.99999999999999989
10
435.24966666666666
20
79.000000000000057
10
435.24966666666666
20
59.000000000000021
42
0.99999999999999989
10
437.24966666666666
20
59.000000000000021
0
LWPOLYLINE
5
199
100
AcDbEntity
8
0
100
AcDbPolyline
90
4
70
1
43
0.0
10
432.24966666666666
20
79.000000000000028
42
0.99999999999999989
10
430.24966666666666
20
79.000000000000057
10
430.24966666666666
20
58.000000000000007
42
0.99999999999999989
10
432.24966666666666
20
58.000000000000007
0
LWPOLYLINE
5
200
100
AcDbEntity
8
0
100
AcDbPolyline
90
4
70
1
43
0.0
10
422.24966666666666
20
79.000000000000028
42
0.99999999999999989
10
420.24966666666666
20
79.000000000000057
10
420.24966666666666
20
56.000000000000014
42
0.99999999999999989
10
422.24966666666666
20
56.000000000000014
0
LWPOLYLINE
5
201
100
AcDbEntity
8
0
100
AcDbPolyline
90
4
70
1
43
0.0
10
442.24966666666666
20
79.000000000000028
42
0.99999999999999989
10
440.24966666666666
20
79.000000000000057
10
440.24966666666666
20
60
42
0.99999999999999989
10
442.24966666666666
20
60
0
CIRCLE
5
202
100
AcDbEntity
8
0
100
AcDbCircle
10
477
20
75.620000000000005
30
0
40
1.0000000000000036
210
0
220
0
230
1
0
LWPOLYLINE
5
203
100
AcDbEntity
8
0
100
AcDbPolyline
90
4
70
1
43
0.0
10
468.40000000000003
20
73.619999999999976
10
485.60000000000002
20
73.619999999999976
10
485.60000000000002
20
51.500000000000021
10
468.40000000000003
20
51.500000000000021
0
LWPOLYLINE
5
204
100
AcDbEntity
8
0
100
AcDbPolyline
90
36
70
1
43
0.0
10
546.25000000000011
20
87.833333333333314
10
551.25000000000011
20
87.833333333333314
10
551.25
20
107.83333333333331
10
546.25000000000011
20
107.83333333333331
10
546.25000000000011
20
114.49999992549422
10
525.08333333333337
20
114.50000000000003
10
525.08333333333337
20
119.50000000000003
10
490.08333333333337
20
119.50000000000003
10
490.08333333333337
20
114.50000000000003
10
463.91666666666674
20
114.50000000000003
10
463.91666666666663
20
119.50000000000003
10
428.91666666666674
20
119.50000000000003
10
428.91666666666674
20
114.50000000000003
10
407.75000000000006
20
114.50000000000003
10
407.75
20
107.83333333333331
10
402.75
20
107.83333333333331
10
402.75000000000006
20
87.833333333333314
10
407.75000000000006
20
87.833333333333314
10
407.75
20
76.166666666666671
10
402.75
20
76.166666666666671
10
402.75
20
56.166666666666671
10
407.75000000000006
20
56.166666666666671
10
407.75
20
44.499999999999993
10
428.91666666666663
20
44.499999999999993
10
428.91666666666663
20
49.499999999999993
10
463.91666666666663
20
49.499999999999993
10
463.91666666666663
20
44.499999999999993
10
490.08333333333331
20
44.499999999999993
10
490.08333333333337
20
49.499999999999993
10
525.08333333333337
20
49.499999999999993
10
525.08333333333337
20
44.499999999999993
10
546.25000000000011
20
44.499999999999993
10
546.25000000000011
20
56.166666666666671
10
551.25000000000011
20
56.166666666666671
10
551.25000000000011
20
76.166666666666671
10
546.25000000000011
20
76.166666666666671
0
LWPOLYLINE
5
205
100
AcDbEntity
8
0
100
AcDbPolyline
90
4
70
1
43
0.0
10
478.24999999999994
20
155.00000000000003
42
0.99999999999999989
10
476.24999999999994
20
155.00000000000006
10
476.24999999999994
20
144.00000000000003
42
0.99999999999999989
10
478.24999999999994
20
144.00000000000003
0
LWPOLYLINE
5
206
100
AcDbEntity
8
0
100
AcDbPolyline
90
4
70
1
43
0.0
10
489
20
155.00000000000003
42
0.99999999999999989
10
486.99999999999994
20
155.00000000000006
10
486.99999999999994
20
141.00000000000003
42
0.99999999999999989
10
488.99999999999989
20
141.00000000000003
0
LWPOLYLINE
5
207
100
AcDbEntity
8
0
100
AcDbPolyline
90
4
70
1
43
0.0
10
467.49933333333325
20
155.00000000000003
42
0.99999999999999989
10
465.4993333333332
20
155.00000000000006
10
465.4993333333332
20
141.00000000000003
42
0.99999999999999989
10
467.49933333333325
20
141.00000000000003
0
LWPOLYLINE
5
208
100
AcDbEntity
8
0
100
AcDbPolyline
90
4
70
1
43
0.0
10
516.99999999999989
20
161
10
517
20
180.00000000000014
42
-0.99999999999999989
10
519
20
180.00000000000006
10
519
20
160.99999999999994
42
-0.99999999999999989
0
LWPOLYLINE
5
209
100
AcDbEntity
8
0
100
AcDbPolyline
90
4
70
1
43
0.0
10
506.99999999999994
20
161
42
0.99999999999999989
10
509
20
160.99999999999994
10
509
20
178.00000000000006
42
0.99999999999999989
10
506.99999999999989
20
178
0
LWPOLYLINE
5
210
100
AcDbEntity
8
0
100
AcDbPolyline
90
4
70
1
43
0.0
10
518.99999999999989
20
155.00000000000003
10
519
20
134.99999999999997
42
-0.99999999999999989
10
517
20
135.00000000000003
10
517
20
155.00000000000011
42
-0.99999999999999989
0
LWPOLYLINE
5
211
100
AcDbEntity
8
0
100
AcDbPolyline
90
4
70
1
43
0.0
10
499
20
176
42
0.99999999999999989
10
496.99999999999994
20
176.00000000000009
10
496.99999999999994
20
161
42
0.99999999999999989
10
498.99999999999989
20
161
0
LWPOLYLINE
5
212
100
AcDbEntity
8
0
100
AcDbPolyline
90
4
70
1
43
0.0
10
465.49933333333331
20
161
10
465.4993333333332
20
174.00000000000009
42
-0.99999999999999989
10
467.49933333333325
20
174.00000000000003
10
467.4993333333332
20
160.99999999999994
42
-0.99999999999999989
0
LWPOLYLINE
5
213
100
AcDbEntity
8
0
100
AcDbPolyline
90
4
70
1
43
0.0
10
489
20
174.00000000000003
42
0.99999999999999989
10
486.99999999999994
20
174.00000000000009
10
486.99999999999994
20
161
42
0.99999999999999989
10
488.99999999999989
20
161
0
LWPOLYLINE
5
214
100
AcDbEntity
8
0
100
AcDbPolyline
90
4
70
1
43
0.0
10
427.49933333333325
20
155.00000000000003
42
0.99999999999999989
10
425.4993333333332
20
155.00000000000011
10
425.4993333333332
20
133.00000000000003
42
0.99999999999999989
10
427.49933333333325
20
133.00000000000003
0
LWPOLYLINE
5
215
100
AcDbEntity
8
0
100
AcDbPolyline
90
4
70
1
43
0.0
10
455.49933333333331
20
161
10
455.4993333333332
20
176.00000000000009
42
-0.99999999999999989
10
457.49933333333325
20
176
10
457.4993333333332
20
160.99999999999994
42
-0.99999999999999989
0
LWPOLYLINE
5
216
100
AcDbEntity
8
0
100
AcDbPolyline
90
4
70
1
43
0.0
10
425.49933333333331
20
161
10
425.4993333333332
20
183.00000000000009
42
-0.99999999999999989
10
427.49933333333325
20
183
10
427.4993333333332
20
160.99999999999994
42
-0.99999999999999989
0
LWPOLYLINE
5
217
100
AcDbEntity
8
0
100
AcDbPolyline
90
4
70
1
43
0.0
10
435.49933333333331
20
161
10
435.4993333333332
20
180.00000000000011
42
-0.99999999999999989
10
437.49933333333325
20
180.00000000000003
10
437.4993333333332
20
160.99999999999994
42
-0.99999999999999989
0
LWPOLYLINE
5
218
100
AcDbEntity
8
0
100
AcDbPolyline
90
4
70
1
43
0.0
10
529
20
183.00000000000006
42
0.99999999999999989
10
527
20
183.00000000000011
10
527
20
161
42
0.99999999999999989
10
528.99999999999989
20
161.00000000000006
0
LWPOLYLINE
5
219
100
AcDbEntity
8
0
100
AcDbPolyline
90
4
70
1
43
0.0
10
526.99999999999989
20
133.00000000000003
10
527
20
155.00000000000011
42
-0.99999999999999989
10
529
20
155.00000000000003
10
529
20
133
42
-0.99999999999999989
0
LWPOLYLINE
5
220
100
AcDbEntity
8
0
100
AcDbPolyline
90
4
70
1
43
0.0
10
496.99999999999994
20
139.00000000000003
10
496.99999999999994
20
155.00000000000006
42
-0.99999999999999989
10
499
20
155.00000000000003
10
499
20
139
42
-0.99999999999999989
0
LWPOLYLINE
5
221
100
AcDbEntity
8
0
100
AcDbPolyline
90
4
70
1
43
0.0
10
415.49933333333331
20
161
10
415.4993333333332
20
185.00000000000011
42
-0.99999999999999989
10
417.49933333333325
20
185.00000000000003
10
417.4993333333332
20
160.99999999999994
42
-0.99999999999999989
0
LWPOLYLINE
5
222
100
AcDbEntity
8
0
100
AcDbPolyline
90
4
70
1
43
0.0
10
447.49933333333325
20
155.00000000000003
42
0.99999999999999989
10
445.4993333333332
20
155.00000000000011
10
445.4993333333332
20
137.00000000000006
42
0.99999999999999989
10
447.49933333333325
20
137.00000000000006
0
LWPOLYLINE
5
223
100
AcDbEntity
8
0
100
AcDbPolyline
90
4
70
1
43
0.0
10
476.24933333333325
20
161
10
476.24933333333325
20
172.00000000000011
42
-0.99999999999999989
10
478.24933333333325
20
172.00000000000003
10
478.24933333333325
20
160.99999999999994
42
-0.99999999999999989
0
LWPOLYLINE
5
224
100
AcDbEntity
8
0
100
AcDbPolyline
90
4
70
1
43
0.0
10
457.49933333333325
20
155.00000000000003
42
0.99999999999999989
10
455.4993333333332
20
155.00000000000006
10
455.4993333333332
20
139.00000000000003
42
0.99999999999999989
10
457.49933333333325
20
139.00000000000003
0
LWPOLYLINE
5
225
100
AcDbEntity
8
0
100
AcDbPolyline
90
4
70
1
43
0.0
10
437.49933333333325
20
155.00000000000003
42
0.99999999999999989
10
435.4993333333332
20
155.00000000000011
10
435.4993333333332
20
135.00000000000003
42
0.99999999999999989
10
437.49933333333325
20
135.00000000000003
0
LWPOLYLINE
5
226
100
AcDbEntity
8
0
100
AcDbPolyline
90
4
70
1
43
0.0
10
417.49933333333325
20
155.00000000000003
42
0.99999999999999989
10
415.4993333333332
20
155.00000000000011
10
415.4993333333332
20
131.00000000000003
42
0.99999999999999989
10
417.49933333333325
20
131.00000000000003
0
LWPOLYLINE
5
227
100
AcDbEntity
8
0
100
AcDbPolyline
90
4
70
1
43
0.0
10
445.49933333333331
20
161
10
445.4993333333332
20
178.00000000000011
42
-0.99999999999999989
10
447.49933333333325
20
178.00000000000006
10
447.4993333333332
20
160.99999999999994
42
-0.99999999999999989
0
LWPOLYLINE
5
228
100
AcDbEntity
8
0
100
AcDbPolyline
90
4
70
1
43
0.0
10
538.99999999999989
20
155.00000000000003
10
539
20
131
42
-0.99999999999999989
10
537
20
131.00000000000003
10
537
20
155.00000000000011
42
-0.99999999999999989
0
LWPOLYLINE
5
229
100
AcDbEntity
8
0
100
AcDbPolyline
90
4
70
1
43
0.0
10
506.99999999999989
20
137.00000000000006
10
506.99999999999994
20
155.00000000000011
42
-0.99999999999999989
10
509
20
155.00000000000003
10
509.00000000000006
20
137
42
-0.99999999999999989
0
LWPOLYLINE
5
230
100
AcDbEntity
8
0
100
AcDbPolyline
90
4
70
1
43
0.0
10
539
20
185.00000000000006
42
0.99999999999999989
10
537
20
185.00000000000014
10
537
20
161
42
0.99999999999999989
10
538.99999999999989
20
161.00000000000006
0
LWPOLYLINE
5
231
100
AcDbEntity
8
0
100
AcDbPolyline
90
36
70
1
43
0.0
10
546.4996666666666
20
163.83333333333337
10
551.4996666666666
20
163.83333333333337
10
551.4996666666666
20
183.83333333333331
10
546.4996666666666
20
183.83333333333337
10
546.4996666666666
20
190.49999992549425
10
525.33299999999986
20
190.50000000000006
10
525.33299999999997
20
195.50000000000006
10
490.33299999999997
20
195.50000000000006
10
490.33299999999997
20
190.5
10
464.16633333333328
20
190.5
10
464.16633333333323
20
195.5
10
429.16633333333323
20
195.5
10
429.16633333333323
20
190.5
10
407.99966666666654
20
190.5
10
407.9996666666666
20
183.83333333333331
10
402.9996666666666
20
183.83333333333337
10
402.9996666666666
20
163.83333333333331
10
407.9996666666666
20
163.83333333333337
10
407.9996666666666
20
152.16666666666671
10
402.9996666666666
20
152.16666666666671
10
402.9996666666666
20
132.16666666666671
10
407.9996666666666
20
132.16666666666671
10
407.9996666666666
20
120.50000000000003
10
429.16633333333328
20
120.50000000000003
10
429.16633333333323
20
125.50000000000003
10
464.16633333333323
20
125.50000000000003
10
464.16633333333323
20
120.50000000000003
10
490.33299999999991
20
120.50000000000003
10
490.33299999999997
20
125.50000000000003
10
525.33299999999997
20
125.50000000000003
10
525.33299999999997
20
120.50000000000003
10
546.4996666666666
20
120.50000000000003
10
546.4996666666666
20
132.16666666666671
10
551.4996666666666
20
132.16666666666671
10
551.4996666666666
20
152.16666666666671
10
546.4996666666666
20
152.16666666666671
0
CIRCLE
5
232
100
AcDbEntity
8
0
100
AcDbCircle
10
606.54664104292328
20
140.3959540457181
30
0
40
5.4999999999999982
210
-0
220
0
230
1
0
LWPOLYLINE
5
233
100
AcDbEntity
8
0
100
AcDbPolyline
90
36
70
1
43
0.0
10
651.5466410429234
20
183.72928737905141
10
656.5466410429234
20
183.72928737905144
10
656.5466410429234
20
195.39595404571813
10
636.5466410429234
20
195.3959540457181
10
636.54664104292328
20
190.3959540457181
10
616.54664104292328
20
190.3959540457181
10
616.54664104292328
20
195.3959540457181
10
596.54664104292328
20
195.3959540457181
10
596.54664104292328
20
190.3959540457181
10
576.54664104292328
20
190.39595404571813
10
576.54664104292328
20
195.39595404571813
10
556.54664104292328
20
195.39595404571813
10
556.54664104292328
20
183.72928737905147
10
561.54664104292328
20
183.72928737905147
10
561.54664104292328
20
163.72928737905147
10
556.54664104292328
20
163.72928737905147
10
556.54664104292328
20
152.06262071238481
10
561.54664104292328
20
152.06262071238481
10
561.54664104292328
20
132.06262071238481
10
556.54664104292328
20
132.06262071238481
10
556.54663955280716
20
125.39595404571816
10
576.54664104292328
20
125.39595404571813
10
576.54664104292328
20
120.3959540457181
10
596.54664104292328
20
120.3959540457181
10
596.54664104292328
20
125.3959540457181
10
616.54664104292328
20
125.3959540457181
10
616.54664104292328
20
120.3959540457181
10
636.54664104292328
20
120.3959540457181
10
636.54664104292328
20
125.3959540457181
10
656.5466410429234
20
125.39595412022393
10
656.5466410429234
20
132.06262071238481
10
651.5466410429234
20
132.06262071238473
10
651.5466410429234
20
152.06262071238473
10
656.5466410429234
20
152.06262071238481
10
656.54664104292328
20
163.72928737905144
10
651.5466410429234
20
163.72928737905141
0
CIRCLE
5
234
100
AcDbEntity
8
0
100
AcDbCircle
10
602.50000779936238
20
62.999995622103668
30
0
40
5.4999999999999982
210
-0
220
0
230
1
0
LWPOLYLINE
5
235
100
AcDbEntity
8
0
100
AcDbPolyline
90
36
70
1
43
0.0
10
647.50000779936227
20
106.33332895543703
10
652.50000779936227
20
106.33332895543703
10
652.50000779936227
20
117.99999562210367
10
632.50000779936227
20
117.99999562210367
10
632.50000779936227
20
112.99999562210367
10
612.50000779936227
20
112.99999562210367
10
612.50000779936227
20
117.99999562210367
10
592.50000779936227
20
117.99999562210363
10
592.50000779936227
20
112.99999562210363
10
572.50000779936227
20
112.99999562210363
10
572.50000779936227
20
117.99999562210363
10
552.50000779936227
20
117.99999562210374
10
552.50000779936227
20
106.3333289554371
10
557.50000779936227
20
106.3333289554371
10
557.50000779936227
20
86.333328955437096
10
552.50000779936227
20
86.333328955437096
10
552.50000779936227
20
74.666662288770382
10
557.50000779936227
20
74.666662288770382
10
557.50000779936238
20
54.666662288770382
10
552.50000779936238
20
54.666662288770382
10
552.50000630924626
20
47.999995622103739
10
572.50000779936238
20
47.999995622103633
10
572.50000779936238
20
42.999995622103633
10
592.50000779936238
20
42.999995622103633
10
592.50000779936238
20
47.999995622103633
10
612.50000779936238
20
47.999995622103668
10
612.50000779936227
20
42.999995622103668
10
632.50000779936227
20
42.999995622103668
10
632.50000779936227
20
47.999995622103668
10
652.50000779936227
20
47.999995696609474
10
652.50000779936227
20
54.666662288770382
10
647.50000779936249
20
54.666662288770311
10
647.50000779936249
20
74.666662288770311
10
652.50000779936227
20
74.666662288770382
10
652.50000779936227
20
86.333328955437025
10
647.50000779936227
20
86.333328955437025
0
CIRCLE
5
236
100
AcDbEntity
8
0
100
AcDbCircle
10
606.54664104292328
20
-14.604045954281872
30
0
40
5.4999999999999982
210
-0
220
0
230
1
0
LWPOLYLINE
5
237
100
AcDbEntity
8
0
100
AcDbPolyline
90
36
70
1
43
0.0
10
651.54664104292328
20
28.729287379051449
10
656.54664104292328
20
28.729287379051485
10
656.54664104292328
20
40.395954045718163
10
636.54664104292328
20
40.395954045718128
10
636.54664104292328
20
35.395954045718128
10
616.54664104292328
20
35.395954045718128
10
616.54664104292328
20
40.395954045718128
10
596.54664104292328
20
40.395954045718128
10
596.54664104292328
20
35.395954045718128
10
576.54664104292328
20
35.395954045718163
10
576.54664104292328
20
40.395954045718163
10
556.54664104292328
20
40.395954045718163
10
556.54664104292328
20
28.72928737905152
10
561.54664104292328
20
28.72928737905152
10
561.54664104292328
20
8.7292873790515202
10
556.54664104292328
20
8.7292873790515202
10
556.54664104292328
20
-2.9373792876151583
10
561.54664104292328
20
-2.9373792876151583
10
561.54664104292328
20
-22.937379287615158
10
556.54664104292328
20
-22.937379287615158
10
556.54663955280716
20
-29.604045954281801
10
576.54664104292328
20
-29.604045954281837
10
576.54664104292328
20
-34.604045954281872
10
596.54664104292328
20
-34.604045954281872
10
596.54664104292328
20
-29.604045954281872
10
616.54664104292328
20
-29.604045954281872
10
616.54664104292328
20
-34.604045954281872
10
636.54664104292328
20
-34.604045954281872
10
636.54664104292328
20
-29.604045954281872
10
656.54664104292328
20
-29.604045879776031
10
656.54664104292328
20
-22.937379287615158
10
651.54664104292328
20
-22.937379287615229
10
651.54664104292328
20
-2.9373792876152294
10
656.54664104292328
20
-2.9373792876151583
10
656.54664104292328
20
8.7292873790514847
10
651.54664104292328
20
8.7292873790514491
0
CIRCLE
5
238
100
AcDbEntity
8
0
100
AcDbCircle
10
602.50000779936238
20
-92.000004377896332
30
0
40
5.4999999999999982
210
-0
220
0
230
1
0
LWPOLYLINE
5
239
100
AcDbEntity
8
0
100
AcDbPolyline
90
36
70
1
43
0.0
10
647.50000779936227
20
-48.666671044562975
10
652.50000779936227
20
-48.666671044562975
10
652.50000779936227
20
-37.000004377896332
10
632.50000779936227
20
-37.000004377896332
10
632.50000779936227
20
-42.000004377896332
10
612.50000779936227
20
-42.000004377896332
10
612.50000779936227
20
-37.000004377896332
10
592.50000779936227
20
-37.000004377896367
10
592.50000779936227
20
-42.000004377896367
10
572.50000779936227
20
-42.000004377896367
10
572.50000779936227
20
-37.000004377896367
10
552.50000779936227
20
-37.000004377896261
10
552.50000779936227
20
-48.666671044562904
10
557.50000779936227
20
-48.666671044562904
10
557.50000779936227
20
-68.666671044562904
10
552.50000779936227
20
-68.666671044562904
10
552.50000779936227
20
-80.333337711229618
10
557.50000779936227
20
-80.333337711229618
10
557.50000779936238
20
-100.33333771122962
10
552.50000779936238
20
-100.33333771122962
10
552.50000630924626
20
-107.00000437789626
10
572.50000779936238
20
-107.00000437789637
10
572.50000779936238
20
-112.00000437789637
10
592.50000779936238
20
-112.00000437789637
10
592.50000779936238
20
-107.00000437789637
10
612.50000779936238
20
-107.00000437789633
10
612.50000779936227
20
-112.00000437789633
10
632.50000779936227
20
-112.00000437789633
10
632.50000779936227
20
-107.00000437789633
10
652.50000779936227
20
-107.00000430339053
10
652.50000779936227
20
-100.33333771122962
10
647.50000779936249
20
-100.33333771122969
10
647.50000779936249
20
-80.333337711229689
10
652.50000779936227
20
-80.333337711229618
10
652.50000779936227
20
-68.666671044562975
10
647.50000779936227
20
-68.666671044562975
0
CIRCLE
5
240
100
AcDbEntity
8
0
100
AcDbCircle
10
602.50000779936238
20
-172.00000437789635
30
0
40
5.4999999999999982
210
-0
220
0
230
1
0
LWPOLYLINE
5
241
100
AcDbEntity
8
0
100
AcDbPolyline
90
36
70
1
43
0.0
10
647.50000779936227
20
-128.66667104456297
10
652.50000779936227
20
-128.66667104456297
10
652.50000779936227
20
-117.00000437789633
10
632.50000779936227
20
-117.00000437789633
10
632.50000779936227
20
-122.00000437789633
10
612.50000779936227
20
-122.00000437789633
10
612.50000779936227
20
-117.00000437789633
10
592.50000779936227
20
-117.00000437789637
10
592.50000779936227
20
-122.00000437789637
10
572.50000779936227
20
-122.00000437789637
10
572.50000779936227
20
-117.00000437789637
10
552.50000779936227
20
-117.00000437789626
10
552.50000779936227
20
-128.66667104456292
10
557.50000779936227
20
-128.66667104456292
10
557.50000779936227
20
-148.66667104456292
10
552.50000779936227
20
-148.66667104456292
10
552.50000779936227
20
-160.3333377112296
10
557.50000779936227
20
-160.3333377112296
10
557.50000779936238
20
-180.3333377112296
10
552.50000779936238
20
-180.3333377112296
10
552.50000630924626
20
-187.00000437789626
10
572.50000779936238
20
-187.00000437789637
10
572.50000779936238
20
-192.00000437789637
10
592.50000779936238
20
-192.00000437789637
10
592.50000779936238
20
-187.00000437789637
10
612.50000779936238
20
-187.00000437789635
10
612.50000779936227
20
-192.00000437789635
10
632.50000779936227
20
-192.00000437789635
10
632.50000779936227
20
-187.00000437789635
10
652.50000779936227
20
-187.00000430339054
10
652.50000779936227
20
-180.3333377112296
10
647.50000779936249
20
-180.33333771122969
10
647.50000779936249
20
-160.33333771122969
10
652.50000779936227
20
-160.3333377112296
10
652.50000779936227
20
-148.66667104456297
10
647.50000779936227
20
-148.66667104456297
0
CIRCLE
5
242
100
AcDbEntity
8
0
100
AcDbCircle
10
477.50000779936238
20
-172.00000437789637
30
0
40
5.4999999999999982
210
-0
220
0
230
1
0
LWPOLYLINE
5
243
100
AcDbEntity
8
0
100
AcDbPolyline
90
36
70
1
43
0.0
10
522.50000779936227
20
-128.66667104456303
10
527.50000779936227
20
-128.66667104456303
10
527.50000779936227
20
-117.0000043778964
10
507.50000779936227
20
-117.0000043778964
10
507.50000779936227
20
-122.0000043778964
10
487.50000779936227
20
-122.0000043778964
10
487.50000779936227
20
-117.0000043778964
10
467.50000779936227
20
-117.00000437789643
10
467.50000779936227
20
-122.00000437789643
10
447.50000779936227
20
-122.00000437789643
10
447.50000779936227
20
-117.00000437789643
10
427.50000779936227
20
-117.00000437789633
10
427.50000779936227
20
-128.66667104456297
10
432.50000779936227
20
-128.66667104456297
10
432.50000779936227
20
-148.66667104456297
10
427.50000779936227
20
-148.66667104456295
10
427.50000779936227
20
-160.33333771122966
10
432.50000779936227
20
-160.33333771122966
10
432.50000779936238
20
-180.33333771122966
10
427.50000779936238
20
-180.33333771122966
10
427.50000630924626
20
-187.00000437789629
10
447.50000779936238
20
-187.0000043778964
10
447.50000779936238
20
-192.0000043778964
10
467.50000779936238
20
-192.0000043778964
10
467.50000779936238
20
-187.0000043778964
10
487.50000779936238
20
-187.00000437789637
10
487.50000779936227
20
-192.00000437789637
10
507.50000779936227
20
-192.00000437789637
10
507.50000779936227
20
-187.00000437789637
10
527.50000779936227
20
-187.00000430339057
10
527.50000779936227
20
-180.33333771122966
10
522.50000779936238
20
-180.33333771122972
10
522.50000779936227
20
-160.33333771122972
10
527.50000779936227
20
-160.33333771122966
10
527.50000779936227
20
-148.666671044563
10
522.50000779936227
20
-148.666671044563
0
LWPOLYLINE
5
244
100
AcDbEntity
8
0
100
AcDbPolyline
90
4
70
1
43
0.0
10
100
20
-200
10
700
20
-200
10
700
20
200
10
100
20
200
0
ENDSEC
0
SECTION
2
OBJECTS
0
DICTIONARY
5
C
100
AcDbDictionary
3
ACAD_GROUP
350
D
3
ACAD_MLINESTYLE
350
17
0
DICTIONARY
5
D
100
AcDbDictionary
0
DICTIONARY
5
1A
330
C
100
AcDbDictionary
0
DICTIONARY
5
17
100
AcDbDictionary
0
ENDSEC
0
EOF
