0
SECTION
2
HEADER
9
$INSUNITS
70
4
9
$ACADVER
1
AC1014
9
$HANDSEED
5
FFFF
0
ENDSEC
0
SECTION
2
TABLES
0
TABLE
2
VPORT
5
8
100
AcDbSymbolTable
0
ENDTAB
0
TABLE
2
LTYPE
5
5
100
AcDbSymbolTable
0
LTYPE
5
14
100
AcDbSymbolTableRecord
100
AcDbLinetypeTableRecord
2
BYBLOCK
70
0
0
LTYPE
5
15
100
AcDbSymbolTableRecord
100
AcDbLinetypeTableRecord
2
BYLAYER
70
0
0
ENDTAB
0
TABLE
2
LAYER
5
2
100
AcDbSymbolTable
70
2
0
LAYER
5
50
100
AcDbSymbolTableRecord
100
AcDbLayerTableRecord
2
0
70
0
6
CONTINUOUS
0
ENDTAB
0
TABLE
2
STYLE
5
3
100
AcDbSymbolTable
70
1
0
STYLE
5
11
100
AcDbSymbolTableRecord
100
AcDbTextStyleTableRecord
2
STANDARD
70
0
0
ENDTAB
0
TABLE
2
VIEW
5
6
100
AcDbSymbolTable
70
0
0
ENDTAB
0
TABLE
2
UCS
5
7
100
AcDbSymbolTable
70
0
0
ENDTAB
0
TABLE
2
APPID
5
9
100
AcDbSymbolTable
70
2
0
APPID
5
12
100
AcDbSymbolTableRecord
100
AcDbRegAppTableRecord
2
ACAD
70
0
0
ENDTAB
0
TABLE
2
DIMSTYLE
5
A
100
AcDbSymbolTable
70
1
0
ENDTAB
0
TABLE
2
BLOCK_RECORD
5
1
100
AcDbSymbolTable
70
1
0
BLOCK_RECORD
5
1F
100
AcDbSymbolTableRecord
100
AcDbBlockTableRecord
2
*MODEL_SPACE
0
BLOCK_RECORD
5
1B
100
AcDbSymbolTableRecord
100
AcDbBlockTableRecord
2
*PAPER_SPACE
0
ENDTAB
0
ENDSEC
0
SECTION
2
BLOCKS
0
BLOCK
5
20
100
AcDbEntity
100
AcDbBlockBegin
2
*MODEL_SPACE
0
ENDBLK
5
21
100
AcDbEntity
100
AcDbBlockEnd
0
BLOCK
5
1C
100
AcDbEntity
100
AcDbBlockBegin
2
*PAPER_SPACE
0
ENDBLK
5
1D
100
AcDbEntity
100
AcDbBlockEnd
0
ENDSEC
0
SECTION
2
ENTITIES
0
LWPOLYLINE
5
100
100
AcDbEntity
8
0
100
AcDbPolyline
90
4
70
1
43
0.0
10
-112.43137127614716
20
538.60074217662941
10
-712.43137127614716
20
538.60074217662941
10
-712.43137127614716
20
138.60074217662941
10
-112.43137127614716
20
138.60074217662941
0
LWPOLYLINE
5
101
100
AcDbEntity
8
0
100
AcDbPolyline
90
4
70
1
43
0.0
10
-650.74129996615966
20
211.45731011369733
10
-666.74129996615966
20
211.45731011369733
10
-666.74129996615966
20
237.45731011369725
10
-650.74129996615966
20
237.45731011369728
0
LWPOLYLINE
5
102
100
AcDbEntity
8
0
100
AcDbPolyline
90
28
70
1
43
0.0
10
-631.24129996615966
20
301.00134620630968
10
-631.24129996615966
20
306.00134620630968
10
-666.24129996615966
20
306.00134620630968
10
-666.24129996615966
20
301.00134620630968
10
-681.24129996615977
20
301.00134620630968
10
-681.24129996615977
20
275.83467953964305
10
-676.24129996615977
20
275.83467953964305
10
-676.24129996615977
20
240.8346795396431
10
-681.24129996615977
20
240.83467953964316
10
-681.24129996615977
20
210.66801287297653
10
-676.24129996615977
20
210.6680128729765
10
-676.24129996615977
20
175.66801287297659
10
-681.24129996615977
20
175.66801287297665
10
-681.24129996615977
20
150.50134620631002
10
-666.24129996615966
20
150.50134620630999
10
-666.24129996615966
20
145.50134620630999
10
-631.24129996615966
20
145.50134620630985
10
-631.24129996615966
20
150.50134620630999
10
-616.24129996615966
20
150.50134620630999
10
-616.24129996615966
20
175.66801287297662
10
-611.24129996615966
20
175.66801287297665
10
-611.24129996615966
20
210.66801287297659
10
-616.24129996615966
20
210.6680128729765
10
-616.24129996615966
20
240.83467953964313
10
-611.24129996615966
20
240.83467953964316
10
-611.24129996615966
20
275.8346795396431
10
-616.24129996615966
20
275.83467953964305
10
-616.24129996615966
20
301.00134620630962
0
CIRCLE
5
103
100
AcDbEntity
8
0
100
AcDbCircle
10
-613.74129996615966
20
258.33467953964316
30
0
40
1.4999999999999947
210
0
220
-0
230
1
0
CIRCLE
5
104
100
AcDbEntity
8
0
100
AcDbCircle
10
-613.74129996615966
20
193.1680128729765
30
0
40
1.4999999999999947
210
0
220
-0
230
1
0
CIRCLE
5
105
100
AcDbEntity
8
0
100
AcDbCircle
10
-645.49129996615977
20
237.50134620630988
30
0
40
0.99999999999999201
210
0
220
-0
230
1
0
CIRCLE
5
106
100
AcDbEntity
8
0
100
AcDbCircle
10
-669.24129996615966
20
237.50134620630988
30
0
40
0.99999999999999645
210
0
220
-0
230
1
0
CIRCLE
5
107
100
AcDbEntity
8
0
100
AcDbCircle
10
-645.49129996615977
20
214.00134620630979
30
0
40
1.0000000000000142
210
0
220
-0
230
1
0
CIRCLE
5
108
100
AcDbEntity
8
0
100
AcDbCircle
10
-669.24129996615966
20
214.00134620630979
30
0
40
0.99999999999999423
210
0
220
-0
230
1
0
CIRCLE
5
109
100
AcDbEntity
8
0
100
AcDbCircle
10
-648.74130500275214
20
148.00134620630999
30
0
40
1.5000000000000302
210
0
220
-0
230
1
0
CIRCLE
5
110
100
AcDbEntity
8
0
100
AcDbCircle
10
-648.74129996615966
20
303.50134620630968
30
0
40
1.5000000000000213
210
0
220
-0
230
1
0
LWPOLYLINE
5
111
100
AcDbEntity
8
0
100
AcDbPolyline
90
4
70
1
43
0.0
10
-650.74129996615966
20
376.45731011369719
10
-666.74129996615966
20
376.45731011369719
10
-666.74129996615966
20
402.45731011369708
10
-650.74129996615966
20
402.45731011369713
0
LWPOLYLINE
5
112
100
AcDbEntity
8
0
100
AcDbPolyline
90
28
70
1
43
0.0
10
-631.24129996615966
20
466.00134620630956
10
-631.24129996615966
20
471.00134620630956
10
-666.24129996615966
20
471.00134620630956
10
-666.24129996615966
20
466.00134620630956
10
-681.24129996615977
20
466.00134620630956
10
-681.24129996615977
20
440.83467953964293
10
-676.24129996615977
20
440.83467953964288
10
-676.24129996615977
20
405.83467953964293
10
-681.24129996615977
20
405.83467953964305
10
-681.24129996615977
20
375.66801287297642
10
-676.24129996615977
20
375.66801287297636
10
-676.24129996615977
20
340.66801287297642
10
-681.24129996615977
20
340.66801287297653
10
-681.24129996615977
20
315.5013462063099
10
-666.24129996615966
20
315.50134620630985
10
-666.24129996615966
20
310.50134620630985
10
-631.24129996615966
20
310.50134620630968
10
-631.24129996615966
20
315.50134620630985
10
-616.24129996615966
20
315.50134620630985
10
-616.24129996615966
20
340.66801287297642
10
-611.24129996615966
20
340.66801287297653
10
-611.24129996615966
20
375.66801287297642
10
-616.24129996615966
20
375.66801287297636
10
-616.24129996615966
20
405.83467953964293
10
-611.24129996615966
20
405.83467953964305
10
-611.24129996615966
20
440.83467953964293
10
-616.24129996615966
20
440.83467953964288
10
-616.24129996615966
20
466.00134620630945
0
CIRCLE
5
113
100
AcDbEntity
8
0
100
AcDbCircle
10
-613.74129996615966
20
423.33467953964305
30
0
40
1.4999999999999947
210
0
220
-0
230
1
0
CIRCLE
5
114
100
AcDbEntity
8
0
100
AcDbCircle
10
-613.74129996615966
20
358.16801287297636
30
0
40
1.4999999999999947
210
0
220
-0
230
1
0
CIRCLE
5
115
100
AcDbEntity
8
0
100
AcDbCircle
10
-645.49129996615977
20
402.50134620630973
30
0
40
0.99999999999999201
210
0
220
-0
230
1
0
CIRCLE
5
116
100
AcDbEntity
8
0
100
AcDbCircle
10
-669.24129996615966
20
402.50134620630973
30
0
40
0.99999999999999645
210
0
220
-0
230
1
0
CIRCLE
5
117
100
AcDbEntity
8
0
100
AcDbCircle
10
-645.49129996615977
20
379.00134620630968
30
0
40
1.0000000000000142
210
0
220
-0
230
1
0
CIRCLE
5
118
100
AcDbEntity
8
0
100
AcDbCircle
10
-669.24129996615966
20
379.00134620630968
30
0
40
0.99999999999999423
210
0
220
-0
230
1
0
CIRCLE
5
119
100
AcDbEntity
8
0
100
AcDbCircle
10
-648.74130500275214
20
313.00134620630985
30
0
40
1.5000000000000302
210
0
220
-0
230
1
0
CIRCLE
5
120
100
AcDbEntity
8
0
100
AcDbCircle
10
-648.74129996615966
20
468.50134620630956
30
0
40
1.5000000000000213
210
0
220
-0
230
1
0
LWPOLYLINE
5
121
100
AcDbEntity
8
0
100
AcDbPolyline
90
4
70
1
43
0.0
10
-512.45200272543809
20
313.19650343547374
10
-512.45200272543809
20
316.16801287297739
42
-0.15592164723110546
10
-502.95781771855326
20
305.46281567224889
10
-505.72368217842978
20
305.46281567224889
42
0.12390770581098594
0
LWPOLYLINE
5
122
100
AcDbEntity
8
0
100
AcDbPolyline
90
4
70
1
43
0.0
10
-543.18032377908594
20
305.46281567224889
10
-545.94618823896189
20
305.46281567224861
42
-0.15592164723109819
10
-536.45200323207757
20
316.16801287297733
10
-536.45200323207757
20
313.19650343547374
42
0.12390770581097973
0
LWPOLYLINE
5
123
100
AcDbEntity
8
0
100
AcDbPolyline
90
4
70
1
43
0.0
10
-505.72368217842984
20
286.46281567224889
10
-502.95781771855263
20
286.46281567224861
42
-0.15592164723109805
10
-512.45200272543809
20
275.75761847152046
10
-512.45200272543809
20
278.72912790902404
42
0.12390770581097997
0
LWPOLYLINE
5
124
100
AcDbEntity
8
0
100
AcDbPolyline
90
4
70
1
43
0.0
10
-545.94618823896246
20
286.46281567224889
42
0.15592164723109192
10
-536.45200323207757
20
275.7576184715204
10
-536.45200323207757
20
278.72912790902404
42
-0.12390770581097417
10
-543.18032377908594
20
286.46281567224889
0
CIRCLE
5
125
100
AcDbEntity
8
0
100
AcDbCircle
10
-544.50469466121422
20
338.16725519330981
30
0
40
1.3499999999999996
210
-0
220
0
230
1
0
CIRCLE
5
126
100
AcDbEntity
8
0
100
AcDbCircle
10
-544.5046946612141
20
280.16725519330981
30
0
40
1.3499999999999996
210
-0
220
0
230
1
0
CIRCLE
5
127
100
AcDbEntity
8
0
100
AcDbCircle
10
-593.5046946612141
20
280.16725519330976
30
0
40
1.3499999999999974
210
-0
220
0
230
1
0
LINE
5
128
100
AcDbEntity
8
0
100
AcDbLine
10
-511.76309570600665
20
288.34078252259496
30
0
11
-511.76309570600665
21
284.4626633674053
31
0
0
ELLIPSE
5
129
100
AcDbEntity
8
0
100
AcDbEllipse
10
-512.76324803405055
20
284.46296800029279
30
0
11
0.70732218916938061
21
-0.70732218916977918
31
0.0
40
0.99969545988188779
41
5.4979394370300332
42
7.0684311773297024
0
LINE
5
130
100
AcDbEntity
8
0
100
AcDbLine
10
-512.76294340116306
20
283.46281567224889
30
0
11
-536.14106255635284
21
283.46281567224889
31
0
0
ELLIPSE
5
131
100
AcDbEntity
8
0
100
AcDbEllipse
10
-536.14075792346523
20
284.46296800029279
30
0
11
-0.70732218916938061
21
-0.70732218916977918
31
0.0
40
0.99969545988188779
41
5.4979394370293901
42
7.0684311773291997
0
LINE
5
132
100
AcDbEntity
8
0
100
AcDbLine
10
-537.14091025150924
20
284.46266336740524
30
0
11
-537.14091025150913
21
288.34078252259496
31
0
0
ELLIPSE
5
133
100
AcDbEntity
8
0
100
AcDbEllipse
10
-536.14075792346523
20
288.34047788970747
30
0
11
0.70732218916938061
21
-0.70732218916977918
31
0.0
40
0.99969545988188779
41
2.3563467834401797
42
3.9268385237399892
0
LINE
5
134
100
AcDbEntity
8
0
100
AcDbLine
10
-536.14106255635284
20
289.34063021775137
30
0
11
-512.76294340116306
21
289.34063021775137
31
0
0
ELLIPSE
5
135
100
AcDbEntity
8
0
100
AcDbEllipse
10
-512.76324803405055
20
288.34047788970747
30
0
11
-0.70732218916948197
21
-0.70732218916967904
31
0.0
40
0.99969545988188724
41
2.3563467834397778
42
3.9268385237395469
0
LWPOLYLINE
5
136
100
AcDbEntity
8
0
100
AcDbPolyline
90
132
70
1
43
0.0
10
-599.70200297875795
20
366.21281567224884
10
-599.70200297875795
20
371.21281567224884
10
-604.70200297875795
20
371.21281567224884
10
-604.70200297875795
20
354.37948233891552
10
-599.70200297875795
20
354.37948233891552
10
-599.70200297875795
20
340.87948233891552
10
-596.70200297875783
20
340.87948233891552
10
-596.70200297875783
20
342.62948233891552
10
-594.20200297875783
20
342.62948233891552
10
-594.20200297875783
20
340.87948233891552
10
-591.70200297875783
20
340.87948233891552
10
-591.70200297875783
20
337.87948233891552
10
-594.20200297875783
20
337.87948233891552
10
-594.20200297875783
20
336.12948233891558
10
-596.70200297875783
20
336.12948233891558
10
-596.70200297875783
20
337.87948233891552
10
-599.70200297875795
20
337.87948233891552
10
-599.70200297875795
20
324.37948233891564
10
-604.70200297875795
20
324.37948233891552
10
-604.70200297875795
20
307.54614900558221
10
-599.70200297875795
20
307.54614900558227
10
-599.70200297875795
20
294.04614900558221
10
-596.70200297875783
20
294.04614900558221
10
-596.70200297875783
20
295.79614900558221
10
-594.20200297875783
20
295.7961490055863
10
-594.20200297875783
20
294.04614900558221
10
-591.70200297875795
20
294.04614900558221
10
-591.70200297875783
20
291.04614900558221
10
-594.20200297875783
20
291.04614900558221
10
-594.20200297875783
20
289.29614900558289
10
-596.70200297875783
20
289.29614900558221
10
-596.70200297875783
20
291.04614900558221
10
-599.70200297875783
20
291.04614900558221
10
-599.70200297875795
20
277.54614900558221
10
-604.70200297875795
20
277.54614900558215
10
-604.70200297875795
20
260.71281567224889
10
-574.5353363120912
20
260.71281567224889
10
-574.5353363120912
20
265.71281567224889
10
-558.5353363120912
20
265.71281567224889
10
-558.5353363120912
20
268.71281567224884
10
-560.2853363120912
20
268.71281567224884
10
-560.28533631205732
20
271.21281567224884
10
-558.5353363120912
20
271.21281567224884
10
-558.5353363120912
20
273.71281567224884
10
-555.5353363120912
20
273.71281567224884
10
-555.5353363120912
20
271.21281567224884
10
-553.78533631209154
20
271.21281567224884
10
-553.78533631209154
20
268.71281567224884
10
-555.53533631209109
20
268.71281567224884
10
-555.5353363120912
20
265.71281567224889
10
-539.5353363120912
20
265.71281567224889
10
-539.5353363120912
20
260.71281567224889
10
-509.36866964542452
20
260.71281567224889
10
-509.36866964542452
20
265.71281567224889
10
-493.36866964542457
20
265.71281567224889
10
-493.36866964542452
20
268.71281567224884
10
-495.11866964541298
20
268.71281567224884
10
-495.11866964541184
20
271.21281567224884
10
-493.36866964542457
20
271.21281567224884
10
-493.36866964542452
20
273.71281567224884
10
-490.36866964542457
20
273.71281567224884
10
-490.36866964542457
20
271.21281567224884
10
-488.61866964542344
20
271.21281567224884
10
-488.61866964542389
20
268.71281567224884
10
-490.36866964542446
20
268.71281567224884
10
-490.36866964542457
20
265.71281567224889
10
-474.36866964542452
20
265.71281567224889
10
-474.36866964542452
20
260.71281567224889
10
-444.20200297875795
20
260.71281567224889
10
-444.20200297875795
20
277.54614900558215
10
-449.20200297875795
20
277.54614900558215
10
-449.20200297875795
20
291.04614900558215
10
-452.20200297875795
20
291.04614900558221
10
-452.20200297875795
20
289.29614900558221
10
-454.70200297875795
20
289.29614900558221
10
-454.70200297875795
20
291.04614900558221
10
-457.20200297875783
20
291.04614900558221
10
-457.20200297875795
20
294.04614900558221
10
-454.702002978758
20
294.04614900558221
10
-454.70200297875795
20
295.79614900558221
10
-452.20200297875795
20
295.79614900558221
10
-452.20200297875795
20
294.04614900558221
10
-449.20200297875795
20
294.04614900558221
10
-449.20200297875795
20
307.54614900558227
10
-444.20200297875795
20
307.54614900558227
10
-444.20200297875795
20
324.37948233891552
10
-449.20200297875795
20
324.37948233891552
10
-449.20200297875795
20
337.87948233891547
10
-452.20200297875795
20
337.87948233891552
10
-452.20200297875795
20
336.12948233891558
10
-454.70200297875795
20
336.12948233891552
10
-454.70200297875795
20
337.87948233891547
10
-457.20200297875795
20
337.87948233891552
10
-457.20200297875795
20
340.87948233891552
10
-454.70200297875795
20
340.87948233891552
10
-454.70200297875795
20
342.62948233891552
10
-452.20200297875795
20
342.62948233891552
10
-452.20200297875795
20
340.87948233891552
10
-449.20200297875789
20
340.87948233891552
10
-449.20200297875789
20
354.37948233891552
10
-444.20200297875795
20
354.37948233891552
10
-444.20200297875795
20
371.21281567224884
10
-449.20200297875795
20
371.21281567224884
10
-449.20200297875795
20
366.21281567224884
10
-460.28533631209132
20
366.21281567224884
10
-460.28533631209132
20
363.21281567224889
10
-458.53533631209132
20
363.21281567224889
10
-458.53533631209126
20
360.71281567224889
10
-460.2853363120912
20
360.71281567224889
10
-460.2853363120912
20
358.21281567224889
10
-463.28533631209126
20
358.21281567224889
10
-463.28533631209126
20
360.71281567224889
10
-465.0353363120912
20
360.71281567224889
10
-465.0353363120912
20
363.21281567224889
10
-463.28533631209126
20
363.21281567224889
10
-463.28533631209126
20
366.21281567224884
10
-509.36866964542452
20
366.21281567224884
10
-509.36866964542452
20
371.21281567224884
10
-539.5353363120912
20
371.21281567224884
10
-539.5353363120912
20
366.21281567224884
10
-585.61866964542457
20
366.21281567224884
10
-585.61866964542457
20
363.21281567224889
10
-583.86866964542457
20
363.21281567224889
10
-583.86866964542446
20
360.71281567224889
10
-585.61866964542446
20
360.71281567224889
10
-585.61866964542457
20
358.21281567224889
10
-588.61866964542446
20
358.21281567224889
10
-588.61866964542446
20
360.71281567224889
10
-590.36866964542457
20
360.71281567224889
10
-590.36866964542457
20
363.21281567224889
10
-588.61866964542457
20
363.21281567224889
10
-588.61866964542457
20
366.21281567224884
0
LWPOLYLINE
5
137
100
AcDbEntity
8
0
100
AcDbPolyline
90
4
70
1
43
0.0
10
-512.45200272543855
20
198.19650343547377
10
-512.45200272543855
20
201.16801287297736
42
-0.15592164723110546
10
-502.95781771855366
20
190.46281567224889
10
-505.72368217843018
20
190.46281567224892
42
0.12390770581098594
0
LWPOLYLINE
5
138
100
AcDbEntity
8
0
100
AcDbPolyline
90
4
70
1
43
0.0
10
-543.18032377908628
20
190.46281567224892
10
-545.94618823896235
20
190.46281567224864
42
-0.15592164723109794
10
-536.45200323207803
20
201.16801287297733
10
-536.45200323207803
20
198.19650343547377
42
0.12390770581097914
0
LWPOLYLINE
5
139
100
AcDbEntity
8
0
100
AcDbPolyline
90
4
70
1
43
0.0
10
-505.72368217843018
20
171.46281567224889
10
-502.95781771855303
20
171.46281567224864
42
-0.15592164723109841
10
-512.45200272543843
20
160.75761847152046
10
-512.45200272543855
20
163.72912790902404
42
0.12390770581098028
0
LWPOLYLINE
5
140
100
AcDbEntity
8
0
100
AcDbPolyline
90
4
70
1
43
0.0
10
-545.94618823896292
20
171.46281567224889
42
0.15592164723109192
10
-536.45200323207803
20
160.7576184715204
10
-536.45200323207803
20
163.72912790902404
42
-0.12390770581097417
10
-543.18032377908639
20
171.46281567224889
0
CIRCLE
5
141
100
AcDbEntity
8
0
100
AcDbCircle
10
-544.50469466121467
20
223.16725519330981
30
0
40
1.3499999999999996
210
-0
220
0
230
1
0
CIRCLE
5
142
100
AcDbEntity
8
0
100
AcDbCircle
10
-544.50469466121444
20
165.16725519330981
30
0
40
1.3499999999999996
210
-0
220
0
230
1
0
CIRCLE
5
143
100
AcDbEntity
8
0
100
AcDbCircle
10
-593.50469466121444
20
165.16725519330976
30
0
40
1.3499999999999974
210
-0
220
0
230
1
0
LINE
5
144
100
AcDbEntity
8
0
100
AcDbLine
10
-511.76309570600699
20
173.34078252259499
30
0
11
-511.76309570600699
21
169.4626633674053
31
0
0
ELLIPSE
5
145
100
AcDbEntity
8
0
100
AcDbEllipse
10
-512.76324803405089
20
169.46296800029279
30
0
11
0.70732218916938061
21
-0.70732218916977918
31
0.0
40
0.99969545988188779
41
5.4979394370299932
42
7.0684311773297024
0
LINE
5
146
100
AcDbEntity
8
0
100
AcDbLine
10
-512.7629434011634
20
168.46281567224892
30
0
11
-536.14106255635306
21
168.46281567224889
31
0
0
ELLIPSE
5
147
100
AcDbEntity
8
0
100
AcDbEllipse
10
-536.14075792346557
20
169.46296800029276
30
0
11
-0.70732218916938061
21
-0.70732218916977918
31
0.0
40
0.99969545988188779
41
5.4979394370294301
42
7.0684311773291792
0
LINE
5
148
100
AcDbEntity
8
0
100
AcDbLine
10
-537.14091025150947
20
169.46266336740524
30
0
11
-537.14091025150947
21
173.34078252259496
31
0
0
ELLIPSE
5
149
100
AcDbEntity
8
0
100
AcDbEllipse
10
-536.14075792346557
20
173.34047788970747
30
0
11
0.70732218916938061
21
-0.70732218916977918
31
0.0
40
0.99969545988188779
41
2.3563467834402001
42
3.9268385237399892
0
LINE
5
150
100
AcDbEntity
8
0
100
AcDbLine
10
-536.14106255635306
20
174.34063021775134
30
0
11
-512.7629434011634
21
174.34063021775134
31
0
0
ELLIPSE
5
151
100
AcDbEntity
8
0
100
AcDbEllipse
10
-512.76324803405089
20
173.34047788970747
30
0
11
-0.70732218916948197
21
-0.70732218916967904
31
0.0
40
0.99969545988188724
41
2.3563467834397778
42
3.9268385237395469
0
LWPOLYLINE
5
152
100
AcDbEntity
8
0
100
AcDbPolyline
90
132
70
1
43
0.0
10
-599.70200297875817
20
251.21281567224884
10
-599.70200297875817
20
256.21281567224884
10
-604.70200297875817
20
256.21281567224884
10
-604.70200297875817
20
239.37948233891552
10
-599.70200297875817
20
239.37948233891552
10
-599.70200297875817
20
225.87948233891552
10
-596.70200297875817
20
225.87948233891552
10
-596.70200297875817
20
227.62948233891552
10
-594.20200297875817
20
227.62948233891552
10
-594.20200297875817
20
225.87948233891552
10
-591.70200297875817
20
225.87948233891552
10
-591.70200297875817
20
222.87948233891552
10
-594.20200297875817
20
222.87948233891552
10
-594.20200297875817
20
221.12948233891555
10
-596.70200297875817
20
221.12948233891555
10
-596.70200297875817
20
222.87948233891552
10
-599.70200297875829
20
222.87948233891552
10
-599.70200297875829
20
209.37948233891552
10
-604.70200297875817
20
209.37948233891552
10
-604.70200297875817
20
192.54614900558221
10
-599.70200297875817
20
192.54614900558224
10
-599.70200297875817
20
179.04614900558221
10
-596.70200297875817
20
179.04614900558221
10
-596.70200297875817
20
180.79614900558224
10
-594.20200297875817
20
180.79614900558627
10
-594.20200297875817
20
179.04614900558221
10
-591.70200297875829
20
179.04614900558221
10
-591.70200297875817
20
176.04614900558221
10
-594.20200297875817
20
176.04614900558221
10
-594.20200297875817
20
174.29614900558289
10
-596.70200297875817
20
174.29614900558221
10
-596.70200297875817
20
176.04614900558221
10
-599.70200297875817
20
176.04614900558221
10
-599.70200297875817
20
162.54614900558221
10
-604.70200297875817
20
162.54614900558215
10
-604.70200297875817
20
145.71281567224887
10
-574.53533631209154
20
145.71281567224887
10
-574.53533631209154
20
150.71281567224887
10
-558.53533631209154
20
150.71281567224887
10
-558.53533631209154
20
153.71281567224884
10
-560.28533631209154
20
153.71281567224884
10
-560.28533631205778
20
156.21281567224884
10
-558.53533631209166
20
156.21281567224884
10
-558.53533631209154
20
158.71281567224884
10
-555.53533631209154
20
158.71281567224884
10
-555.53533631209143
20
156.21281567224884
10
-553.78533631209189
20
156.21281567224884
10
-553.78533631209189
20
153.71281567224884
10
-555.53533631209143
20
153.71281567224884
10
-555.53533631209143
20
150.71281567224887
10
-539.53533631209143
20
150.71281567224887
10
-539.53533631209154
20
145.71281567224887
10
-509.36866964542492
20
145.71281567224887
10
-509.36866964542492
20
150.71281567224887
10
-493.36866964542492
20
150.71281567224887
10
-493.36866964542492
20
153.71281567224884
10
-495.11866964541343
20
153.71281567224884
10
-495.1186696454123
20
156.21281567224884
10
-493.36866964542492
20
156.21281567224884
10
-493.36866964542492
20
158.71281567224884
10
-490.36866964542497
20
158.71281567224884
10
-490.36866964542492
20
156.21281567224884
10
-488.61866964542378
20
156.21281567224884
10
-488.61866964542423
20
153.71281567224884
10
-490.36866964542492
20
153.71281567224884
10
-490.36866964542492
20
150.71281567224887
10
-474.36866964542492
20
150.71281567224887
10
-474.36866964542492
20
145.71281567224887
10
-444.20200297875829
20
145.71281567224887
10
-444.20200297875829
20
162.54614900558215
10
-449.20200297875823
20
162.54614900558215
10
-449.20200297875823
20
176.04614900558218
10
-452.20200297875817
20
176.04614900558221
10
-452.20200297875829
20
174.29614900558221
10
-454.70200297875829
20
174.29614900558221
10
-454.70200297875834
20
176.04614900558221
10
-457.20200297875829
20
176.04614900558221
10
-457.20200297875829
20
179.04614900558221
10
-454.70200297875834
20
179.04614900558221
10
-454.70200297875834
20
180.79614900558224
10
-452.20200297875834
20
180.79614900558224
10
-452.20200297875834
20
179.04614900558221
10
-449.20200297875829
20
179.04614900558221
10
-449.20200297875823
20
192.54614900558224
10
-444.20200297875823
20
192.54614900558224
10
-444.20200297875823
20
209.37948233891558
10
-449.20200297875823
20
209.37948233891552
10
-449.20200297875823
20
222.87948233891552
10
-452.20200297875829
20
222.87948233891552
10
-452.20200297875829
20
221.12948233891552
10
-454.70200297875829
20
221.12948233891552
10
-454.70200297875829
20
222.87948233891552
10
-457.20200297875829
20
222.87948233891552
10
-457.20200297875829
20
225.87948233891552
10
-454.70200297875829
20
225.87948233891552
10
-454.70200297875829
20
227.62948233891552
10
-452.20200297875829
20
227.62948233891552
10
-452.20200297875829
20
225.87948233891552
10
-449.20200297875823
20
225.87948233891552
10
-449.20200297875823
20
239.37948233891552
10
-444.20200297875823
20
239.37948233891552
10
-444.20200297875823
20
256.21281567224884
10
-449.20200297875823
20
256.21281567224884
10
-449.20200297875823
20
251.21281567224884
10
-460.28533631209154
20
251.21281567224884
10
-460.28533631209154
20
248.21281567224887
10
-458.5353363120916
20
248.21281567224887
10
-458.5353363120916
20
245.71281567224887
10
-460.28533631209154
20
245.71281567224887
10
-460.28533631209154
20
243.21281567224887
10
-463.2853363120916
20
243.21281567224887
10
-463.2853363120916
20
245.71281567224887
10
-465.0353363120916
20
245.71281567224887
10
-465.0353363120916
20
248.21281567224887
10
-463.2853363120916
20
248.21281567224887
10
-463.2853363120916
20
251.21281567224884
10
-509.36866964542492
20
251.21281567224884
10
-509.36866964542492
20
256.21281567224884
10
-539.53533631209154
20
256.21281567224884
10
-539.53533631209154
20
251.21281567224884
10
-585.61866964542492
20
251.21281567224884
10
-585.61866964542492
20
248.21281567224887
10
-583.86866964542492
20
248.21281567224887
10
-583.86866964542492
20
245.71281567224887
10
-585.61866964542492
20
245.71281567224887
10
-585.61866964542492
20
243.21281567224887
10
-588.61866964542492
20
243.21281567224887
10
-588.61866964542492
20
245.71281567224887
10
-590.36866964542492
20
245.71281567224887
10
-590.36866964542492
20
248.21281567224887
10
-588.61866964542492
20
248.21281567224887
10
-588.61866964542492
20
251.21281567224884
0
LWPOLYLINE
5
153
100
AcDbEntity
8
0
100
AcDbPolyline
90
4
70
1
43
0.0
10
-549.17375073954179
20
464.51989905545065
10
-552.14526017704543
20
464.51989905545071
42
-0.15592164723110058
10
-541.44006297631699
20
474.01408406233554
10
-541.44006297631699
20
471.24821960245896
42
0.12390770581098147
0
LWPOLYLINE
5
154
100
AcDbEntity
8
0
100
AcDbPolyline
90
4
70
1
43
0.0
10
-541.44006297631677
20
433.79157800180292
10
-541.44006297631665
20
431.02571354192662
42
-0.15592164723109875
10
-552.14526017704532
20
440.51989854881123
10
-549.17375073954167
20
440.51989854881117
42
0.12390770581097943
0
LWPOLYLINE
5
155
100
AcDbEntity
8
0
100
AcDbPolyline
90
4
70
1
43
0.0
10
-522.44006297631699
20
471.24821960245913
10
-522.44006297631688
20
474.01408406233594
42
-0.15592164723109911
10
-511.73486577558845
20
464.51989905545082
10
-514.7063752130922
20
464.51989905545082
42
0.12390770581097937
0
LWPOLYLINE
5
156
100
AcDbEntity
8
0
100
AcDbPolyline
90
4
70
1
43
0.0
10
-522.44006297631677
20
431.02571354192651
42
0.15592164723109644
10
-511.73486577558833
20
440.51989854881151
10
-514.70637521309197
20
440.51989854881128
42
-0.12390770581097754
10
-522.44006297631677
20
433.79157800180292
0
CIRCLE
5
157
100
AcDbEntity
8
0
100
AcDbCircle
10
-574.14450249737774
20
432.46720711967447
30
0
40
1.3499999999999992
210
0
220
-0
230
1
0
CIRCLE
5
158
100
AcDbEntity
8
0
100
AcDbCircle
10
-516.14450249737774
20
432.46720711967487
30
0
40
1.3499999999999992
210
0
220
-0
230
1
0
CIRCLE
5
159
100
AcDbEntity
8
0
100
AcDbCircle
10
-516.14450249737752
20
383.46720711967492
30
0
40
1.349999999999997
210
0
220
-0
230
1
0
LINE
5
160
100
AcDbEntity
8
0
100
AcDbLine
10
-524.31802982666306
20
465.2088060748822
30
0
11
-520.4399106714734
21
465.2088060748822
31
0
0
ELLIPSE
5
161
100
AcDbEntity
8
0
100
AcDbEllipse
10
-520.44021530436089
20
464.20865374683842
30
0
11
0.70732218916977507
21
0.70732218916938372
31
0.0
40
0.9996954598818879
41
5.4979394370299826
42
7.0684311773298329
0
LINE
5
162
100
AcDbEntity
8
0
100
AcDbLine
10
-519.44006297631699
20
464.20895837972586
30
0
11
-519.44006297631677
21
440.83083922453625
31
0
0
ELLIPSE
5
163
100
AcDbEntity
8
0
100
AcDbEllipse
10
-520.44021530436066
20
440.83114385742374
30
0
11
0.70732218916978284
21
-0.70732218916937639
31
0.0
40
0.9996954598818879
41
5.4979394370294203
42
7.0684311773291695
0
LINE
5
164
100
AcDbEntity
8
0
100
AcDbLine
10
-520.43991067147317
20
439.83099152937984
30
0
11
-524.31802982666295
21
439.83099152937984
31
0
0
ELLIPSE
5
165
100
AcDbEntity
8
0
100
AcDbEllipse
10
-524.31772519377546
20
440.83114385742374
30
0
11
0.70732218916977507
21
0.70732218916938372
31
0.0
40
0.9996954598818879
41
2.3563467834402552
42
3.9268385237399341
0
LINE
5
166
100
AcDbEntity
8
0
100
AcDbLine
10
-525.31787752181936
20
440.83083922453625
30
0
11
-525.31787752181936
21
464.20895837972591
31
0
0
ELLIPSE
5
167
100
AcDbEntity
8
0
100
AcDbEllipse
10
-524.31772519377557
20
464.20865374683837
30
0
11
0.70732218916968248
21
-0.70732218916947787
31
0.0
40
0.99969545988188724
41
2.356346783439788
42
3.9268385237394567
0
LWPOLYLINE
5
168
100
AcDbEntity
8
0
100
AcDbPolyline
90
132
70
1
43
0.0
10
-602.19006297631631
20
377.26989880213068
10
-607.19006297631631
20
377.26989880213068
10
-607.19006297631631
20
372.26989880213068
10
-590.35672964298305
20
372.26989880213074
10
-590.35672964298305
20
377.26989880213074
10
-576.85672964298317
20
377.2698988021308
10
-576.85672964298317
20
380.26989880213085
10
-578.60672964298317
20
380.26989880213085
10
-578.60672964298317
20
382.76989880213085
10
-576.85672964298317
20
382.7698988021308
10
-576.85672964298317
20
385.2698988021308
10
-573.85672964298328
20
385.2698988021308
10
-573.85672964298317
20
382.76989880213085
10
-572.10672964298317
20
382.76989880213085
10
-572.10672964298317
20
380.26989880213085
10
-573.85672964298317
20
380.26989880213085
10
-573.85672964298317
20
377.2698988021308
10
-560.35672964298317
20
377.26989880213091
10
-560.35672964298317
20
372.26989880213097
10
-543.5233963096498
20
372.26989880213102
10
-543.5233963096498
20
377.26989880213102
10
-530.0233963096498
20
377.26989880213114
10
-530.0233963096498
20
380.26989880213114
10
-531.7733963096498
20
380.26989880213108
10
-531.77339630965389
20
382.76989880213114
10
-530.02339630964991
20
382.76989880213108
10
-530.0233963096498
20
385.26989880213102
10
-527.0233963096498
20
385.26989880213108
10
-527.0233963096498
20
382.76989880213114
10
-525.27339630965048
20
382.76989880213114
10
-525.2733963096498
20
380.26989880213114
10
-527.0233963096498
20
380.26989880213114
10
-527.0233963096498
20
377.26989880213114
10
-513.5233963096498
20
377.26989880213119
10
-513.5233963096498
20
372.26989880213119
10
-496.69006297631654
20
372.26989880213131
10
-496.69006297631665
20
402.43656546879788
10
-501.69006297631665
20
402.43656546879788
10
-501.69006297631677
20
418.43656546879794
10
-504.69006297631671
20
418.43656546879788
10
-504.69006297631671
20
416.68656546879788
10
-507.19006297631671
20
416.6865654688317
10
-507.19006297631671
20
418.43656546879788
10
-509.69006297631671
20
418.43656546879788
10
-509.69006297631671
20
421.43656546879782
10
-507.19006297631671
20
421.43656546879782
10
-507.19006297631671
20
423.18656546879754
10
-504.69006297631677
20
423.18656546879754
10
-504.69006297631677
20
421.43656546879799
10
-501.69006297631677
20
421.43656546879788
10
-501.69006297631682
20
437.43656546879788
10
-496.69006297631688
20
437.43656546879788
10
-496.69006297631705
20
467.60323213546451
10
-501.69006297631705
20
467.60323213546457
10
-501.69006297631711
20
483.60323213546445
10
-504.69006297631711
20
483.60323213546445
10
-504.69006297631711
20
481.85323213547599
10
-507.19006297631711
20
481.85323213547713
10
-507.19006297631711
20
483.60323213546445
10
-509.69006297631711
20
483.60323213546445
10
-509.69006297631711
20
486.60323213546434
10
-507.19006297631711
20
486.6032321354644
10
-507.19006297631711
20
488.35323213546559
10
-504.69006297631711
20
488.35323213546519
10
-504.69006297631711
20
486.60323213546451
10
-501.69006297631711
20
486.60323213546451
10
-501.69006297631717
20
502.60323213546451
10
-496.69006297631717
20
502.6032321354644
10
-496.69006297631734
20
532.76989880213114
10
-513.52339630965071
20
532.76989880213102
10
-513.52339630965071
20
527.76989880213114
10
-527.02339630965059
20
527.76989880213102
10
-527.02339630965059
20
524.76989880213091
10
-525.27339630965059
20
524.76989880213091
10
-525.27339630965059
20
522.26989880213091
10
-527.02339630965059
20
522.26989880213091
10
-527.02339630965059
20
519.76989880213102
10
-530.02339630965048
20
519.76989880213091
10
-530.02339630965048
20
522.26989880213091
10
-531.77339630965059
20
522.26989880213091
10
-531.77339630965071
20
524.76989880213091
10
-530.02339630965071
20
524.76989880213091
10
-530.02339630965059
20
527.76989880213091
10
-543.52339630965071
20
527.76989880213091
10
-543.52339630965059
20
532.76989880213091
10
-560.35672964298396
20
532.7698988021308
10
-560.35672964298396
20
527.7698988021308
10
-573.85672964298396
20
527.76989880213068
10
-573.85672964298396
20
524.7698988021308
10
-572.10672964298396
20
524.76989880213068
10
-572.10672964298385
20
522.26989880213068
10
-573.85672964298385
20
522.26989880213068
10
-573.85672964298396
20
519.76989880213068
10
-576.85672964298385
20
519.76989880213068
10
-576.85672964298396
20
522.26989880213068
10
-578.60672964298385
20
522.26989880213068
10
-578.60672964298385
20
524.76989880213068
10
-576.85672964298396
20
524.76989880213068
10
-576.85672964298396
20
527.76989880213068
10
-590.35672964298396
20
527.76989880213057
10
-590.35672964298396
20
532.76989880213068
10
-607.19006297631722
20
532.76989880213057
10
-607.19006297631722
20
527.76989880213046
10
-602.19006297631722
20
527.76989880213046
10
-602.19006297631711
20
516.6865654687972
10
-599.19006297631722
20
516.6865654687972
10
-599.19006297631722
20
518.4365654687972
10
-596.69006297631722
20
518.43656546879731
10
-596.69006297631722
20
516.68656546879731
10
-594.19006297631722
20
516.68656546879731
10
-594.19006297631722
20
513.68656546879731
10
-596.69006297631711
20
513.68656546879731
10
-596.69006297631711
20
511.9365654687972
10
-599.19006297631711
20
511.9365654687972
10
-599.19006297631711
20
513.6865654687972
10
-602.19006297631711
20
513.6865654687972
10
-602.19006297631688
20
467.60323213546394
10
-607.19006297631699
20
467.603232135464
10
-607.19006297631677
20
437.43656546879743
10
-602.19006297631677
20
437.43656546879731
10
-602.19006297631654
20
391.353232135464
10
-599.19006297631654
20
391.353232135464
10
-599.19006297631654
20
393.10323213546405
10
-596.69006297631654
20
393.10323213546411
10
-596.69006297631654
20
391.35323213546417
10
-594.19006297631654
20
391.35323213546405
10
-594.19006297631654
20
388.35323213546417
10
-596.69006297631654
20
388.35323213546417
10
-596.69006297631654
20
386.60323213546405
10
-599.19006297631654
20
386.60323213546405
10
-599.19006297631654
20
388.35323213546405
10
-602.19006297631654
20
388.35323213546405
0
LWPOLYLINE
5
169
100
AcDbEntity
8
0
100
AcDbPolyline
90
4
70
1
43
0.0
10
-447.74129996615966
20
439.45731011369566
10
-463.74129996615966
20
439.45731011369566
10
-463.74129996615966
20
465.45731011369554
10
-447.74129996615966
20
465.4573101136956
0
LWPOLYLINE
5
170
100
AcDbEntity
8
0
100
AcDbPolyline
90
28
70
1
43
0.0
10
-428.24129996615966
20
529.00134620630786
10
-428.24129996615966
20
534.00134620630786
10
-463.24129996615966
20
534.00134620630786
10
-463.24129996615966
20
529.00134620630786
10
-478.24129996615977
20
529.00134620630786
10
-478.24129996615977
20
503.83467953964129
10
-473.24129996615977
20
503.83467953964134
10
-473.24129996615977
20
468.83467953964146
10
-478.24129996615977
20
468.83467953964151
10
-478.24129996615977
20
438.66801287297494
10
-473.24129996615977
20
438.66801287297483
10
-473.24129996615977
20
403.66801287297494
10
-478.24129996615977
20
403.668012872975
10
-478.24129996615977
20
378.50134620630843
10
-463.24129996615966
20
378.50134620630848
10
-463.24129996615966
20
373.50134620630848
10
-428.24129996615966
20
373.50134620630831
10
-428.24129996615966
20
378.50134620630848
10
-413.24129996615966
20
378.50134620630848
10
-413.24129996615966
20
403.66801287297505
10
-408.24129996615966
20
403.668012872975
10
-408.24129996615966
20
438.66801287297494
10
-413.24129996615966
20
438.66801287297483
10
-413.24129996615966
20
468.83467953964146
10
-408.24129996615966
20
468.83467953964151
10
-408.24129996615966
20
503.83467953964146
10
-413.24129996615966
20
503.83467953964134
10
-413.24129996615966
20
529.00134620630797
0
CIRCLE
5
171
100
AcDbEntity
8
0
100
AcDbCircle
10
-410.74129996615966
20
486.33467953964134
30
0
40
1.4999999999999947
210
0
220
-0
230
1
0
CIRCLE
5
172
100
AcDbEntity
8
0
100
AcDbCircle
10
-410.74129996615966
20
421.168012872975
30
0
40
1.4999999999999947
210
0
220
-0
230
1
0
CIRCLE
5
173
100
AcDbEntity
8
0
100
AcDbCircle
10
-442.49129996615977
20
465.5013462063082
30
0
40
0.99999999999999201
210
0
220
-0
230
1
0
CIRCLE
5
174
100
AcDbEntity
8
0
100
AcDbCircle
10
-466.24129996615966
20
465.5013462063082
30
0
40
0.99999999999999645
210
0
220
-0
230
1
0
CIRCLE
5
175
100
AcDbEntity
8
0
100
AcDbCircle
10
-442.49129996615977
20
442.00134620630814
30
0
40
1.0000000000000142
210
0
220
-0
230
1
0
CIRCLE
5
176
100
AcDbEntity
8
0
100
AcDbCircle
10
-466.24129996615966
20
442.00134620630814
30
0
40
0.99999999999999423
210
0
220
-0
230
1
0
CIRCLE
5
177
100
AcDbEntity
8
0
100
AcDbCircle
10
-445.74130500275214
20
376.00134620630848
30
0
40
1.5000000000000302
210
0
220
-0
230
1
0
CIRCLE
5
178
100
AcDbEntity
8
0
100
AcDbCircle
10
-445.74129996615966
20
531.50134620630786
30
0
40
1.5000000000000213
210
0
220
-0
230
1
0
LWPOLYLINE
5
179
100
AcDbEntity
8
0
100
AcDbPolyline
90
4
70
1
43
0.0
10
-372.74129996615966
20
439.45731011369571
10
-388.74129996615966
20
439.45731011369571
10
-388.74129996615966
20
465.4573101136956
10
-372.74129996615966
20
465.45731011369571
0
LWPOLYLINE
5
180
100
AcDbEntity
8
0
100
AcDbPolyline
90
28
70
1
43
0.0
10
-353.24129996615966
20
529.00134620630797
10
-353.24129996615966
20
534.00134620630797
10
-388.24129996615966
20
534.00134620630797
10
-388.24129996615966
20
529.00134620630797
10
-403.24129996615977
20
529.00134620630797
10
-403.24129996615977
20
503.83467953964134
10
-398.24129996615977
20
503.83467953964146
10
-398.24129996615977
20
468.83467953964157
10
-403.24129996615977
20
468.83467953964157
10
-403.24129996615977
20
438.668012872975
10
-398.24129996615977
20
438.66801287297494
10
-398.24129996615977
20
403.66801287297505
10
-403.24129996615977
20
403.66801287297505
10
-403.24129996615977
20
378.50134620630848
10
-388.24129996615966
20
378.50134620630854
10
-388.24129996615966
20
373.50134620630854
10
-353.24129996615966
20
373.50134620630843
10
-353.24129996615966
20
378.50134620630854
10
-338.24129996615966
20
378.50134620630854
10
-338.24129996615966
20
403.66801287297511
10
-333.24129996615966
20
403.66801287297505
10
-333.24129996615966
20
438.66801287297494
10
-338.24129996615966
20
438.66801287297494
10
-338.24129996615966
20
468.83467953964151
10
-333.24129996615966
20
468.83467953964157
10
-333.24129996615966
20
503.83467953964146
10
-338.24129996615966
20
503.83467953964146
10
-338.24129996615966
20
529.00134620630797
0
CIRCLE
5
181
100
AcDbEntity
8
0
100
AcDbCircle
10
-335.74129996615966
20
486.33467953964146
30
0
40
1.4999999999999947
210
0
220
-0
230
1
0
CIRCLE
5
182
100
AcDbEntity
8
0
100
AcDbCircle
10
-335.74129996615966
20
421.16801287297505
30
0
40
1.4999999999999947
210
0
220
-0
230
1
0
CIRCLE
5
183
100
AcDbEntity
8
0
100
AcDbCircle
10
-367.49129996615977
20
465.50134620630831
30
0
40
0.99999999999999201
210
0
220
-0
230
1
0
CIRCLE
5
184
100
AcDbEntity
8
0
100
AcDbCircle
10
-391.24129996615966
20
465.50134620630831
30
0
40
0.99999999999999645
210
0
220
-0
230
1
0
CIRCLE
5
185
100
AcDbEntity
8
0
100
AcDbCircle
10
-367.49129996615977
20
442.0013462063082
30
0
40
1.0000000000000142
210
0
220
-0
230
1
0
CIRCLE
5
186
100
AcDbEntity
8
0
100
AcDbCircle
10
-391.24129996615966
20
442.0013462063082
30
0
40
0.99999999999999423
210
0
220
-0
230
1
0
CIRCLE
5
187
100
AcDbEntity
8
0
100
AcDbCircle
10
-370.74130500275214
20
376.00134620630854
30
0
40
1.5000000000000302
210
0
220
-0
230
1
0
CIRCLE
5
188
100
AcDbEntity
8
0
100
AcDbCircle
10
-370.74129996615966
20
531.50134620630797
30
0
40
1.5000000000000213
210
0
220
-0
230
1
0
LWPOLYLINE
5
189
100
AcDbEntity
8
0
100
AcDbPolyline
90
4
70
1
43
0.0
10
-300.74129996615972
20
439.45731011369679
10
-316.74129996615966
20
439.45731011369679
10
-316.74129996615966
20
465.45731011369668
10
-300.74129996615966
20
465.45731011369674
0
LWPOLYLINE
5
190
100
AcDbEntity
8
0
100
AcDbPolyline
90
28
70
1
43
0.0
10
-281.24129996615966
20
529.00134620630911
10
-281.24129996615966
20
534.00134620630911
10
-316.24129996615966
20
534.00134620630911
10
-316.24129996615966
20
529.00134620630911
10
-331.24129996615977
20
529.00134620630911
10
-331.24129996615977
20
503.83467953964259
10
-326.24129996615977
20
503.83467953964248
10
-326.24129996615977
20
468.83467953964259
10
-331.24129996615977
20
468.83467953964265
10
-331.24129996615977
20
438.66801287297608
10
-326.24129996615977
20
438.66801287297596
10
-326.24129996615977
20
403.66801287297608
10
-331.24129996615977
20
403.66801287297596
10
-331.24129996615977
20
378.50134620630939
10
-316.24129996615966
20
378.50134620630945
10
-316.24129996615966
20
373.50134620630945
10
-281.24129996615966
20
373.50134620630934
10
-281.24129996615966
20
378.50134620630945
10
-266.24129996615966
20
378.50134620630945
10
-266.24129996615966
20
403.66801287297608
10
-261.24129996615966
20
403.66801287297596
10
-261.24129996615966
20
438.66801287297591
10
-266.24129996615966
20
438.66801287297596
10
-266.24129996615966
20
468.83467953964259
10
-261.24129996615966
20
468.83467953964265
10
-261.24129996615966
20
503.83467953964259
10
-266.24129996615966
20
503.83467953964248
10
-266.24129996615966
20
529.00134620630911
0
CIRCLE
5
191
100
AcDbEntity
8
0
100
AcDbCircle
10
-263.74129996615966
20
486.33467953964248
30
0
40
1.4999999999999947
210
0
220
-0
230
1
0
CIRCLE
5
192
100
AcDbEntity
8
0
100
AcDbCircle
10
-263.74129996615966
20
421.16801287297596
30
0
40
1.4999999999999947
210
0
220
-0
230
1
0
CIRCLE
5
193
100
AcDbEntity
8
0
100
AcDbCircle
10
-295.49129996615977
20
465.50134620630934
30
0
40
0.99999999999999201
210
0
220
-0
230
1
0
CIRCLE
5
194
100
AcDbEntity
8
0
100
AcDbCircle
10
-319.2412999661596
20
465.50134620630934
30
0
40
0.99999999999999645
210
0
220
-0
230
1
0
CIRCLE
5
195
100
AcDbEntity
8
0
100
AcDbCircle
10
-295.49129996615977
20
442.00134620630928
30
0
40
1.0000000000000142
210
0
220
-0
230
1
0
CIRCLE
5
196
100
AcDbEntity
8
0
100
AcDbCircle
10
-319.24129996615966
20
442.00134620630928
30
0
40
0.99999999999999423
210
0
220
-0
230
1
0
CIRCLE
5
197
100
AcDbEntity
8
0
100
AcDbCircle
10
-298.7413050027522
20
376.00134620630945
30
0
40
1.5000000000000302
210
0
220
-0
230
1
0
CIRCLE
5
198
100
AcDbEntity
8
0
100
AcDbCircle
10
-298.74129996615966
20
531.50134620630911
30
0
40
1.5000000000000213
210
0
220
-0
230
1
0
LWPOLYLINE
5
199
100
AcDbEntity
8
0
100
AcDbPolyline
90
4
70
1
43
0.0
10
-228.74129996615963
20
439.45731011369821
10
-244.74129996615957
20
439.45731011369821
10
-244.74129996615957
20
465.45731011369816
10
-228.74129996615963
20
465.45731011369816
0
LWPOLYLINE
5
200
100
AcDbEntity
8
0
100
AcDbPolyline
90
28
70
1
43
0.0
10
-209.2412999661596
20
529.0013462063107
10
-209.2412999661596
20
534.0013462063107
10
-244.2412999661596
20
534.0013462063107
10
-244.2412999661596
20
529.0013462063107
10
-259.24129996615977
20
529.0013462063107
10
-259.24129996615972
20
503.83467953964407
10
-254.24129996615974
20
503.83467953964407
10
-254.24129996615974
20
468.83467953964407
10
-259.24129996615977
20
468.83467953964407
10
-259.24129996615977
20
438.66801287297739
10
-254.24129996615974
20
438.66801287297739
10
-254.24129996615974
20
403.66801287297739
10
-259.24129996615977
20
403.66801287297739
10
-259.24129996615977
20
378.50134620631076
10
-244.2412999661596
20
378.50134620631076
10
-244.2412999661596
20
373.50134620631076
10
-209.2412999661596
20
373.50134620631059
10
-209.2412999661596
20
378.50134620631076
10
-194.2412999661596
20
378.50134620631076
10
-194.2412999661596
20
403.66801287297739
10
-189.2412999661596
20
403.66801287297739
10
-189.2412999661596
20
438.66801287297739
10
-194.2412999661596
20
438.66801287297739
10
-194.2412999661596
20
468.83467953964407
10
-189.2412999661596
20
468.83467953964407
10
-189.2412999661596
20
503.83467953964407
10
-194.2412999661596
20
503.83467953964407
10
-194.2412999661596
20
529.0013462063107
0
CIRCLE
5
201
100
AcDbEntity
8
0
100
AcDbCircle
10
-191.7412999661596
20
486.33467953964407
30
0
40
1.4999999999999947
210
0
220
-0
230
1
0
CIRCLE
5
202
100
AcDbEntity
8
0
100
AcDbCircle
10
-191.7412999661596
20
421.16801287297739
30
0
40
1.4999999999999947
210
0
220
-0
230
1
0
CIRCLE
5
203
100
AcDbEntity
8
0
100
AcDbCircle
10
-223.49129996615972
20
465.50134620631076
30
0
40
0.99999999999999201
210
0
220
-0
230
1
0
CIRCLE
5
204
100
AcDbEntity
8
0
100
AcDbCircle
10
-247.24129996615957
20
465.50134620631076
30
0
40
0.99999999999999645
210
0
220
-0
230
1
0
CIRCLE
5
205
100
AcDbEntity
8
0
100
AcDbCircle
10
-223.49129996615972
20
442.0013462063107
30
0
40
1.0000000000000142
210
0
220
-0
230
1
0
CIRCLE
5
206
100
AcDbEntity
8
0
100
AcDbCircle
10
-247.24129996615957
20
442.0013462063107
30
0
40
0.99999999999999423
210
0
220
-0
230
1
0
CIRCLE
5
207
100
AcDbEntity
8
0
100
AcDbCircle
10
-226.74130500275211
20
376.00134620631076
30
0
40
1.5000000000000302
210
0
220
-0
230
1
0
CIRCLE
5
208
100
AcDbEntity
8
0
100
AcDbCircle
10
-226.7412999661596
20
531.5013462063107
30
0
40
1.5000000000000213
210
0
220
-0
230
1
0
LWPOLYLINE
5
209
100
AcDbEntity
8
0
100
AcDbPolyline
90
4
70
1
43
0.0
10
-156.74129996615952
20
439.45731011369821
10
-172.74129996615949
20
439.45731011369821
10
-172.74129996615949
20
465.45731011369816
10
-156.74129996615954
20
465.45731011369816
0
LWPOLYLINE
5
210
100
AcDbEntity
8
0
100
AcDbPolyline
90
28
70
1
43
0.0
10
-137.24129996615949
20
529.0013462063107
10
-137.24129996615949
20
534.0013462063107
10
-172.24129996615949
20
534.0013462063107
10
-172.24129996615949
20
529.0013462063107
10
-187.24129996615966
20
529.0013462063107
10
-187.2412999661596
20
503.83467953964407
10
-182.24129996615966
20
503.83467953964407
10
-182.24129996615966
20
468.83467953964407
10
-187.24129996615966
20
468.83467953964407
10
-187.24129996615966
20
438.66801287297739
10
-182.24129996615966
20
438.66801287297739
10
-182.24129996615966
20
403.66801287297739
10
-187.24129996615966
20
403.66801287297739
10
-187.24129996615966
20
378.50134620631076
10
-172.24129996615949
20
378.50134620631076
10
-172.24129996615949
20
373.50134620631076
10
-137.24129996615949
20
373.50134620631059
10
-137.24129996615949
20
378.50134620631076
10
-122.2412999661595
20
378.50134620631076
10
-122.2412999661595
20
403.66801287297739
10
-117.2412999661595
20
403.66801287297739
10
-117.2412999661595
20
438.66801287297739
10
-122.24129996615949
20
438.66801287297739
10
-122.24129996615949
20
468.83467953964407
10
-117.24129996615949
20
468.83467953964407
10
-117.24129996615949
20
503.83467953964407
10
-122.24129996615949
20
503.83467953964407
10
-122.24129996615949
20
529.0013462063107
0
CIRCLE
5
211
100
AcDbEntity
8
0
100
AcDbCircle
10
-119.74129996615949
20
486.33467953964407
30
0
40
1.4999999999999947
210
0
220
-0
230
1
0
CIRCLE
5
212
100
AcDbEntity
8
0
100
AcDbCircle
10
-119.7412999661595
20
421.16801287297739
30
0
40
1.4999999999999947
210
0
220
-0
230
1
0
CIRCLE
5
213
100
AcDbEntity
8
0
100
AcDbCircle
10
-151.4912999661596
20
465.50134620631076
30
0
40
0.99999999999999201
210
0
220
-0
230
1
0
CIRCLE
5
214
100
AcDbEntity
8
0
100
AcDbCircle
10
-175.24129996615949
20
465.50134620631076
30
0
40
0.99999999999999645
210
0
220
-0
230
1
0
CIRCLE
5
215
100
AcDbEntity
8
0
100
AcDbCircle
10
-151.4912999661596
20
442.0013462063107
30
0
40
1.0000000000000142
210
0
220
-0
230
1
0
CIRCLE
5
216
100
AcDbEntity
8
0
100
AcDbCircle
10
-175.24129996615949
20
442.0013462063107
30
0
40
0.99999999999999423
210
0
220
-0
230
1
0
CIRCLE
5
217
100
AcDbEntity
8
0
100
AcDbCircle
10
-154.74130500275203
20
376.00134620631076
30
0
40
1.5000000000000302
210
0
220
-0
230
1
0
CIRCLE
5
218
100
AcDbEntity
8
0
100
AcDbCircle
10
-154.74129996615949
20
531.5013462063107
30
0
40
1.5000000000000213
210
0
220
-0
230
1
0
LWPOLYLINE
5
219
100
AcDbEntity
8
0
100
AcDbPolyline
90
4
70
1
43
0.0
10
-185.45200272543889
20
313.19650343547369
10
-185.45200272543889
20
316.16801287297727
42
-0.15592164723109991
10
-175.95781771855394
20
305.46281567224878
10
-178.72368217843061
20
305.46281567224878
42
0.12390770581098028
0
LWPOLYLINE
5
220
100
AcDbEntity
8
0
100
AcDbPolyline
90
4
70
1
43
0.0
10
-216.18032377908665
20
305.46281567224878
10
-218.9461882389632
20
305.46281567224878
42
-0.15592164723109783
10
-209.4520032320784
20
316.16801287297722
10
-209.45200323207837
20
313.19650343547369
42
0.12390770581097943
0
LWPOLYLINE
5
221
100
AcDbEntity
8
0
100
AcDbPolyline
90
4
70
1
43
0.0
10
-178.72368217843061
20
286.46281567224878
10
-175.95781771855388
20
286.46281567224872
42
-0.155921647231099
10
-185.45200272543889
20
275.75761847152029
10
-185.45200272543889
20
278.72912790902399
42
0.12390770581097955
0
LWPOLYLINE
5
222
100
AcDbEntity
8
0
100
AcDbPolyline
90
4
70
1
43
0.0
10
-218.94618823896332
20
286.46281567224878
42
0.15592164723109819
10
-209.45200323207837
20
275.75761847152029
10
-209.45200323207843
20
278.72912790902393
42
-0.12390770581097857
10
-216.18032377908665
20
286.46281567224878
0
CIRCLE
5
223
100
AcDbEntity
8
0
100
AcDbCircle
10
-217.50469466121496
20
338.16725519330976
30
0
40
1.3499999999999999
210
-0
220
0
230
1
0
CIRCLE
5
224
100
AcDbEntity
8
0
100
AcDbCircle
10
-217.50469466121484
20
280.16725519330976
30
0
40
1.3499999999999999
210
-0
220
0
230
1
0
CIRCLE
5
225
100
AcDbEntity
8
0
100
AcDbCircle
10
-266.50469466121484
20
280.1672551933097
30
0
40
1.3499999999999976
210
-0
220
0
230
1
0
LINE
5
226
100
AcDbEntity
8
0
100
AcDbLine
10
-184.76309570600736
20
288.34078252259485
30
0
11
-184.76309570600736
21
284.46266336740518
31
0
0
ELLIPSE
5
227
100
AcDbEntity
8
0
100
AcDbEllipse
10
-185.76324803405129
20
284.46296800029268
30
0
11
0.70732218916938083
21
-0.70732218916977918
31
0.0
40
0.9996954598818879
41
5.4979394370300332
42
7.0684311773297823
0
LINE
5
228
100
AcDbEntity
8
0
100
AcDbLine
10
-185.76294340116377
20
283.46281567224884
30
0
11
-209.14106255635346
21
283.46281567224878
31
0
0
ELLIPSE
5
229
100
AcDbEntity
8
0
100
AcDbEllipse
10
-209.14075792346594
20
284.46296800029268
30
0
11
-0.70732218916938083
21
-0.70732218916977918
31
0.0
40
0.9996954598818879
41
5.4979394370294408
42
7.0684311773292094
0
LINE
5
230
100
AcDbEntity
8
0
100
AcDbLine
10
-210.14091025150981
20
284.46266336740513
30
0
11
-210.14091025150987
21
288.34078252259485
31
0
0
ELLIPSE
5
231
100
AcDbEntity
8
0
100
AcDbEllipse
10
-209.14075792346594
20
288.34047788970736
30
0
11
0.70732218916938083
21
-0.70732218916977918
31
0.0
40
0.9996954598818879
41
2.3563467834402303
42
3.926838523739979
0
LINE
5
232
100
AcDbEntity
8
0
100
AcDbLine
10
-209.14106255635346
20
289.34063021775125
30
0
11
-185.76294340116377
21
289.34063021775125
31
0
0
ELLIPSE
5
233
100
AcDbEntity
8
0
100
AcDbEllipse
10
-185.76324803405129
20
288.34047788970736
30
0
11
-0.70732218916948253
21
-0.70732218916967915
31
0.0
40
0.99969545988188702
41
2.3563467834397778
42
3.9268385237395069
0
LWPOLYLINE
5
234
100
AcDbEntity
8
0
100
AcDbPolyline
90
132
70
1
43
0.0
10
-272.70200297875863
20
366.21281567224867
10
-272.70200297875863
20
371.21281567224867
10
-277.70200297875863
20
371.21281567224867
10
-277.70200297875863
20
354.37948233891541
10
-272.70200297875863
20
354.37948233891547
10
-272.70200297875863
20
340.87948233891547
10
-269.70200297875869
20
340.87948233891541
10
-269.70200297875863
20
342.62948233891535
10
-267.20200297875863
20
342.62948233891541
10
-267.20200297875863
20
340.87948233891547
10
-264.70200297875863
20
340.87948233891541
10
-264.70200297875863
20
337.87948233891541
10
-267.20200297875863
20
337.87948233891541
10
-267.20200297875863
20
336.12948233891541
10
-269.70200297875863
20
336.12948233891541
10
-269.70200297875863
20
337.87948233891541
10
-272.70200297875863
20
337.87948233891541
10
-272.70200297875869
20
324.37948233891547
10
-277.70200297875863
20
324.37948233891547
10
-277.70200297875863
20
307.54614900558215
10
-272.70200297875863
20
307.54614900558215
10
-272.70200297875863
20
294.04614900558209
10
-269.70200297875863
20
294.04614900558209
10
-269.70200297875863
20
295.79614900558215
10
-267.20200297875857
20
295.79614900558619
10
-267.20200297875857
20
294.04614900558209
10
-264.70200297875863
20
294.04614900558209
10
-264.70200297875863
20
291.04614900558209
10
-267.20200297875857
20
291.04614900558209
10
-267.20200297875857
20
289.29614900558278
10
-269.70200297875863
20
289.29614900558209
10
-269.70200297875863
20
291.04614900558209
10
-272.70200297875863
20
291.04614900558209
10
-272.70200297875863
20
277.54614900558209
10
-277.70200297875863
20
277.54614900558209
10
-277.70200297875863
20
260.71281567224878
10
-247.53533631209194
20
260.71281567224878
10
-247.53533631209194
20
265.71281567224878
10
-231.53533631209194
20
265.71281567224878
10
-231.53533631209194
20
268.71281567224878
10
-233.28533631209194
20
268.71281567224878
10
-233.28533631205812
20
271.21281567224878
10
-231.53533631209194
20
271.21281567224878
10
-231.53533631209194
20
273.71281567224878
10
-228.53533631209191
20
273.71281567224878
10
-228.53533631209191
20
271.21281567224878
10
-226.78533631209231
20
271.21281567224878
10
-226.78533631209234
20
268.71281567224878
10
-228.53533631209191
20
268.71281567224878
10
-228.53533631209191
20
265.71281567224878
10
-212.53533631209191
20
265.71281567224878
10
-212.53533631209191
20
260.71281567224878
10
-182.36866964542526
20
260.71281567224878
10
-182.36866964542529
20
265.71281567224878
10
-166.36866964542531
20
265.71281567224878
10
-166.36866964542531
20
268.71281567224878
10
-168.11866964541377
20
268.71281567224878
10
-168.11866964541258
20
271.21281567224878
10
-166.36866964542531
20
271.21281567224878
10
-166.36866964542531
20
273.71281567224878
10
-163.36866964542531
20
273.71281567224878
10
-163.36866964542531
20
271.21281567224878
10
-161.61866964542418
20
271.21281567224878
10
-161.61866964542466
20
268.71281567224878
10
-163.36866964542531
20
268.71281567224878
10
-163.36866964542531
20
265.71281567224878
10
-147.36866964542529
20
265.71281567224878
10
-147.36866964542529
20
260.71281567224878
10
-117.20200297875866
20
260.71281567224878
10
-117.20200297875863
20
277.54614900558209
10
-122.20200297875863
20
277.54614900558209
10
-122.20200297875863
20
291.04614900558209
10
-125.20200297875863
20
291.04614900558209
10
-125.20200297875863
20
289.29614900558209
10
-127.70200297875867
20
289.29614900558209
10
-127.70200297875867
20
291.04614900558209
10
-130.20200297875863
20
291.04614900558209
10
-130.20200297875863
20
294.04614900558209
10
-127.70200297875867
20
294.04614900558209
10
-127.70200297875867
20
295.79614900558215
10
-125.20200297875867
20
295.79614900558215
10
-125.20200297875863
20
294.04614900558209
10
-122.20200297875863
20
294.04614900558209
10
-122.20200297875863
20
307.54614900558215
10
-117.20200297875863
20
307.54614900558215
10
-117.20200297875863
20
324.37948233891547
10
-122.20200297875863
20
324.37948233891547
10
-122.2020029787586
20
337.87948233891541
10
-125.20200297875863
20
337.87948233891541
10
-125.20200297875863
20
336.12948233891541
10
-127.70200297875863
20
336.12948233891541
10
-127.70200297875863
20
337.87948233891541
10
-130.20200297875863
20
337.87948233891541
10
-130.20200297875863
20
340.87948233891541
10
-127.70200297875863
20
340.87948233891541
10
-127.70200297875863
20
342.62948233891535
10
-125.20200297875863
20
342.62948233891541
10
-125.20200297875863
20
340.87948233891547
10
-122.2020029787586
20
340.87948233891541
10
-122.20200297875863
20
354.37948233891541
10
-117.20200297875863
20
354.37948233891547
10
-117.20200297875863
20
371.21281567224878
10
-122.20200297875863
20
371.21281567224867
10
-122.20200297875863
20
366.21281567224867
10
-133.28533631209197
20
366.21281567224867
10
-133.28533631209197
20
363.21281567224872
10
-131.53533631209197
20
363.21281567224872
10
-131.53533631209197
20
360.71281567224872
10
-133.28533631209194
20
360.71281567224872
10
-133.28533631209194
20
358.21281567224872
10
-136.28533631209197
20
358.21281567224872
10
-136.28533631209197
20
360.71281567224872
10
-138.03533631209194
20
360.71281567224872
10
-138.03533631209194
20
363.21281567224872
10
-136.28533631209197
20
363.21281567224872
10
-136.28533631209197
20
366.21281567224867
10
-182.36866964542529
20
366.21281567224867
10
-182.36866964542529
20
371.21281567224867
10
-212.53533631209194
20
371.21281567224867
10
-212.53533631209191
20
366.21281567224867
10
-258.61866964542526
20
366.21281567224867
10
-258.61866964542526
20
363.21281567224872
10
-256.86866964542526
20
363.21281567224872
10
-256.86866964542526
20
360.71281567224872
10
-258.61866964542526
20
360.71281567224872
10
-258.61866964542526
20
358.21281567224872
10
-261.61866964542526
20
358.21281567224872
10
-261.61866964542526
20
360.71281567224872
10
-263.36866964542526
20
360.71281567224872
10
-263.36866964542531
20
363.21281567224872
10
-261.61866964542531
20
363.21281567224872
10
-261.61866964542531
20
366.21281567224867
0
LWPOLYLINE
5
235
100
AcDbEntity
8
0
100
AcDbPolyline
90
4
70
1
43
0.0
10
-185.45200272543892
20
198.19650343547374
10
-185.45200272543892
20
201.16801287297736
42
-0.15592164723109991
10
-175.95781771855397
20
190.46281567224884
10
-178.72368217843061
20
190.46281567224889
42
0.12390770581098051
0
LWPOLYLINE
5
236
100
AcDbEntity
8
0
100
AcDbPolyline
90
4
70
1
43
0.0
10
-216.18032377908668
20
190.46281567224889
10
-218.94618823896326
20
190.46281567224884
42
-0.15592164723109841
10
-209.4520032320784
20
201.16801287297733
10
-209.4520032320784
20
198.19650343547374
42
0.12390770581097943
0
LWPOLYLINE
5
237
100
AcDbEntity
8
0
100
AcDbPolyline
90
4
70
1
43
0.0
10
-178.72368217843061
20
171.46281567224887
10
-175.95781771855388
20
171.46281567224887
42
-0.15592164723109922
10
-185.45200272543892
20
160.75761847152037
10
-185.45200272543892
20
163.72912790902404
42
0.12390770581097986
0
LWPOLYLINE
5
238
100
AcDbEntity
8
0
100
AcDbPolyline
90
4
70
1
43
0.0
10
-218.94618823896334
20
171.46281567224887
42
0.15592164723109819
10
-209.4520032320784
20
160.75761847152037
10
-209.4520032320784
20
163.72912790902402
42
-0.12390770581097901
10
-216.18032377908668
20
171.46281567224887
0
CIRCLE
5
239
100
AcDbEntity
8
0
100
AcDbCircle
10
-217.50469466121498
20
223.16725519330976
30
0
40
1.3499999999999996
210
0
220
0
230
1
0
CIRCLE
5
240
100
AcDbEntity
8
0
100
AcDbCircle
10
-217.50469466121487
20
165.16725519330981
30
0
40
1.3499999999999996
210
0
220
0
230
1
0
CIRCLE
5
241
100
AcDbEntity
8
0
100
AcDbCircle
10
-266.50469466121484
20
165.16725519330976
30
0
40
1.3499999999999974
210
0
220
0
230
1
0
LINE
5
242
100
AcDbEntity
8
0
100
AcDbLine
10
-184.76309570600739
20
173.34078252259496
30
0
11
-184.76309570600739
21
169.46266336740524
31
0
0
ELLIPSE
5
243
100
AcDbEntity
8
0
100
AcDbEllipse
10
-185.76324803405132
20
169.46296800029276
30
0
11
0.70732218916938061
21
-0.70732218916977918
31
0.0
40
0.99969545988188779
41
5.4979394370300145
42
7.068431177329713
0
LINE
5
244
100
AcDbEntity
8
0
100
AcDbLine
10
-185.7629434011638
20
168.46281567224889
30
0
11
-209.14106255635349
21
168.46281567224884
31
0
0
ELLIPSE
5
245
100
AcDbEntity
8
0
100
AcDbEllipse
10
-209.14075792346597
20
169.46296800029273
30
0
11
-0.70732218916938061
21
-0.70732218916977918
31
0.0
40
0.99969545988188779
41
5.4979394370294807
42
7.0684311773291997
0
LINE
5
246
100
AcDbEntity
8
0
100
AcDbLine
10
-210.14091025150987
20
169.46266336740521
30
0
11
-210.14091025150989
21
173.34078252259491
31
0
0
ELLIPSE
5
247
100
AcDbEntity
8
0
100
AcDbEllipse
10
-209.14075792346597
20
173.34047788970742
30
0
11
0.70732218916938061
21
-0.70732218916977918
31
0.0
40
0.99969545988188779
41
2.3563467834402427
42
3.9268385237399617
0
LINE
5
248
100
AcDbEntity
8
0
100
AcDbLine
10
-209.14106255635349
20
174.34063021775131
30
0
11
-185.7629434011638
21
174.34063021775131
31
0
0
ELLIPSE
5
249
100
AcDbEntity
8
0
100
AcDbEllipse
10
-185.76324803405132
20
173.34047788970742
30
0
11
-0.70732218916948197
21
-0.70732218916967904
31
0.0
40
0.99969545988188724
41
2.3563467834397778
42
3.9268385237395269
0
LWPOLYLINE
5
250
100
AcDbEntity
8
0
100
AcDbPolyline
90
132
70
1
43
0.0
10
-272.70200297875863
20
251.21281567224881
10
-272.70200297875863
20
256.21281567224878
10
-277.70200297875863
20
256.21281567224878
10
-277.70200297875863
20
239.37948233891549
10
-272.70200297875863
20
239.37948233891549
10
-272.70200297875863
20
225.87948233891549
10
-269.70200297875869
20
225.87948233891549
10
-269.70200297875863
20
227.62948233891549
10
-267.20200297875863
20
227.62948233891549
10
-267.20200297875863
20
225.87948233891549
10
-264.70200297875863
20
225.87948233891549
10
-264.70200297875863
20
222.87948233891547
10
-267.20200297875863
20
222.87948233891547
10
-267.20200297875863
20
221.12948233891552
10
-269.70200297875863
20
221.12948233891552
10
-269.70200297875863
20
222.87948233891547
10
-272.70200297875863
20
222.87948233891547
10
-272.70200297875869
20
209.37948233891549
10
-277.70200297875863
20
209.37948233891549
10
-277.70200297875863
20
192.54614900558215
10
-272.70200297875863
20
192.54614900558221
10
-272.70200297875863
20
179.04614900558218
10
-269.70200297875863
20
179.04614900558218
10
-269.70200297875863
20
180.79614900558221
10
-267.20200297875857
20
180.79614900558624
10
-267.20200297875857
20
179.04614900558218
10
-264.70200297875863
20
179.04614900558218
10
-264.70200297875863
20
176.04614900558218
10
-267.20200297875857
20
176.04614900558218
10
-267.20200297875857
20
174.29614900558283
10
-269.70200297875863
20
174.29614900558218
10
-269.70200297875863
20
176.04614900558218
10
-272.70200297875863
20
176.04614900558218
10
-272.70200297875863
20
162.54614900558215
10
-277.70200297875863
20
162.54614900558215
10
-277.70200297875863
20
145.71281567224887
10
-247.53533631209194
20
145.71281567224887
10
-247.53533631209194
20
150.71281567224887
10
-231.53533631209194
20
150.71281567224887
10
-231.53533631209194
20
153.71281567224884
10
-233.28533631209194
20
153.71281567224884
10
-233.28533631205812
20
156.21281567224884
10
-231.53533631209194
20
156.21281567224884
10
-231.53533631209194
20
158.71281567224884
10
-228.53533631209191
20
158.71281567224884
10
-228.53533631209191
20
156.21281567224884
10
-226.78533631209231
20
156.21281567224884
10
-226.78533631209234
20
153.71281567224884
10
-228.53533631209191
20
153.71281567224884
10
-228.53533631209191
20
150.71281567224887
10
-212.53533631209191
20
150.71281567224887
10
-212.53533631209194
20
145.71281567224887
10
-182.36866964542529
20
145.71281567224887
10
-182.36866964542529
20
150.71281567224887
10
-166.36866964542531
20
150.71281567224887
10
-166.36866964542531
20
153.71281567224884
10
-168.11866964541377
20
153.71281567224884
10
-168.11866964541258
20
156.21281567224884
10
-166.36866964542531
20
156.21281567224884
10
-166.36866964542531
20
158.71281567224884
10
-163.36866964542531
20
158.71281567224884
10
-163.36866964542531
20
156.21281567224884
10
-161.61866964542418
20
156.21281567224884
10
-161.61866964542466
20
153.71281567224884
10
-163.36866964542531
20
153.71281567224884
10
-163.36866964542531
20
150.71281567224887
10
-147.36866964542529
20
150.71281567224887
10
-147.36866964542529
20
145.71281567224887
10
-117.20200297875869
20
145.71281567224887
10
-117.20200297875866
20
162.54614900558215
10
-122.20200297875866
20
162.54614900558215
10
-122.20200297875866
20
176.04614900558218
10
-125.20200297875867
20
176.04614900558218
10
-125.20200297875867
20
174.29614900558218
10
-127.70200297875871
20
174.29614900558218
10
-127.70200297875871
20
176.04614900558218
10
-130.20200297875869
20
176.04614900558218
10
-130.20200297875869
20
179.04614900558218
10
-127.70200297875871
20
179.04614900558218
10
-127.70200297875871
20
180.79614900558221
10
-125.20200297875871
20
180.79614900558221
10
-125.20200297875867
20
179.04614900558218
10
-122.20200297875866
20
179.04614900558218
10
-122.20200297875866
20
192.54614900558221
10
-117.20200297875866
20
192.54614900558221
10
-117.20200297875866
20
209.37948233891552
10
-122.20200297875866
20
209.37948233891549
10
-122.20200297875863
20
222.87948233891547
10
-125.20200297875867
20
222.87948233891547
10
-125.20200297875867
20
221.12948233891547
10
-127.70200297875867
20
221.12948233891547
10
-127.70200297875867
20
222.87948233891547
10
-130.20200297875869
20
222.87948233891547
10
-130.20200297875869
20
225.87948233891549
10
-127.70200297875867
20
225.87948233891549
10
-127.70200297875867
20
227.62948233891549
10
-125.20200297875867
20
227.62948233891549
10
-125.20200297875867
20
225.87948233891549
10
-122.20200297875863
20
225.87948233891549
10
-122.20200297875866
20
239.37948233891549
10
-117.20200297875866
20
239.37948233891549
10
-117.20200297875866
20
256.21281567224878
10
-122.20200297875866
20
256.21281567224878
10
-122.20200297875866
20
251.21281567224881
10
-133.285336312092
20
251.21281567224881
10
-133.285336312092
20
248.21281567224884
10
-131.535336312092
20
248.21281567224884
10
-131.535336312092
20
245.71281567224884
10
-133.28533631209197
20
245.71281567224884
10
-133.28533631209197
20
243.21281567224884
10
-136.285336312092
20
243.21281567224884
10
-136.285336312092
20
245.71281567224884
10
-138.035336312092
20
245.71281567224884
10
-138.035336312092
20
248.21281567224884
10
-136.285336312092
20
248.21281567224884
10
-136.285336312092
20
251.21281567224881
10
-182.36866964542529
20
251.21281567224881
10
-182.36866964542529
20
256.21281567224878
10
-212.53533631209194
20
256.21281567224878
10
-212.53533631209194
20
251.21281567224881
10
-258.61866964542526
20
251.21281567224881
10
-258.61866964542526
20
248.21281567224884
10
-256.86866964542526
20
248.21281567224884
10
-256.86866964542526
20
245.71281567224884
10
-258.61866964542526
20
245.71281567224884
10
-258.61866964542526
20
243.21281567224884
10
-261.61866964542526
20
243.21281567224884
10
-261.61866964542526
20
245.71281567224884
10
-263.36866964542526
20
245.71281567224884
10
-263.36866964542531
20
248.21281567224884
10
-261.61866964542531
20
248.21281567224884
10
-261.61866964542531
20
251.21281567224881
0
LWPOLYLINE
5
251
100
AcDbEntity
8
0
100
AcDbPolyline
90
4
70
1
43
0.0
10
-350.45200272543877
20
198.19650343547374
10
-350.45200272543877
20
201.16801287297733
42
-0.15592164723110594
10
-340.95781771855394
20
190.46281567224884
10
-343.72368217843047
20
190.46281567224889
42
0.12390770581098647
0
LWPOLYLINE
5
252
100
AcDbEntity
8
0
100
AcDbPolyline
90
4
70
1
43
0.0
10
-381.18032377908662
20
190.46281567224889
10
-383.94618823896258
20
190.46281567224861
42
-0.15592164723109794
10
-374.45200323207825
20
201.1680128729773
10
-374.45200323207825
20
198.19650343547374
42
0.12390770581097948
0
LWPOLYLINE
5
253
100
AcDbEntity
8
0
100
AcDbPolyline
90
4
70
1
43
0.0
10
-343.72368217843052
20
171.46281567224887
10
-340.9578177185532
20
171.46281567224858
42
-0.15592164723109819
10
-350.45200272543872
20
160.7576184715204
10
-350.45200272543877
20
163.72912790902404
42
0.12390770581097997
0
LWPOLYLINE
5
254
100
AcDbEntity
8
0
100
AcDbPolyline
90
4
70
1
43
0.0
10
-383.94618823896315
20
171.46281567224887
42
0.15592164723109142
10
-374.45200323207825
20
160.75761847152037
10
-374.45200323207825
20
163.72912790902402
42
-0.1239077058109736
10
-381.18032377908662
20
171.46281567224887
0
CIRCLE
5
255
100
AcDbEntity
8
0
100
AcDbCircle
10
-382.5046946612149
20
223.16725519330976
30
0
40
1.3499999999999996
210
0
220
0
230
1
0
CIRCLE
5
256
100
AcDbEntity
8
0
100
AcDbCircle
10
-382.50469466121478
20
165.16725519330981
30
0
40
1.3499999999999996
210
0
220
0
230
1
0
CIRCLE
5
257
100
AcDbEntity
8
0
100
AcDbCircle
10
-431.50469466121478
20
165.16725519330976
30
0
40
1.3499999999999974
210
0
220
0
230
1
0
LINE
5
258
100
AcDbEntity
8
0
100
AcDbLine
10
-349.76309570600733
20
173.34078252259496
30
0
11
-349.76309570600733
21
169.46266336740524
31
0
0
ELLIPSE
5
259
100
AcDbEntity
8
0
100
AcDbEllipse
10
-350.76324803405129
20
169.46296800029276
30
0
11
0.70732218916938061
21
-0.70732218916977918
31
0.0
40
0.99969545988188779
41
5.4979394370299728
42
7.0684311773297219
0
LINE
5
260
100
AcDbEntity
8
0
100
AcDbLine
10
-350.76294340116374
20
168.46281567224889
30
0
11
-374.14106255635346
21
168.46281567224884
31
0
0
ELLIPSE
5
261
100
AcDbEntity
8
0
100
AcDbEllipse
10
-374.14075792346591
20
169.46296800029273
30
0
11
-0.70732218916938061
21
-0.70732218916977918
31
0.0
40
0.99969545988188779
41
5.4979394370294905
42
7.0684311773291997
0
LINE
5
262
100
AcDbEntity
8
0
100
AcDbLine
10
-375.14091025150992
20
169.46266336740521
30
0
11
-375.14091025150981
21
173.34078252259491
31
0
0
ELLIPSE
5
263
100
AcDbEntity
8
0
100
AcDbEllipse
10
-374.14075792346591
20
173.34047788970742
30
0
11
0.70732218916938061
21
-0.70732218916977918
31
0.0
40
0.99969545988188779
41
2.3563467834402001
42
3.9268385237399692
0
LINE
5
264
100
AcDbEntity
8
0
100
AcDbLine
10
-374.14106255635346
20
174.34063021775131
30
0
11
-350.76294340116374
21
174.34063021775131
31
0
0
ELLIPSE
5
265
100
AcDbEntity
8
0
100
AcDbEllipse
10
-350.76324803405129
20
173.34047788970742
30
0
11
-0.70732218916948197
21
-0.70732218916967904
31
0.0
40
0.99969545988188724
41
2.356346783439788
42
3.9268385237395371
0
LWPOLYLINE
5
266
100
AcDbEntity
8
0
100
AcDbPolyline
90
132
70
1
43
0.0
10
-437.70200297875863
20
251.21281567224881
10
-437.70200297875863
20
256.21281567224878
10
-442.70200297875863
20
256.21281567224878
10
-442.70200297875851
20
239.37948233891549
10
-437.70200297875863
20
239.37948233891549
10
-437.70200297875863
20
225.87948233891549
10
-434.70200297875857
20
225.87948233891549
10
-434.70200297875857
20
227.62948233891549
10
-432.20200297875857
20
227.62948233891549
10
-432.20200297875857
20
225.87948233891549
10
-429.70200297875857
20
225.87948233891549
10
-429.70200297875857
20
222.87948233891547
10
-432.20200297875857
20
222.87948233891547
10
-432.20200297875857
20
221.12948233891552
10
-434.70200297875857
20
221.12948233891552
10
-434.70200297875857
20
222.87948233891547
10
-437.70200297875863
20
222.87948233891547
10
-437.70200297875863
20
209.37948233891549
10
-442.70200297875863
20
209.37948233891549
10
-442.70200297875863
20
192.54614900558215
10
-437.70200297875863
20
192.54614900558221
10
-437.70200297875863
20
179.04614900558218
10
-434.70200297875857
20
179.04614900558218
10
-434.70200297875857
20
180.79614900558221
10
-432.20200297875851
20
180.79614900558624
10
-432.20200297875851
20
179.04614900558218
10
-429.70200297875857
20
179.04614900558218
10
-429.70200297875857
20
176.04614900558218
10
-432.20200297875851
20
176.04614900558218
10
-432.20200297875851
20
174.29614900558283
10
-434.70200297875851
20
174.29614900558218
10
-434.70200297875857
20
176.04614900558218
10
-437.70200297875851
20
176.04614900558218
10
-437.70200297875863
20
162.54614900558215
10
-442.70200297875863
20
162.54614900558215
10
-442.70200297875863
20
145.71281567224887
10
-412.53533631209189
20
145.71281567224887
10
-412.53533631209189
20
150.71281567224887
10
-396.53533631209189
20
150.71281567224887
10
-396.53533631209189
20
153.71281567224884
10
-398.28533631209183
20
153.71281567224884
10
-398.28533631205801
20
156.21281567224884
10
-396.53533631209189
20
156.21281567224884
10
-396.53533631209189
20
158.71281567224884
10
-393.53533631209189
20
158.71281567224884
10
-393.53533631209189
20
156.21281567224884
10
-391.78533631209228
20
156.21281567224884
10
-391.78533631209223
20
153.71281567224884
10
-393.53533631209183
20
153.71281567224884
10
-393.53533631209189
20
150.71281567224887
10
-377.53533631209189
20
150.71281567224887
10
-377.53533631209189
20
145.71281567224887
10
-347.3686696454252
20
145.71281567224887
10
-347.3686696454252
20
150.71281567224887
10
-331.36866964542526
20
150.71281567224887
10
-331.3686696454252
20
153.71281567224884
10
-333.11866964541366
20
153.71281567224884
10
-333.11866964541252
20
156.21281567224884
10
-331.36866964542526
20
156.21281567224884
10
-331.3686696454252
20
158.71281567224884
10
-328.36866964542526
20
158.71281567224884
10
-328.36866964542526
20
156.21281567224884
10
-326.61866964542412
20
156.21281567224884
10
-326.61866964542457
20
153.71281567224884
10
-328.36866964542514
20
153.71281567224884
10
-328.36866964542526
20
150.71281567224887
10
-312.3686696454252
20
150.71281567224887
10
-312.3686696454252
20
145.71281567224887
10
-282.20200297875857
20
145.71281567224887
10
-282.20200297875857
20
162.54614900558215
10
-287.20200297875857
20
162.54614900558215
10
-287.20200297875857
20
176.04614900558218
10
-290.20200297875863
20
176.04614900558218
10
-290.20200297875863
20
174.29614900558218
10
-292.70200297875863
20
174.29614900558218
10
-292.70200297875863
20
176.04614900558218
10
-295.20200297875863
20
176.04614900558218
10
-295.20200297875863
20
179.04614900558218
10
-292.70200297875863
20
179.04614900558218
10
-292.70200297875863
20
180.79614900558221
10
-290.20200297875863
20
180.79614900558221
10
-290.20200297875863
20
179.04614900558218
10
-287.20200297875857
20
179.04614900558218
10
-287.20200297875857
20
192.54614900558221
10
-282.20200297875857
20
192.54614900558221
10
-282.20200297875857
20
209.37948233891552
10
-287.20200297875857
20
209.37948233891549
10
-287.20200297875857
20
222.87948233891547
10
-290.20200297875863
20
222.87948233891547
10
-290.20200297875863
20
221.12948233891547
10
-292.70200297875863
20
221.12948233891547
10
-292.70200297875863
20
222.87948233891547
10
-295.20200297875863
20
222.87948233891547
10
-295.20200297875863
20
225.87948233891549
10
-292.70200297875863
20
225.87948233891549
10
-292.70200297875863
20
227.62948233891549
10
-290.20200297875863
20
227.62948233891549
10
-290.20200297875863
20
225.87948233891549
10
-287.20200297875857
20
225.87948233891549
10
-287.20200297875857
20
239.37948233891549
10
-282.20200297875857
20
239.37948233891549
10
-282.20200297875857
20
256.21281567224878
10
-287.20200297875857
20
256.21281567224878
10
-287.20200297875857
20
251.21281567224881
10
-298.28533631209194
20
251.21281567224881
10
-298.28533631209194
20
248.21281567224884
10
-296.53533631209194
20
248.21281567224884
10
-296.53533631209194
20
245.71281567224884
10
-298.28533631209189
20
245.71281567224884
10
-298.28533631209189
20
243.21281567224884
10
-301.28533631209194
20
243.21281567224884
10
-301.28533631209194
20
245.71281567224884
10
-303.03533631209189
20
245.71281567224884
10
-303.03533631209189
20
248.21281567224884
10
-301.28533631209194
20
248.21281567224884
10
-301.28533631209194
20
251.21281567224881
10
-347.3686696454252
20
251.21281567224881
10
-347.3686696454252
20
256.21281567224878
10
-377.53533631209189
20
256.21281567224878
10
-377.53533631209189
20
251.21281567224881
10
-423.6186696454252
20
251.21281567224881
10
-423.6186696454252
20
248.21281567224884
10
-421.86866964542526
20
248.21281567224884
10
-421.86866964542514
20
245.71281567224884
10
-423.61866964542514
20
245.71281567224884
10
-423.6186696454252
20
243.21281567224884
10
-426.6186696454252
20
243.21281567224884
10
-426.6186696454252
20
245.71281567224884
10
-428.36866964542526
20
245.71281567224884
10
-428.36866964542526
20
248.21281567224884
10
-426.61866964542526
20
248.21281567224884
10
-426.61866964542526
20
251.21281567224881
0
LWPOLYLINE
5
267
100
AcDbEntity
8
0
100
AcDbPolyline
90
4
70
1
43
0.0
10
-350.45200272543912
20
313.19650343547369
10
-350.45200272543912
20
316.16801287297727
42
-0.15592164723110594
10
-340.95781771855422
20
305.46281567224878
10
-343.72368217843075
20
305.46281567224878
42
0.12390770581098647
0
LWPOLYLINE
5
268
100
AcDbEntity
8
0
100
AcDbPolyline
90
4
70
1
43
0.0
10
-381.18032377908673
20
305.46281567224878
10
-383.9461882389628
20
305.46281567224855
42
-0.15592164723109819
10
-374.45200323207848
20
316.16801287297727
10
-374.45200323207848
20
313.19650343547369
42
0.12390770581097948
0
LWPOLYLINE
5
269
100
AcDbEntity
8
0
100
AcDbPolyline
90
4
70
1
43
0.0
10
-343.72368217843075
20
286.46281567224878
10
-340.95781771855354
20
286.4628156722485
42
-0.15592164723109864
10
-350.452002725439
20
275.75761847152035
10
-350.45200272543912
20
278.72912790902399
42
0.12390770581098028
0
LWPOLYLINE
5
270
100
AcDbEntity
8
0
100
AcDbPolyline
90
4
70
1
43
0.0
10
-383.94618823896343
20
286.46281567224878
42
0.15592164723109142
10
-374.4520032320786
20
275.75761847152029
10
-374.45200323207848
20
278.72912790902399
42
-0.12390770581097316
10
-381.18032377908685
20
286.46281567224878
0
CIRCLE
5
271
100
AcDbEntity
8
0
100
AcDbCircle
10
-382.50469466121507
20
338.16725519330976
30
0
40
1.3499999999999996
210
0
220
0
230
1
0
CIRCLE
5
272
100
AcDbEntity
8
0
100
AcDbCircle
10
-382.50469466121501
20
280.16725519330976
30
0
40
1.3499999999999996
210
0
220
0
230
1
0
CIRCLE
5
273
100
AcDbEntity
8
0
100
AcDbCircle
10
-431.5046946612149
20
280.1672551933097
30
0
40
1.3499999999999974
210
0
220
0
230
1
0
LINE
5
274
100
AcDbEntity
8
0
100
AcDbLine
10
-349.76309570600756
20
288.34078252259485
30
0
11
-349.76309570600756
21
284.46266336740518
31
0
0
ELLIPSE
5
275
100
AcDbEntity
8
0
100
AcDbEllipse
10
-350.76324803405146
20
284.46296800029268
30
0
11
0.70732218916938028
21
-0.70732218916977918
31
0.0
40
0.99969545988188779
41
5.4979394370300385
42
7.0684311773297672
0
LINE
5
276
100
AcDbEntity
8
0
100
AcDbLine
10
-350.76294340116391
20
283.46281567224884
30
0
11
-374.14106255635363
21
283.46281567224878
31
0
0
ELLIPSE
5
277
100
AcDbEntity
8
0
100
AcDbEllipse
10
-374.14075792346608
20
284.46296800029268
30
0
11
-0.70732218916938028
21
-0.70732218916977918
31
0.0
40
0.99969545988188779
41
5.4979394370294301
42
7.0684311773291597
0
LINE
5
278
100
AcDbEntity
8
0
100
AcDbLine
10
-375.14091025151004
20
284.46266336740513
30
0
11
-375.14091025151004
21
288.34078252259485
31
0
0
ELLIPSE
5
279
100
AcDbEntity
8
0
100
AcDbEllipse
10
-374.14075792346608
20
288.34047788970736
30
0
11
0.70732218916938028
21
-0.70732218916977918
31
0.0
40
0.99969545988188779
41
2.3563467834400993
42
3.9268385237400496
0
LINE
5
280
100
AcDbEntity
8
0
100
AcDbLine
10
-374.14106255635363
20
289.34063021775125
30
0
11
-350.76294340116391
21
289.34063021775125
31
0
0
ELLIPSE
5
281
100
AcDbEntity
8
0
100
AcDbEllipse
10
-350.76324803405146
20
288.34047788970736
30
0
11
-0.70732218916948164
21
-0.70732218916967893
31
0.0
40
0.99969545988188702
41
2.3563467834397329
42
3.9268385237395118
0
LWPOLYLINE
5
282
100
AcDbEntity
8
0
100
AcDbPolyline
90
132
70
1
43
0.0
10
-437.70200297875874
20
366.21281567224867
10
-437.70200297875874
20
371.21281567224867
10
-442.70200297875874
20
371.21281567224867
10
-442.70200297875874
20
354.37948233891541
10
-437.70200297875874
20
354.37948233891547
10
-437.70200297875874
20
340.87948233891547
10
-434.70200297875869
20
340.87948233891541
10
-434.70200297875874
20
342.62948233891535
10
-432.20200297875874
20
342.62948233891541
10
-432.20200297875874
20
340.87948233891547
10
-429.70200297875874
20
340.87948233891541
10
-429.70200297875874
20
337.87948233891541
10
-432.20200297875874
20
337.87948233891541
10
-432.20200297875874
20
336.12948233891541
10
-434.70200297875874
20
336.12948233891541
10
-434.70200297875874
20
337.87948233891541
10
-437.7020029787588
20
337.87948233891541
10
-437.70200297875874
20
324.37948233891547
10
-442.70200297875874
20
324.37948233891547
10
-442.70200297875874
20
307.54614900558215
10
-437.70200297875874
20
307.54614900558215
10
-437.70200297875874
20
294.04614900558209
10
-434.70200297875869
20
294.04614900558209
10
-434.70200297875874
20
295.79614900558215
10
-432.20200297875869
20
295.79614900558619
10
-432.20200297875869
20
294.04614900558209
10
-429.70200297875874
20
294.04614900558209
10
-429.70200297875874
20
291.04614900558209
10
-432.20200297875869
20
291.04614900558209
10
-432.20200297875869
20
289.29614900558278
10
-434.70200297875869
20
289.29614900558209
10
-434.70200297875874
20
291.04614900558209
10
-437.70200297875874
20
291.04614900558209
10
-437.70200297875874
20
277.54614900558209
10
-442.70200297875874
20
277.54614900558209
10
-442.70200297875874
20
260.71281567224878
10
-412.53533631209211
20
260.71281567224878
10
-412.53533631209211
20
265.71281567224878
10
-396.53533631209206
20
265.71281567224878
10
-396.53533631209206
20
268.71281567224878
10
-398.28533631209206
20
268.71281567224878
10
-398.28533631205829
20
271.21281567224878
10
-396.53533631209211
20
271.21281567224878
10
-396.53533631209206
20
273.71281567224878
10
-393.53533631209211
20
273.71281567224878
10
-393.535336312092
20
271.21281567224878
10
-391.7853363120924
20
271.21281567224878
10
-391.78533631209245
20
268.71281567224878
10
-393.535336312092
20
268.71281567224878
10
-393.535336312092
20
265.71281567224878
10
-377.535336312092
20
265.71281567224878
10
-377.53533631209211
20
260.71281567224878
10
-347.36866964542543
20
260.71281567224878
10
-347.36866964542543
20
265.71281567224878
10
-331.36866964542548
20
265.71281567224878
10
-331.36866964542548
20
268.71281567224878
10
-333.11866964541395
20
268.71281567224878
10
-333.11866964541281
20
271.21281567224878
10
-331.36866964542548
20
271.21281567224878
10
-331.36866964542548
20
273.71281567224878
10
-328.36866964542548
20
273.71281567224878
10
-328.36866964542543
20
271.21281567224878
10
-326.61866964542435
20
271.21281567224878
10
-326.6186696454248
20
268.71281567224878
10
-328.36866964542543
20
268.71281567224878
10
-328.36866964542543
20
265.71281567224878
10
-312.36866964542543
20
265.71281567224878
10
-312.36866964542548
20
260.71281567224878
10
-282.20200297875886
20
260.71281567224878
10
-282.20200297875886
20
277.54614900558209
10
-287.20200297875886
20
277.54614900558209
10
-287.20200297875886
20
291.04614900558209
10
-290.20200297875886
20
291.04614900558209
10
-290.2020029787588
20
289.29614900558209
10
-292.70200297875886
20
289.29614900558209
10
-292.70200297875886
20
291.04614900558209
10
-295.2020029787588
20
291.04614900558209
10
-295.2020029787588
20
294.04614900558209
10
-292.70200297875886
20
294.04614900558209
10
-292.70200297875886
20
295.79614900558215
10
-290.20200297875886
20
295.79614900558215
10
-290.2020029787588
20
294.04614900558209
10
-287.2020029787588
20
294.04614900558209
10
-287.20200297875886
20
307.54614900558215
10
-282.20200297875886
20
307.54614900558215
10
-282.20200297875886
20
324.37948233891547
10
-287.20200297875886
20
324.37948233891547
10
-287.2020029787588
20
337.87948233891541
10
-290.20200297875886
20
337.87948233891541
10
-290.2020029787588
20
336.12948233891541
10
-292.7020029787588
20
336.12948233891541
10
-292.7020029787588
20
337.87948233891541
10
-295.2020029787588
20
337.87948233891541
10
-295.2020029787588
20
340.87948233891541
10
-292.7020029787588
20
340.87948233891541
10
-292.7020029787588
20
342.62948233891535
10
-290.2020029787588
20
342.62948233891541
10
-290.2020029787588
20
340.87948233891547
10
-287.20200297875874
20
340.87948233891541
10
-287.20200297875886
20
354.37948233891541
10
-282.20200297875886
20
354.37948233891547
10
-282.20200297875886
20
371.21281567224878
10
-287.20200297875886
20
371.21281567224867
10
-287.20200297875886
20
366.21281567224867
10
-298.28533631209217
20
366.21281567224867
10
-298.28533631209217
20
363.21281567224872
10
-296.53533631209211
20
363.21281567224872
10
-296.53533631209211
20
360.71281567224872
10
-298.28533631209211
20
360.71281567224872
10
-298.28533631209211
20
358.21281567224872
10
-301.28533631209217
20
358.21281567224872
10
-301.28533631209217
20
360.71281567224872
10
-303.03533631209211
20
360.71281567224872
10
-303.03533631209211
20
363.21281567224872
10
-301.28533631209217
20
363.21281567224872
10
-301.28533631209217
20
366.21281567224867
10
-347.36866964542543
20
366.21281567224867
10
-347.36866964542543
20
371.21281567224867
10
-377.53533631209211
20
371.21281567224867
10
-377.53533631209211
20
366.21281567224867
10
-423.61866964542543
20
366.21281567224867
10
-423.61866964542543
20
363.21281567224872
10
-421.86866964542548
20
363.21281567224872
10
-421.86866964542537
20
360.71281567224872
10
-423.61866964542537
20
360.71281567224872
10
-423.61866964542543
20
358.21281567224872
10
-426.61866964542537
20
358.21281567224872
10
-426.61866964542537
20
360.71281567224872
10
-428.36866964542543
20
360.71281567224872
10
-428.36866964542537
20
363.21281567224872
10
-426.61866964542537
20
363.21281567224872
10
-426.61866964542537
20
366.21281567224867
0
ENDSEC
0
SECTION
2
OBJECTS
0
DICTIONARY
5
C
100
AcDbDictionary
3
ACAD_GROUP
350
D
3
ACAD_MLINESTYLE
350
17
0
DICTIONARY
5
D
100
AcDbDictionary
0
DICTIONARY
5
1A
330
C
100
AcDbDictionary
0
DICTIONARY
5
17
100
AcDbDictionary
0
ENDSEC
0
EOF
