0
SECTION
2
HEADER
9
$INSUNITS
70
4
9
$ACADVER
1
AC1014
9
$HANDSEED
5
FFFF
0
ENDSEC
0
SECTION
2
TABLES
0
TABLE
2
VPORT
5
8
100
AcDbSymbolTable
0
ENDTAB
0
TABLE
2
LTYPE
5
5
100
AcDbSymbolTable
0
LTYPE
5
14
100
AcDbSymbolTableRecord
100
AcDbLinetypeTableRecord
2
BYBLOCK
70
0
0
LTYPE
5
15
100
AcDbSymbolTableRecord
100
AcDbLinetypeTableRecord
2
BYLAYER
70
0
0
ENDTAB
0
TABLE
2
LAYER
5
2
100
AcDbSymbolTable
70
2
0
LAYER
5
50
100
AcDbSymbolTableRecord
100
AcDbLayerTableRecord
2
0
70
0
6
CONTINUOUS
0
ENDTAB
0
TABLE
2
STYLE
5
3
100
AcDbSymbolTable
70
1
0
STYLE
5
11
100
AcDbSymbolTableRecord
100
AcDbTextStyleTableRecord
2
STANDARD
70
0
0
ENDTAB
0
TABLE
2
VIEW
5
6
100
AcDbSymbolTable
70
0
0
ENDTAB
0
TABLE
2
UCS
5
7
100
AcDbSymbolTable
70
0
0
ENDTAB
0
TABLE
2
APPID
5
9
100
AcDbSymbolTable
70
2
0
APPID
5
12
100
AcDbSymbolTableRecord
100
AcDbRegAppTableRecord
2
ACAD
70
0
0
ENDTAB
0
TABLE
2
DIMSTYLE
5
A
100
AcDbSymbolTable
70
1
0
ENDTAB
0
TABLE
2
BLOCK_RECORD
5
1
100
AcDbSymbolTable
70
1
0
BLOCK_RECORD
5
1F
100
AcDbSymbolTableRecord
100
AcDbBlockTableRecord
2
*MODEL_SPACE
0
BLOCK_RECORD
5
1B
100
AcDbSymbolTableRecord
100
AcDbBlockTableRecord
2
*PAPER_SPACE
0
ENDTAB
0
ENDSEC
0
SECTION
2
BLOCKS
0
BLOCK
5
20
100
AcDbEntity
100
AcDbBlockBegin
2
*MODEL_SPACE
0
ENDBLK
5
21
100
AcDbEntity
100
AcDbBlockEnd
0
BLOCK
5
1C
100
AcDbEntity
100
AcDbBlockBegin
2
*PAPER_SPACE
0
ENDBLK
5
1D
100
AcDbEntity
100
AcDbBlockEnd
0
ENDSEC
0
SECTION
2
ENTITIES
0
LWPOLYLINE
5
100
100
AcDbEntity
8
0
100
AcDbPolyline
90
4
70
1
43
0.0
10
110.4520027254388
20
-111.16801287297754
10
710.45200272543877
20
-111.16801287297754
10
710.45200272543877
20
288.83198712702244
10
110.4520027254388
20
288.83198712702244
0
CIRCLE
5
101
100
AcDbEntity
8
0
100
AcDbCircle
10
523.53204609485113
20
8.5853518777583204
30
0
40
1.4999999999999991
210
0
220
-0
230
1
0
LWPOLYLINE
5
102
100
AcDbEntity
8
0
100
AcDbPolyline
90
4
70
1
43
0.0
10
513.53204609485113
20
-93.747981455575029
42
0.99999999999999989
10
516.53204609485113
20
-93.747981455574944
10
516.53204609485113
20
-73.747981455575029
42
0.99999999999999989
10
513.53204609485113
20
-73.747981455575029
0
LWPOLYLINE
5
103
100
AcDbEntity
8
0
100
AcDbPolyline
90
4
70
1
43
0.0
10
513.53204609485113
20
-13.747981455575022
42
0.99999999999999989
10
516.53204609485113
20
-13.747981455574978
10
516.53204609485113
20
6.2520185444249776
42
0.99999999999999989
10
513.53204609485113
20
6.2520185444249776
0
LWPOLYLINE
5
104
100
AcDbEntity
8
0
100
AcDbPolyline
90
4
70
1
43
0.0
10
499.53204609485113
20
-53.747981455575022
42
0.99999999999999989
10
502.53204609485113
20
-53.747981455575129
10
502.53204609485113
20
-33.747981455575015
42
0.99999999999999989
10
499.53204609485113
20
-33.747981455575022
0
LWPOLYLINE
5
105
100
AcDbEntity
8
0
100
AcDbPolyline
90
4
70
1
43
0.0
10
513.53204609485113
20
-53.747981455575022
42
0.99999999999999989
10
516.53204609485113
20
-53.747981455574987
10
516.53204609485113
20
-33.747981455575022
42
0.99999999999999989
10
513.53204609485113
20
-33.747981455575022
0
CIRCLE
5
106
100
AcDbEntity
8
0
100
AcDbCircle
10
493.53204609485113
20
-56.581314788908337
30
0
40
1.5000000000000036
210
0
220
-0
230
1
0
CIRCLE
5
107
100
AcDbEntity
8
0
100
AcDbCircle
10
183.03204609485093
20
-86.664648122241744
30
0
40
1.4999999999999947
210
0
220
-0
230
1
0
CIRCLE
5
108
100
AcDbEntity
8
0
100
AcDbCircle
10
183.03204609485121
20
38.668685211091578
30
0
40
1.4999999999999858
210
0
220
-0
230
1
0
CIRCLE
5
109
100
AcDbEntity
8
0
100
AcDbCircle
10
148.03204609485093
20
-101.74798145557514
30
0
40
1.4999999999999769
210
0
220
-0
230
1
0
LWPOLYLINE
5
110
100
AcDbEntity
8
0
100
AcDbPolyline
90
4
70
1
43
0.0
10
491.03204609485113
20
-39.081314788908337
10
491.03204609485113
20
-8.914648122241644
10
496.03204609485113
20
-8.914648122241644
10
496.03204609485113
20
-39.081314788908337
0
LWPOLYLINE
5
111
100
AcDbEntity
8
0
100
AcDbPolyline
90
4
70
1
43
0.0
10
506.53204609485113
20
-93.747981455575029
42
0.99999999999999989
10
509.53204609485113
20
-93.747981455575086
10
509.53204609485107
20
-73.747981455575029
42
0.99999999999999989
10
506.53204609485113
20
-73.747981455575029
0
LWPOLYLINE
5
112
100
AcDbEntity
8
0
100
AcDbPolyline
90
4
70
1
43
0.0
10
506.53204609485107
20
26.252018544424978
42
0.99999999999999989
10
509.53204609485107
20
26.25201854442502
10
509.53204609485107
20
46.252018544424978
42
0.99999999999999989
10
506.53204609485107
20
46.252018544424978
0
LWPOLYLINE
5
113
100
AcDbEntity
8
0
100
AcDbPolyline
90
4
70
1
43
0.0
10
513.53204609485113
20
26.252018544424978
42
0.99999999999999989
10
516.53204609485113
20
26.25201854442502
10
516.53204609485113
20
46.252018544424978
42
0.99999999999999989
10
513.53204609485113
20
46.252018544424978
0
LWPOLYLINE
5
114
100
AcDbEntity
8
0
100
AcDbPolyline
90
4
70
1
43
0.0
10
506.53204609485107
20
-53.747981455575022
42
0.99999999999999989
10
509.53204609485107
20
-53.747981455574987
10
509.53204609485107
20
-33.747981455575022
42
0.99999999999999989
10
506.53204609485113
20
-33.747981455575022
0
LWPOLYLINE
5
115
100
AcDbEntity
8
0
100
AcDbPolyline
90
4
70
1
43
0.0
10
506.53204609485107
20
-13.747981455575022
42
0.99999999999999989
10
509.53204609485107
20
-13.747981455574978
10
509.53204609485107
20
6.2520185444249776
42
0.99999999999999989
10
506.53204609485113
20
6.2520185444249776
0
LWPOLYLINE
5
116
100
AcDbEntity
8
0
100
AcDbPolyline
90
4
70
1
43
0.0
10
499.53204609485113
20
-13.747981455574989
42
0.99999999999999989
10
502.53204609485113
20
-13.747981455575085
10
502.53204609485113
20
6.2520185444250131
42
0.99999999999999989
10
499.53204609485113
20
6.2520185444250114
0
CIRCLE
5
117
100
AcDbEntity
8
0
100
AcDbCircle
10
523.53204609485113
20
-56.581314788908337
30
0
40
1.4999999999999991
210
0
220
-0
230
1
0
CIRCLE
5
118
100
AcDbEntity
8
0
100
AcDbCircle
10
148.03204609485121
20
53.752018544424942
30
0
40
1.5000000000000213
210
0
220
-0
230
1
0
CIRCLE
5
119
100
AcDbEntity
8
0
100
AcDbCircle
10
493.53204609485113
20
8.5853518777583204
30
0
40
1.4999999999999991
210
0
220
-0
230
1
0
LWPOLYLINE
5
120
100
AcDbEntity
8
0
100
AcDbPolyline
90
4
70
1
43
0.0
10
185.53204609485121
20
-8.9146481222417862
10
185.53204609485093
20
-39.081314788908479
10
180.53204609485093
20
-39.081314788908479
10
180.53204609485121
20
-8.9146481222417506
0
LWPOLYLINE
5
121
100
AcDbEntity
8
0
100
AcDbPolyline
90
4
70
1
43
0.0
10
388.03204609485107
20
-18.747981455575022
10
394.03204609485107
20
-18.747981455575022
10
394.03204609485107
20
-28.747981455574951
10
388.03204609485107
20
-28.747981455574951
0
CIRCLE
5
122
100
AcDbEntity
8
0
100
AcDbCircle
10
502.53204609485118
20
-84.247883555758676
30
0
40
2.5
210
0
220
-0
230
1
0
LWPOLYLINE
5
123
100
AcDbEntity
8
0
100
AcDbPolyline
90
4
70
1
43
0.0
10
227.87793414853823
20
-28.997981455575079
10
233.87793414853817
20
-28.997981455575079
10
233.87793414853817
20
-32.997981455575136
10
227.87793414853823
20
-32.997981455575136
0
LWPOLYLINE
5
124
100
AcDbEntity
8
0
100
AcDbPolyline
90
4
70
1
43
0.0
10
448.20204609485108
20
-18.747981455575022
10
452.20204609485108
20
-18.747981455574987
10
452.20204609485108
20
-28.747981455575022
10
448.20204609485108
20
-28.747981455575022
0
CIRCLE
5
125
100
AcDbEntity
8
0
100
AcDbCircle
10
502.53204609485113
20
36.252018544424978
30
0
40
2.5
210
0
220
-0
230
1
0
LWPOLYLINE
5
126
100
AcDbEntity
8
0
100
AcDbPolyline
90
4
70
1
43
0.0
10
227.87793414853851
20
-14.997981455575022
10
233.87793414853846
20
-14.997981455575022
10
233.87793414853846
20
-18.997981455575079
10
227.87793414853851
20
-18.997981455575079
0
LWPOLYLINE
5
127
100
AcDbEntity
8
0
100
AcDbPolyline
90
39
70
1
43
0.0
10
177.5320460948511
20
-36.997981649290175
10
177.5320460948511
20
-99.247981455575143
10
211.39811423239919
20
-99.247981455575115
42
-0.46991819499582588
10
455.64868066519364
20
-99.247981455575101
10
491.03204609485113
20
-99.247981455575001
10
496.03204609485113
20
-99.247965138939065
10
496.03204609485113
20
-99.247883555758676
10
521.03204609485113
20
-99.247883555758676
10
521.03204609485113
20
-74.081314788908344
10
526.03204609485113
20
-74.081314788908344
10
526.03204609485113
20
-39.081314788908337
10
521.03204609485113
20
-39.081314788908337
10
521.03204609485113
20
-8.9146481222416796
10
526.03204609485113
20
-8.9146481222416796
10
526.03204609485113
20
26.085351877758285
10
521.03204609485113
20
26.085351877758285
10
521.03204609485113
20
51.252018544424978
10
455.64868066519364
20
51.252018544424956
42
-0.46991819499582582
10
211.39811423239919
20
51.252018544424956
10
165.53204609485121
20
51.252018544424942
10
165.53204609485121
20
56.252018544424907
10
130.53204609485121
20
56.252018544424907
10
130.53204609485121
20
51.252018544424907
10
115.53204609485121
20
51.252018544424907
10
115.53204609485121
20
26.085351877758249
10
120.53204609485121
20
26.085351877758249
10
120.53204609485121
20
-8.9146481222417862
10
115.53204609485121
20
-8.9146481222417862
10
115.53204609485093
20
-39.081314788908479
10
120.53204609485093
20
-39.081314788908479
10
120.53204609485093
20
-74.081314788908486
10
115.53204609485093
20
-74.081314788908486
10
115.53204609485093
20
-99.247981455575143
10
130.53204609485093
20
-99.247981455575143
10
130.53204609485093
20
-104.24798145557514
10
165.53204609485093
20
-104.24798145557514
10
165.53204609485093
20
-99.247981455575143
10
150.44952647588801
20
-99.247981455575143
10
150.44952647588801
20
-36.997981649290175
0
LWPOLYLINE
5
128
100
AcDbEntity
8
0
100
AcDbPolyline
90
4
70
1
43
0.0
10
145.27207001960491
20
36.439104220207135
10
134.27207001960497
20
36.439104220207135
10
134.27207001960497
20
45.43910422020712
10
145.27207001960491
20
45.43910422020712
0
CIRCLE
5
129
100
AcDbEntity
8
0
100
AcDbCircle
10
160.53204609485121
20
16.252018544424907
30
0
40
7.5000000000000089
210
0
220
-0
230
1
0
CIRCLE
5
130
100
AcDbEntity
8
0
100
AcDbCircle
10
147.52207001960514
20
40.939104220207163
30
0
40
1.2500000000000266
210
0
220
-0
230
1
0
CIRCLE
5
131
100
AcDbEntity
8
0
100
AcDbCircle
10
132.52207001960514
20
40.939104220207163
30
0
40
1.2500000000000089
210
0
220
-0
230
1
0
CIRCLE
5
132
100
AcDbEntity
8
0
100
AcDbCircle
10
184.2020027254388
20
108.83198712702246
30
0
40
2.5
210
0
220
0
230
1
0
CIRCLE
5
133
100
AcDbEntity
8
0
100
AcDbCircle
10
170.20200272543877
20
122.83198712702244
30
0
40
2.5000000000000022
210
0
220
0
230
1
0
CIRCLE
5
134
100
AcDbEntity
8
0
100
AcDbCircle
10
170.20200272543877
20
94.831987127022472
30
0
40
2.5
210
0
220
0
230
1
0
CIRCLE
5
135
100
AcDbEntity
8
0
100
AcDbCircle
10
170.20200272543877
20
108.83198712702246
30
0
40
10
210
0
220
0
230
1
0
LWPOLYLINE
5
136
100
AcDbEntity
8
0
100
AcDbPolyline
90
4
70
1
43
0.0
10
131.70200272543877
20
68.581987127022472
42
0.99999999999999989
10
134.7020027254388
20
68.581987127022472
10
134.7020027254388
20
85.581987127022444
42
0.99999999999999989
10
131.70200272543877
20
85.58198712702243
0
LWPOLYLINE
5
137
100
AcDbEntity
8
0
100
AcDbPolyline
90
4
70
1
43
0.0
10
145.20200272543877
20
105.41532046035582
10
145.20200272543877
20
122.24865379368914
10
150.20200272543877
20
122.24865379368914
10
150.20200272543877
20
105.41532046035582
0
LWPOLYLINE
5
138
100
AcDbEntity
8
0
100
AcDbPolyline
90
4
70
1
43
0.0
10
138.70200272543877
20
138.58198712702244
42
0.99999999999999989
10
141.70200272543877
20
138.58198712702244
10
141.70200272543877
20
155.58198712702244
42
0.99999999999999989
10
138.7020027254388
20
155.58198712702244
0
LWPOLYLINE
5
139
100
AcDbEntity
8
0
100
AcDbPolyline
90
4
70
1
43
0.0
10
124.70200272543879
20
103.58198712702246
42
0.99999999999999989
10
127.7020027254388
20
103.58198712702246
10
127.7020027254388
20
120.58198712702244
42
0.99999999999999989
10
124.70200272543877
20
120.58198712702243
0
LWPOLYLINE
5
140
100
AcDbEntity
8
0
100
AcDbPolyline
90
4
70
1
43
0.0
10
124.70200272543879
20
138.58198712702244
42
0.99999999999999989
10
127.7020027254388
20
138.58198712702244
10
127.70200272543877
20
155.58198712702244
42
0.99999999999999989
10
124.70200272543877
20
155.58198712702244
0
CIRCLE
5
141
100
AcDbEntity
8
0
100
AcDbCircle
10
458.20200272543872
20
90.41861147702555
30
0
40
1.4999999999999858
210
0
220
0
230
1
0
CIRCLE
5
142
100
AcDbEntity
8
0
100
AcDbCircle
10
458.20200272543872
20
137.25759962135947
30
0
40
1.4999999999999858
210
0
220
0
230
1
0
CIRCLE
5
143
100
AcDbEntity
8
0
100
AcDbCircle
10
117.70200272543877
20
137.2154300169872
30
0
40
1.5000000000000036
210
0
220
0
230
1
0
CIRCLE
5
144
100
AcDbEntity
8
0
100
AcDbCircle
10
117.70200272543877
20
90.407387503537791
30
0
40
1.5000000000000036
210
0
220
0
230
1
0
LWPOLYLINE
5
145
100
AcDbEntity
8
0
100
AcDbPolyline
90
4
70
1
43
0.0
10
124.70200272543877
20
68.581987127022472
10
124.70200272543879
20
85.581987127022487
42
-0.99999999999999989
10
127.7020027254388
20
85.581987127022444
10
127.70200272543882
20
68.581987127022472
42
-0.99999999999999989
0
LWPOLYLINE
5
146
100
AcDbEntity
8
0
100
AcDbPolyline
90
4
70
1
43
0.0
10
460.70200272543872
20
122.24865379368914
10
460.70200272543872
20
105.41532046035582
10
455.70200272543872
20
105.41532046035582
10
455.70200272543872
20
122.24865379368914
0
LWPOLYLINE
5
147
100
AcDbEntity
8
0
100
AcDbPolyline
90
4
70
1
43
0.0
10
131.70200272543877
20
103.58198712702247
10
131.70200272543877
20
120.58198712702249
42
-0.99999999999999989
10
134.7020027254388
20
120.58198712702244
10
134.7020027254388
20
103.5819871270224
42
-0.99999999999999989
0
LWPOLYLINE
5
148
100
AcDbEntity
8
0
100
AcDbPolyline
90
4
70
1
43
0.0
10
131.70200272543877
20
138.58198712702244
42
0.99999999999999989
10
134.7020027254388
20
138.58198712702244
10
134.70200272543877
20
155.58198712702244
42
0.99999999999999989
10
131.70200272543877
20
155.58198712702244
0
LWPOLYLINE
5
149
100
AcDbEntity
8
0
100
AcDbPolyline
90
4
70
1
43
0.0
10
138.70200272543877
20
103.58198712702246
42
0.99999999999999989
10
141.70200272543877
20
103.58198712702246
10
141.70200272543877
20
120.58198712702244
42
0.99999999999999989
10
138.7020027254388
20
120.58198712702243
0
CIRCLE
5
150
100
AcDbEntity
8
0
100
AcDbCircle
10
147.70200272543877
20
137.24865379368913
30
0
40
1.5000000000000036
210
0
220
0
230
1
0
LWPOLYLINE
5
151
100
AcDbEntity
8
0
100
AcDbPolyline
90
4
70
1
43
0.0
10
138.7020027254388
20
68.581987127022472
10
138.70200272543877
20
85.581987127022487
42
-0.99999999999999989
10
141.70200272543877
20
85.581987127022444
10
141.70200272543877
20
68.581987127022472
42
-0.99999999999999989
0
CIRCLE
5
152
100
AcDbEntity
8
0
100
AcDbCircle
10
147.70200272543877
20
90.415320460355773
30
0
40
1.4999999999999858
210
0
220
0
230
1
0
LWPOLYLINE
5
153
100
AcDbEntity
8
0
100
AcDbPolyline
90
60
70
1
43
0.0
10
510.70200272543889
20
58.581987127022472
10
525.70200272543889
20
58.581987127022472
10
525.70200272543889
20
169.08198712702244
10
510.70200272543889
20
169.08198712702244
10
510.70200272543877
20
164.08198712702244
10
494.70200272543877
20
164.08198712702244
10
494.70200272543877
20
161.08198712702247
10
496.45200272543877
20
161.08198712702247
10
496.45200272543877
20
158.58198712702247
10
494.70200272543877
20
158.58198712702247
10
494.70200272543877
20
156.08198712702247
10
491.70200272543877
20
156.08198712702247
10
491.70200272543877
20
158.58198712702247
10
489.95200272543883
20
158.58198712702247
10
489.95200272543883
20
161.08198712702247
10
491.70200272543877
20
161.08198712702247
10
491.70200272543877
20
164.08198712702244
10
475.70200272543872
20
164.08198712702244
10
475.70200272543877
20
169.08198712702244
10
460.70200272543877
20
169.08198712702244
10
460.70200272543872
20
152.24865379368913
10
455.70200272543872
20
152.24865379368913
10
455.70200272543872
20
169.08198712702244
10
150.20200272543875
20
169.08198712702244
10
150.20200272543877
20
152.24865379368913
10
145.20200272543877
20
152.24865379368913
10
145.20200272543877
20
169.08198712702244
10
120.20200272543877
20
169.08198712702244
10
120.20200272543877
20
152.24865379368913
10
115.20200272543877
20
152.24865379368913
10
115.20200272543877
20
122.24865379368914
10
120.20200272543877
20
122.24865379368914
10
120.20200272543877
20
105.41532046035582
10
115.20200272543877
20
105.41532046035582
10
115.20200272543877
20
75.415320460355773
10
120.20200272543877
20
75.415320460355773
10
120.20200272543877
20
58.581987127022472
10
145.20200272543877
20
58.581987127022472
10
145.20200272543877
20
75.415320460355773
10
150.20200272543877
20
75.415320460355773
10
150.20200272543877
20
58.581987127022472
10
455.70200272543872
20
58.581987127022472
10
455.70200272543872
20
75.415320460355773
10
460.70200272543872
20
75.415320460355773
10
460.70200272543872
20
58.581987127022472
10
475.70200272543877
20
58.581987127022472
10
475.70200272543889
20
63.581987127022472
10
491.70200272543889
20
63.581987127022472
10
491.70200272543877
20
66.581987127022444
10
489.95200272543883
20
66.581987127022444
10
489.95200272543883
20
69.081987127022444
10
491.70200272543877
20
69.081987127022444
10
491.70200272543877
20
71.581987127022444
10
494.70200272543877
20
71.581987127022444
10
494.70200272543877
20
69.081987127022444
10
496.45200272543877
20
69.081987127022444
10
496.45200272543877
20
66.581987127022444
10
494.70200272543877
20
66.581987127022444
10
494.70200272543877
20
63.581987127022472
10
510.70200272543877
20
63.581987127022472
0
LWPOLYLINE
5
154
100
AcDbEntity
8
0
100
AcDbPolyline
90
4
70
1
43
0.0
10
482.19112303438192
20
248.74587311076652
10
482.19112303438192
20
194.11739166944074
10
463.70200272543877
20
194.11739166944074
10
463.70200272543883
20
248.74587311076652
0
CIRCLE
5
155
100
AcDbEntity
8
0
100
AcDbCircle
10
184.2020027254388
20
222.83198712702244
30
0
40
2.4999999999999991
210
0
220
-0
230
1
0
CIRCLE
5
156
100
AcDbEntity
8
0
100
AcDbCircle
10
170.20200354500264
20
208.83198712702244
30
0
40
2.5
210
0
220
-0
230
1
0
CIRCLE
5
157
100
AcDbEntity
8
0
100
AcDbCircle
10
170.20200354500264
20
236.83198712702244
30
0
40
2.4999999999999991
210
0
220
-0
230
1
0
CIRCLE
5
158
100
AcDbEntity
8
0
100
AcDbCircle
10
170.20200272543877
20
222.83198712702244
30
0
40
10
210
0
220
-0
230
1
0
LWPOLYLINE
5
159
100
AcDbEntity
8
0
100
AcDbPolyline
90
60
70
1
43
0.0
10
491.70200272543877
20
278.08198712702244
10
475.70200272543872
20
278.08198712702244
10
475.70200272543877
20
283.08198712702244
10
460.70200272543877
20
283.08198712702244
10
460.70200272543872
20
266.24865379368913
10
455.70200272543872
20
266.24865379368913
10
455.70200272543872
20
283.08198712702244
10
150.20200272543875
20
283.08198712702244
10
150.20200272543877
20
266.24865379368913
10
145.20200272543877
20
266.24865379368913
10
145.20200272543877
20
283.08198712702244
10
120.20200272543877
20
283.08198712702244
10
120.20200272543877
20
266.24865379368913
10
115.20200272543877
20
266.24865379368913
10
115.20200272543877
20
236.24865379368913
10
120.20200272543877
20
236.24865379368913
10
120.20200272543877
20
219.41532046035579
10
115.20200272543877
20
219.41532046035579
10
115.20200272543877
20
189.41532046035576
10
120.20200272543877
20
189.41532046035576
10
120.20200272543877
20
172.58198712702244
10
145.20200272543877
20
172.58198712702244
10
145.20200272543877
20
189.41532046035576
10
150.20200272543877
20
189.41532046035576
10
150.20200272543877
20
172.58198712702244
10
455.70200272543872
20
172.58198712702244
10
455.70200272543872
20
189.41532046035576
10
460.70200272543872
20
189.41532046035576
10
460.70200272543872
20
172.58198712702244
10
475.70200272543877
20
172.58198712702244
10
475.70200272543889
20
177.58198712702244
10
491.70200272543889
20
177.58198712702244
10
491.70200272543877
20
180.58198712702244
10
489.95200272543883
20
180.58198712702244
10
489.95200272543883
20
183.08198712702244
10
491.70200272543877
20
183.08198712702244
10
491.70200272543877
20
185.58198712702244
10
494.70200272543877
20
185.58198712702244
10
494.70200272543877
20
183.08198712702244
10
496.45200272543877
20
183.08198712702244
10
496.45200272543877
20
180.58198712702244
10
494.70200272543877
20
180.58198712702244
10
494.70200272543877
20
177.58198712702244
10
510.70200272543877
20
177.58198712702244
10
510.70200272543889
20
172.58198712702244
10
525.70200272543889
20
172.58198712702244
10
525.70200272543889
20
283.08198712702244
10
510.70200272543889
20
283.08198712702244
10
510.70200272543877
20
278.08198712702244
10
494.70200272543877
20
278.08198712702244
10
494.70200272543877
20
275.08198712702244
10
496.45200272543877
20
275.08198712702244
10
496.45200272543877
20
272.58198712702244
10
494.70200272543877
20
272.58198712702244
10
494.70200272543877
20
270.08198712702244
10
491.70200272543877
20
270.08198712702244
10
491.70200272543877
20
272.58198712702244
10
489.95200272543883
20
272.58198712702244
10
489.95200272543883
20
275.08198712702244
10
491.70200272543877
20
275.08198712702244
0
CIRCLE
5
160
100
AcDbEntity
8
0
100
AcDbCircle
10
147.70200272543877
20
204.41532046035576
30
0
40
1.4999999999999858
210
0
220
-0
230
1
0
LWPOLYLINE
5
161
100
AcDbEntity
8
0
100
AcDbPolyline
90
4
70
1
43
0.0
10
138.7020027254388
20
182.58198712702244
10
138.70200272543877
20
199.5819871270225
42
-0.99999999999999989
10
141.70200272543877
20
199.58198712702242
10
141.70200272543877
20
182.58198712702244
42
-0.99999999999999989
0
CIRCLE
5
162
100
AcDbEntity
8
0
100
AcDbCircle
10
147.70200272543877
20
251.24865379368913
30
0
40
1.5000000000000036
210
0
220
-0
230
1
0
LWPOLYLINE
5
163
100
AcDbEntity
8
0
100
AcDbPolyline
90
4
70
1
43
0.0
10
138.70200272543877
20
217.58198712702244
42
0.99999999999999989
10
141.70200272543877
20
217.58198712702239
10
141.70200272543877
20
234.58198712702242
42
0.99999999999999989
10
138.7020027254388
20
234.58198712702242
0
LWPOLYLINE
5
164
100
AcDbEntity
8
0
100
AcDbPolyline
90
4
70
1
43
0.0
10
131.70200272543877
20
252.58198712702244
42
0.99999999999999989
10
134.7020027254388
20
252.58198712702239
10
134.70200272543877
20
269.58198712702244
42
0.99999999999999989
10
131.70200272543877
20
269.58198712702244
0
LWPOLYLINE
5
165
100
AcDbEntity
8
0
100
AcDbPolyline
90
4
70
1
43
0.0
10
131.70200272543877
20
217.58198712702244
10
131.70200272543877
20
234.5819871270225
42
-0.99999999999999989
10
134.7020027254388
20
234.58198712702242
10
134.7020027254388
20
217.58198712702239
42
-0.99999999999999989
0
LWPOLYLINE
5
166
100
AcDbEntity
8
0
100
AcDbPolyline
90
4
70
1
43
0.0
10
460.70200272543872
20
236.24865379368913
10
460.70200272543872
20
219.41532046035579
10
455.70200272543872
20
219.41532046035579
10
455.70200272543872
20
236.24865379368913
0
LWPOLYLINE
5
167
100
AcDbEntity
8
0
100
AcDbPolyline
90
4
70
1
43
0.0
10
124.70200272543877
20
182.58198712702244
10
124.70200272543879
20
199.5819871270225
42
-0.99999999999999989
10
127.7020027254388
20
199.58198712702242
10
127.70200272543882
20
182.58198712702244
42
-0.99999999999999989
0
CIRCLE
5
168
100
AcDbEntity
8
0
100
AcDbCircle
10
117.70200272543877
20
204.40738750353776
30
0
40
1.5000000000000036
210
0
220
-0
230
1
0
CIRCLE
5
169
100
AcDbEntity
8
0
100
AcDbCircle
10
117.70200272543877
20
251.21543001698717
30
0
40
1.5000000000000036
210
0
220
-0
230
1
0
CIRCLE
5
170
100
AcDbEntity
8
0
100
AcDbCircle
10
458.20200272543872
20
251.25759962135945
30
0
40
1.4999999999999858
210
0
220
-0
230
1
0
CIRCLE
5
171
100
AcDbEntity
8
0
100
AcDbCircle
10
458.20200272543872
20
204.41861147702554
30
0
40
1.4999999999999858
210
0
220
-0
230
1
0
LWPOLYLINE
5
172
100
AcDbEntity
8
0
100
AcDbPolyline
90
4
70
1
43
0.0
10
124.70200272543879
20
252.58198712702244
42
0.99999999999999989
10
127.7020027254388
20
252.58198712702239
10
127.70200272543877
20
269.58198712702244
42
0.99999999999999989
10
124.70200272543877
20
269.58198712702244
0
LWPOLYLINE
5
173
100
AcDbEntity
8
0
100
AcDbPolyline
90
4
70
1
43
0.0
10
124.70200272543879
20
217.58198712702244
42
0.99999999999999989
10
127.7020027254388
20
217.58198712702239
10
127.7020027254388
20
234.58198712702242
42
0.99999999999999989
10
124.70200272543877
20
234.58198712702242
0
LWPOLYLINE
5
174
100
AcDbEntity
8
0
100
AcDbPolyline
90
4
70
1
43
0.0
10
138.70200272543877
20
252.58198712702244
42
0.99999999999999989
10
141.70200272543877
20
252.58198712702239
10
141.70200272543877
20
269.58198712702244
42
0.99999999999999989
10
138.7020027254388
20
269.58198712702244
0
LWPOLYLINE
5
175
100
AcDbEntity
8
0
100
AcDbPolyline
90
4
70
1
43
0.0
10
145.20200272543877
20
219.41532046035579
10
145.20200272543877
20
236.24865379368913
10
150.20200272543877
20
236.24865379368913
10
150.20200272543877
20
219.41532046035579
0
LWPOLYLINE
5
176
100
AcDbEntity
8
0
100
AcDbPolyline
90
4
70
1
43
0.0
10
131.70200272543877
20
182.58198712702244
42
0.99999999999999989
10
134.7020027254388
20
182.58198712702244
10
134.7020027254388
20
199.58198712702242
42
0.99999999999999989
10
131.70200272543877
20
199.58198712702242
0
LWPOLYLINE
5
177
100
AcDbEntity
8
0
100
AcDbPolyline
90
20
70
1
43
0.0
10
660.53533605877215
20
173.58198712702247
10
660.53533605877215
20
178.58198712702247
10
685.70200272543889
20
178.58198712702247
10
685.70200272543866
20
279.08198712702244
10
660.53533605877203
20
279.08198712702244
10
660.53533605877215
20
284.08198712702244
10
625.53533605877215
20
284.08198712702244
10
625.53533605877215
20
279.08198712702244
10
595.36866939210552
20
279.08198712702244
10
595.36866939210552
20
284.08198712702244
10
560.36866939210552
20
284.08198712702244
10
560.36866939210552
20
279.08198712702244
10
535.20200272543877
20
279.08198712702244
10
535.20200272543877
20
178.58198712702247
10
560.3686693921054
20
178.58198712702247
10
560.36866939210552
20
173.58198712702247
10
595.36866939210552
20
173.58198712702247
10
595.36866939210552
20
178.58198712702247
10
625.53533605877215
20
178.58198712702247
10
625.53533605877215
20
173.58198712702247
0
LWPOLYLINE
5
178
100
AcDbEntity
8
0
100
AcDbPolyline
90
132
70
1
43
0.0
10
665.53533605877215
20
63.581987127022472
10
665.53533605877215
20
58.581987127022472
10
695.70200272543889
20
58.581987127022458
10
695.70200272543866
20
75.415320460355787
10
690.70200272543889
20
75.415320460355787
10
690.70200272543889
20
88.915320460355787
10
687.70200272543889
20
88.915320460355787
10
687.70200272543889
20
87.165320460355787
10
685.20200272543889
20
87.165320460355787
10
685.20200272543889
20
88.915320460355787
10
682.70200272543889
20
88.915320460355787
10
682.70200272543889
20
91.915320460355787
10
685.20200272543889
20
91.915320460355787
10
685.20200272543889
20
93.665320460355787
10
687.70200272543889
20
93.665320460355758
10
687.70200272543889
20
91.915320460355773
10
690.702002725439
20
91.915320460355787
10
690.70200272543889
20
105.41532046035579
10
695.70200272543889
20
105.41532046035577
10
695.70200272543889
20
122.2486537936891
10
690.70200272543889
20
122.2486537936891
10
690.70200272543889
20
135.74865379368913
10
687.70200272543889
20
135.74865379368913
10
687.70200272543889
20
133.99865379368913
10
685.20200272543877
20
133.99865379368507
10
685.20200272543877
20
135.74865379368913
10
682.70200272543889
20
135.74865379368913
10
682.70200272543889
20
138.74865379368913
10
685.20200272543889
20
138.74865379368913
10
685.20200272543877
20
140.49865379368845
10
687.70200272543889
20
140.49865379368913
10
687.70200272543889
20
138.7486537936891
10
690.702002725439
20
138.7486537936891
10
690.70200272543889
20
152.24865379368913
10
695.70200272543889
20
152.24865379368913
10
695.70200272543866
20
169.08198712702244
10
665.53533605877203
20
169.08198712702244
10
665.53533605877215
20
164.08198712702244
10
649.53533605877226
20
164.08198712702244
10
649.53533605877215
20
161.08198712702244
10
651.28533605877215
20
161.08198712702244
10
651.28533605873827
20
158.58198712702244
10
649.53533605877215
20
158.58198712702244
10
649.53533605877215
20
156.08198712702244
10
646.53533605877215
20
156.08198712702244
10
646.53533605877215
20
158.58198712702244
10
644.7853360587726
20
158.58198712702244
10
644.7853360587726
20
161.08198712702244
10
646.53533605877215
20
161.08198712702244
10
646.53533605877215
20
164.08198712702244
10
630.53533605877215
20
164.08198712702244
10
630.53533605877215
20
169.08198712702244
10
600.36866939210552
20
169.08198712702244
10
600.36866939210552
20
164.08198712702244
10
584.3686693921054
20
164.08198712702244
10
584.3686693921054
20
161.08198712702244
10
586.11866939209392
20
161.08198712702244
10
586.11866939209278
20
158.58198712702244
10
584.3686693921054
20
158.58198712702244
10
584.3686693921054
20
156.08198712702244
10
581.3686693921054
20
156.08198712702244
10
581.36866939210552
20
158.58198712702244
10
579.61866939210438
20
158.58198712702244
10
579.61866939210483
20
161.08198712702244
10
581.36866939210552
20
161.08198712702244
10
581.36866939210552
20
164.08198712702244
10
565.36866939210552
20
164.08198712702244
10
565.36866939210552
20
169.08198712702244
10
535.20200272543877
20
169.08198712702244
10
535.20200272543877
20
152.2486537936891
10
540.20200272543877
20
152.24865379368913
10
540.20200272543877
20
138.7486537936891
10
543.20200272543877
20
138.7486537936891
10
543.20200272543877
20
140.49865379368913
10
545.70200272543877
20
140.49865379368913
10
545.70200272543877
20
138.74865379368913
10
548.20200272543877
20
138.74865379368913
10
548.20200272543877
20
135.74865379368913
10
545.70200272543877
20
135.74865379368913
10
545.70200272543877
20
133.99865379368913
10
543.20200272543889
20
133.99865379368913
10
543.20200272543877
20
135.74865379368913
10
540.20200272543877
20
135.74865379368913
10
540.20200272543877
20
122.2486537936891
10
535.20200272543877
20
122.2486537936891
10
535.20200272543877
20
105.41532046035577
10
540.20200272543877
20
105.41532046035577
10
540.20200272543877
20
91.915320460355773
10
543.20200272543877
20
91.915320460355787
10
543.20200272543877
20
93.665320460355801
10
545.70200272543877
20
93.665320460355787
10
545.70200272543877
20
91.915320460355787
10
548.20200272543877
20
91.915320460355787
10
548.20200272543877
20
88.915320460355787
10
545.70200272543877
20
88.915320460355787
10
545.70200272543877
20
87.165320460355787
10
543.20200272543877
20
87.165320460355787
10
543.20200272543877
20
88.915320460355787
10
540.20200272543877
20
88.915320460355787
10
540.20200272543877
20
75.415320460355787
10
535.20200272543877
20
75.415320460355787
10
535.20200272543877
20
58.581987127022458
10
565.36866939210552
20
58.581987127022472
10
565.36866939210552
20
63.581987127022472
10
581.36866939210552
20
63.581987127022472
10
581.36866939210552
20
66.581987127022472
10
579.6186693921054
20
66.581987127022472
10
579.6186693921054
20
69.081987127022472
10
581.36866939210552
20
69.081987127022472
10
581.3686693921054
20
71.581987127022472
10
584.3686693921054
20
71.581987127022472
10
584.3686693921054
20
69.081987127022472
10
586.1186693921054
20
69.081987127022472
10
586.1186693921054
20
66.581987127022472
10
584.3686693921054
20
66.581987127022472
10
584.3686693921054
20
63.581987127022472
10
600.36866939210552
20
63.581987127022472
10
600.36866939210552
20
58.581987127022472
10
630.53533605877215
20
58.581987127022472
10
630.53533605877215
20
63.581987127022472
10
646.53533605877215
20
63.581987127022472
10
646.53533605877215
20
66.581987127022472
10
644.78533605877203
20
66.581987127022472
10
644.78533605877203
20
69.081987127022472
10
646.53533605877215
20
69.081987127022472
10
646.53533605877215
20
71.581987127022472
10
649.53533605877215
20
71.581987127022472
10
649.53533605877215
20
69.081987127022472
10
651.28533605877215
20
69.081987127022472
10
651.28533605877215
20
66.581987127022472
10
649.53533605877215
20
66.581987127022472
10
649.53533605877215
20
63.581987127022472
0
LWPOLYLINE
5
179
100
AcDbEntity
8
0
100
AcDbPolyline
90
4
70
1
43
0.0
10
672.45200272543889
20
34.498653793689051
10
672.45200272543889
20
-40.001346206310942
10
547.95200272543877
20
-40.001346206310927
10
547.95200272543877
20
34.498653793689073
0
LWPOLYLINE
5
180
100
AcDbEntity
8
0
100
AcDbPolyline
90
132
70
1
43
0.0
10
644.28533605877215
20
-53.001346206310899
10
685.45200272543889
20
-53.00134620631092
10
685.45200272543877
20
-58.001346206310927
10
690.45200272543877
20
-58.001346206310927
10
690.45200272543877
20
-41.168012872977599
10
685.45200272543877
20
-41.168012872977599
10
685.45200272543877
20
-27.668012872977599
10
682.45200272543889
20
-27.668012872977599
10
682.45200272543889
20
-29.418012872977606
10
679.95200272543889
20
-29.418012872977606
10
679.95200272543889
20
-27.668012872977599
10
677.45200272543889
20
-27.668012872977599
10
677.45200272543889
20
-24.668012872977592
10
679.95200272543889
20
-24.668012872977592
10
679.95200272543889
20
-22.91801287297762
10
682.45200272543889
20
-22.91801287297762
10
682.45200272543889
20
-24.668012872977592
10
685.45200272543889
20
-24.668012872977592
10
685.45200272543889
20
-11.168012872977595
10
690.45200272543877
20
-11.168012872977595
10
690.45200272543877
20
5.6653204603557406
10
685.45200272543889
20
5.6653204603557414
10
685.45200272543889
20
19.165320460355737
10
682.452002725439
20
19.165320460355737
10
682.45200272543889
20
17.41532046035573
10
679.95200272543889
20
17.41532046035168
10
679.95200272543889
20
19.165320460355737
10
677.45200272543889
20
19.165320460355737
10
677.45200272543889
20
22.165320460355709
10
679.95200272543889
20
22.165320460355709
10
679.95200272543889
20
23.915320460355041
10
682.45200272543889
20
23.915320460355751
10
682.45200272543889
20
22.165320460355709
10
685.45200272543877
20
22.165320460355709
10
685.45200272543889
20
35.665320460355723
10
690.45200272543889
20
35.665320460355723
10
690.45200272543889
20
52.498653793689094
10
660.28533605877215
20
52.498653793689058
10
660.28533605877215
20
47.498653793689058
10
644.28533605877215
20
47.498653793689058
10
644.28533605877215
20
44.498653793689051
10
646.03533605877215
20
44.498653793689051
10
646.03533605873838
20
41.998653793689051
10
644.28533605877215
20
41.998653793689051
10
644.28533605877215
20
39.498653793689051
10
641.28533605877226
20
39.498653793689051
10
641.28533605877215
20
41.998653793689051
10
639.53533605877249
20
41.998653793689051
10
639.5353360587726
20
44.498653793689051
10
641.28533605877215
20
44.498653793689051
10
641.28533605877215
20
47.498653793689058
10
625.28533605877203
20
47.498653793689058
10
625.28533605877215
20
52.498653793689058
10
595.11866939210552
20
52.498653793689058
10
595.11866939210552
20
47.498653793689058
10
579.11866939210552
20
47.498653793689058
10
579.11866939210552
20
44.498653793689087
10
580.86866939209392
20
44.498653793689087
10
580.86866939209267
20
41.998653793689051
10
579.11866939210552
20
41.998653793689051
10
579.11866939210552
20
39.498653793689087
10
576.1186693921054
20
39.498653793689087
10
576.11866939210552
20
41.998653793689087
10
574.36866939210438
20
41.998653793689087
10
574.36866939210495
20
44.498653793689087
10
576.1186693921054
20
44.498653793689087
10
576.11866939210552
20
47.498653793689094
10
560.11866939210552
20
47.498653793689094
10
560.11866939210552
20
52.498653793689094
10
529.95200272543889
20
52.49865379368913
10
529.95200272543889
20
35.665320460355758
10
534.95200272543889
20
35.665320460355758
10
534.95200272543889
20
22.165320460355744
10
537.95200272543877
20
22.165320460355744
10
537.95200272543877
20
23.915320460355787
10
540.45200272543877
20
23.915320460355787
10
540.45200272543889
20
22.165320460355744
10
542.95200272543877
20
22.165320460355744
10
542.95200272543877
20
19.165320460355773
10
540.45200272543877
20
19.165320460355773
10
540.45200272543889
20
17.415320460355765
10
537.95200272543889
20
17.415320460355765
10
537.95200272543889
20
19.165320460355773
10
534.95200272543877
20
19.165320460355773
10
534.95200272543889
20
5.6653204603557761
10
529.95200272543889
20
5.6653204603557592
10
529.95200272543889
20
-11.168012872977577
10
534.95200272543889
20
-11.168012872977577
10
534.95200272543889
20
-24.668012872977574
10
537.95200272543889
20
-24.668012872977574
10
537.95200272543877
20
-22.918012872977584
10
540.45200272543877
20
-22.918012872977584
10
540.45200272543877
20
-24.668012872977574
10
542.95200272543877
20
-24.668012872977574
10
542.95200272543877
20
-27.668012872977581
10
540.45200272543877
20
-27.668012872977581
10
540.45200272543877
20
-29.418012872977588
10
537.95200272543877
20
-29.418012872977588
10
537.95200272543877
20
-27.668012872977581
10
534.95200272543877
20
-27.668012872977581
10
534.95200272543889
20
-41.168012872977577
10
529.95200272543889
20
-41.168012872977577
10
529.95200272543889
20
-58.001346206310913
10
534.95200272543889
20
-58.001346206310913
10
534.95200272543889
20
-53.001346206310913
10
576.11866939210552
20
-53.001346206310906
10
576.11866939210552
20
-50.001346206310885
10
574.3686693921054
20
-50.001346206310885
10
574.3686693921054
20
-47.501346206310885
10
576.1186693921054
20
-47.501346206310885
10
576.11866939210552
20
-45.001346206310885
10
579.11866939210552
20
-45.001346206310885
10
579.11866939210552
20
-47.501346206310885
10
580.8686693921054
20
-47.501346206310885
10
580.8686693921054
20
-50.001346206310885
10
579.11866939210552
20
-50.001346206310885
10
579.11866939210552
20
-53.001346206310899
10
595.11866939210552
20
-53.001346206310899
10
595.11866939210552
20
-58.001346206310899
10
625.28533605877215
20
-58.001346206310899
10
625.28533605877215
20
-53.001346206310899
10
641.28533605877215
20
-53.001346206310899
10
641.28533605877215
20
-50.001346206310885
10
639.53533605877215
20
-50.001346206310885
10
639.53533605877215
20
-47.501346206310885
10
641.28533605877215
20
-47.501346206310885
10
641.28533605877215
20
-45.001346206310885
10
644.28533605877203
20
-45.001346206310885
10
644.28533605877215
20
-47.501346206310885
10
646.03533605877215
20
-47.501346206310885
10
646.03533605877215
20
-50.001346206310885
10
644.28533605877215
20
-50.001346206310885
0
CIRCLE
5
181
100
AcDbEntity
8
0
100
AcDbCircle
10
587.96070996629692
20
19.424564350482978
30
0
40
1.3500000000000001
210
0
220
-0
230
1
0
CIRCLE
5
182
100
AcDbEntity
8
0
100
AcDbCircle
10
645.96070996629692
20
19.42456435048312
30
0
40
1.3500000000000001
210
0
220
-0
230
1
0
CIRCLE
5
183
100
AcDbEntity
8
0
100
AcDbCircle
10
645.96070996629692
20
-29.575435649516866
30
0
40
1.3499999999999979
210
0
220
-0
230
1
0
LWPOLYLINE
5
184
100
AcDbEntity
8
0
100
AcDbPolyline
90
20
70
1
43
0.0
10
650.41514948735789
20
24.987661071327505
10
582.72651745060489
20
24.987661071327505
10
582.72651745060466
20
-32.77433892867252
10
585.24848282069115
20
-32.77433892867252
10
585.24848282069115
20
-32.772743967060634
10
583.49848282069115
20
-32.772743967060705
10
583.49848282069115
20
-30.272743967060709
10
585.24848282069115
20
-30.272743967060709
10
585.24848282069115
20
-27.772743967060709
10
588.24848282069127
20
-27.772743967060709
10
588.24848282069127
20
-30.272743967060709
10
589.99848282069127
20
-30.272743967060638
10
589.99848282069127
20
-32.772743967060634
10
588.24848282069127
20
-32.772743967060634
10
588.24848282069127
20
-32.77433892867252
10
592.72651745060466
20
-32.77433892867252
10
592.72651745060477
20
14.987661071327505
10
640.41514948735789
20
14.987661071327505
10
640.41514948735789
20
-32.774654568089346
10
650.41514948735789
20
-32.774654568089346
0
LWPOLYLINE
5
185
100
AcDbEntity
8
0
100
AcDbPolyline
90
4
70
1
43
0.0
10
660.20205167534698
20
-85.168012872977528
10
680.20205167534698
20
-85.168012872977542
42
-0.99999999999999989
10
680.20205167534698
20
-88.168012872977556
10
660.20205167534698
20
-88.16801287297757
42
-0.99999999999999989
0
LWPOLYLINE
5
186
100
AcDbEntity
8
0
100
AcDbPolyline
90
4
70
1
43
0.0
10
580.20205167534698
20
-85.168012872977528
10
600.20205167534698
20
-85.168012872977542
42
-0.99999999999999989
10
600.20205167534698
20
-88.168012872977556
10
580.20205167534698
20
-88.16801287297757
42
-0.99999999999999989
0
LWPOLYLINE
5
187
100
AcDbEntity
8
0
100
AcDbPolyline
90
4
70
1
43
0.0
10
540.20205167534698
20
-85.168012872977528
10
560.20205167534698
20
-85.168012872977542
42
-0.99999999999999989
10
560.20205167534698
20
-88.168012872977556
10
540.20205167534698
20
-88.16801287297757
42
-0.99999999999999989
0
LWPOLYLINE
5
188
100
AcDbEntity
8
0
100
AcDbPolyline
90
4
70
1
43
0.0
10
620.20205167534698
20
-85.168012872977528
10
640.20205167534698
20
-85.168012872977542
42
-0.99999999999999989
10
640.20205167534698
20
-88.168012872977556
10
620.20205167534698
20
-88.16801287297757
42
-0.99999999999999989
0
LWPOLYLINE
5
189
100
AcDbEntity
8
0
100
AcDbPolyline
90
4
70
1
43
0.0
10
620.20205167534698
20
-92.168012872977556
10
640.20205167534698
20
-92.168012872977542
42
-0.99999999999999989
10
640.20205167534698
20
-95.168012872977542
10
620.20205167534698
20
-95.168012872977528
42
-0.99999999999999989
0
LWPOLYLINE
5
190
100
AcDbEntity
8
0
100
AcDbPolyline
90
4
70
1
43
0.0
10
660.20205167534698
20
-78.168012872977528
10
680.20205167534698
20
-78.168012872977556
42
-0.99999999999999989
10
680.20205167534698
20
-81.168012872977556
10
660.20205167534698
20
-81.168012872977556
42
-0.99999999999999989
0
LWPOLYLINE
5
191
100
AcDbEntity
8
0
100
AcDbPolyline
90
4
70
1
43
0.0
10
580.20205167534698
20
-78.168012872977528
10
600.20205167534698
20
-78.168012872977556
42
-0.99999999999999989
10
600.20205167534698
20
-81.168012872977556
10
580.20205167534698
20
-81.168012872977584
42
-0.99999999999999989
0
LWPOLYLINE
5
192
100
AcDbEntity
8
0
100
AcDbPolyline
90
4
70
1
43
0.0
10
540.20205167534698
20
-78.168012872977528
10
560.20205167534698
20
-78.168012872977556
42
-0.99999999999999989
10
560.20205167534698
20
-81.168012872977556
10
540.20205167534698
20
-81.168012872977584
42
-0.99999999999999989
0
LWPOLYLINE
5
193
100
AcDbEntity
8
0
100
AcDbPolyline
90
4
70
1
43
0.0
10
620.20205167534698
20
-78.168012872977528
10
640.20205167534698
20
-78.168012872977556
42
-0.99999999999999989
10
640.20205167534698
20
-81.168012872977556
10
620.20205167534698
20
-81.168012872977584
42
-0.99999999999999989
0
LWPOLYLINE
5
194
100
AcDbEntity
8
0
100
AcDbPolyline
90
4
70
1
43
0.0
10
580.20205167534698
20
-92.168012872977556
10
600.20205167534698
20
-92.168012872977542
42
-0.99999999999999989
10
600.20205167534698
20
-95.168012872977542
10
580.20205167534698
20
-95.168012872977528
42
-0.99999999999999989
0
CIRCLE
5
195
100
AcDbEntity
8
0
100
AcDbCircle
10
643.03538500868035
20
-101.16801287297754
30
0
40
1.5000000000000036
210
0
220
0
230
1
0
CIRCLE
5
196
100
AcDbEntity
8
0
100
AcDbCircle
10
643.03538500868035
20
-71.168012872977542
30
0
40
1.4999999999999991
210
0
220
0
230
1
0
CIRCLE
5
197
100
AcDbEntity
8
0
100
AcDbCircle
10
577.86871834201361
20
-71.168012872977542
30
0
40
1.4999999999999991
210
0
220
0
230
1
0
CIRCLE
5
198
100
AcDbEntity
8
0
100
AcDbCircle
10
577.86871834201361
20
-101.16801287297754
30
0
40
1.4999999999999991
210
0
220
0
230
1
0
LWPOLYLINE
5
199
100
AcDbEntity
8
0
100
AcDbPolyline
90
20
70
1
43
0.0
10
625.53538500868035
20
-103.66801287297754
10
660.53538500868035
20
-103.66801287297754
10
660.53538500868035
20
-98.668012872977542
10
685.70195377553068
20
-98.668012872977542
10
685.70195377553068
20
-73.668012872977542
10
660.53538500868035
20
-73.668012872977542
10
660.53538500868035
20
-68.668012872977542
10
625.53538500868035
20
-68.668012872977542
10
625.53538500868035
20
-73.668012872977542
10
595.36871834201372
20
-73.668012872977542
10
595.36871834201361
20
-68.668012872977542
10
560.36871834201361
20
-68.668012872977542
10
560.36871834201372
20
-73.668012872977542
10
535.20205167534698
20
-73.668012872977542
10
535.20205167534698
20
-98.668012872977542
10
560.36871834201361
20
-98.668012872977542
10
560.36871834201372
20
-103.66801287297754
10
595.36871834201361
20
-103.66801287297754
10
595.36871834201361
20
-98.668012872977542
10
625.53538500868035
20
-98.668012872977542
0
ENDSEC
0
SECTION
2
OBJECTS
0
DICTIONARY
5
C
100
AcDbDictionary
3
ACAD_GROUP
350
D
3
ACAD_MLINESTYLE
350
17
0
DICTIONARY
5
D
100
AcDbDictionary
0
DICTIONARY
5
1A
330
C
100
AcDbDictionary
0
DICTIONARY
5
17
100
AcDbDictionary
0
ENDSEC
0
EOF
